# Blender v2.83.1 OBJ File: 'EgoObjects.blend'
# www.blender.org
mtllib Clock.mtl
o Clock_Circle.006
v -0.000000 0.656362 0.000000
v -0.385800 0.531008 -0.000000
v -0.624237 0.202827 -0.000000
v -0.624237 -0.202827 -0.000000
v -0.385800 -0.531008 -0.000000
v 0.000000 -0.656362 -0.000000
v 0.385800 -0.531008 -0.000000
v 0.624237 -0.202827 -0.000000
v 0.624237 0.202827 -0.000000
v 0.385800 0.531008 -0.000000
v -0.000000 0.558201 0.000000
v -0.328102 0.451594 -0.000000
v -0.530881 0.172494 -0.000000
v -0.530881 -0.172494 -0.000000
v -0.328102 -0.451594 -0.000000
v 0.000000 -0.558201 -0.000000
v 0.328102 -0.451594 -0.000000
v 0.530881 -0.172494 -0.000000
v 0.530881 0.172494 -0.000000
v 0.328102 0.451594 -0.000000
v -0.375261 0.516502 0.052315
v -0.000000 0.638432 0.052315
v -0.607185 0.197286 0.052315
v -0.607185 -0.197286 0.052315
v -0.375261 -0.516503 0.052315
v 0.000000 -0.638432 0.052315
v 0.375261 -0.516502 0.052315
v 0.607185 -0.197286 0.052315
v 0.607185 0.197286 0.052315
v 0.375261 0.516503 0.052315
v -0.338641 0.466100 0.052315
v -0.000000 0.576131 0.052315
v -0.547933 0.178034 0.052315
v -0.547933 -0.178034 0.052315
v -0.338641 -0.466100 0.052315
v 0.000000 -0.576131 0.052315
v 0.338641 -0.466100 0.052315
v 0.547933 -0.178034 0.052315
v 0.547933 0.178034 0.052315
v 0.338641 0.466100 0.052315
v -0.385800 0.531008 0.029482
v -0.000000 0.656362 0.029482
v -0.624237 0.202827 0.029482
v -0.624237 -0.202827 0.029482
v -0.385800 -0.531008 0.029482
v 0.000000 -0.656362 0.029482
v 0.385800 -0.531008 0.029482
v 0.624237 -0.202827 0.029482
v 0.624237 0.202827 0.029482
v 0.385800 0.531008 0.029482
v -0.024647 0.033924 0.029482
v 0.000000 0.041932 0.029482
v -0.032194 0.010460 0.043860
v -0.032194 -0.010460 0.043860
v -0.024647 -0.033924 0.029482
v -0.000000 -0.041932 0.029482
v 0.024647 -0.033924 0.029482
v 0.032194 -0.010460 0.043860
v 0.032194 0.010460 0.043860
v 0.024647 0.033924 0.029482
v -0.328102 0.451594 0.029482
v -0.000000 0.558201 0.029482
v -0.530881 0.172494 0.029482
v -0.530881 -0.172494 0.029482
v -0.328102 -0.451594 0.029482
v 0.000000 -0.558201 0.029482
v 0.328102 -0.451594 0.029482
v 0.530881 -0.172494 0.029482
v 0.530881 0.172494 0.029482
v 0.328102 0.451594 0.029482
v -0.019897 0.027386 0.043860
v 0.000000 0.033850 0.043860
v -0.039880 0.012958 0.029482
v -0.039880 -0.012958 0.029482
v -0.019897 -0.027386 0.043860
v -0.000000 -0.033850 0.043860
v 0.019897 -0.027386 0.043860
v 0.039880 -0.012958 0.029482
v 0.039880 0.012958 0.029482
v 0.019897 0.027386 0.043860
v -0.016598 0.502003 0.044288
v -0.016598 0.009622 0.044288
v 0.016491 0.009747 0.044288
v 0.016491 0.502210 0.044288
v -0.000054 0.004898 0.044288
v -0.000054 0.512690 0.044288
v 0.010140 0.014504 0.050903
v 0.010140 0.500003 0.050903
v -0.010247 0.014414 0.050903
v -0.010247 0.499813 0.050903
v -0.000077 0.011509 0.050903
v -0.000029 0.505900 0.050903
v 0.013862 0.102776 0.050903
v -0.014009 0.102668 0.050903
v -0.000093 0.102666 0.050903
v 0.022544 0.099286 0.044288
v -0.022691 0.099146 0.044288
v -0.000073 0.099124 0.044288
v 0.243095 -0.169075 0.044288
v 0.014690 0.009583 0.044288
v -0.005639 -0.016526 0.044288
v 0.222805 -0.195213 0.044287
v 0.002305 -0.001735 0.044288
v 0.237859 -0.185984 0.044287
v 0.000481 -0.013249 0.050903
v 0.225694 -0.189410 0.050903
v 0.013000 0.002841 0.050903
v 0.238166 -0.173283 0.050903
v 0.005386 -0.004116 0.050903
v 0.234695 -0.183540 0.050903
v 0.039136 -0.048210 0.050903
v 0.056256 -0.026219 0.050903
v 0.047682 -0.037178 0.050903
v 0.032167 -0.053782 0.044288
v 0.059972 -0.018102 0.044288
v 0.046027 -0.035909 0.044288
v -0.032194 0.010460 0.053436
v -0.032194 -0.010460 0.053436
v 0.032194 -0.010460 0.053436
v 0.032194 0.010460 0.053436
v -0.019897 0.027386 0.053436
v 0.000000 0.033850 0.053436
v -0.019897 -0.027386 0.053436
v -0.000000 -0.033850 0.053436
v 0.019897 -0.027386 0.053436
v 0.019897 0.027386 0.053436
v 0.015138 -0.020836 0.060915
v 0.015138 0.020836 0.060915
v -0.000000 -0.025755 0.060915
v 0.000000 0.025755 0.060915
v -0.015138 0.020836 0.060915
v -0.015138 -0.020836 0.060915
v -0.024494 0.007959 0.060915
v -0.024494 -0.007959 0.060915
v 0.024494 -0.007959 0.060915
v 0.024494 0.007959 0.060915
vt 0.000000 0.000000
vt 0.000000 0.000000
vt 0.000000 0.000000
vt 0.000000 0.000000
vt 0.000000 0.000000
vt 0.000000 0.000000
vt 0.000000 0.000000
vt 0.000000 0.000000
vt 0.000000 0.000000
vt 0.000000 0.000000
vt 0.000000 0.000000
vt 0.000000 0.000000
vt 0.000000 0.000000
vt 0.000000 0.000000
vt 0.000000 0.000000
vt 0.000000 0.000000
vt 0.000000 0.000000
vt 0.000000 0.000000
vt 0.000000 0.000000
vt 0.000000 0.000000
vt 0.000000 0.000000
vt 0.000000 0.000000
vt 0.000000 0.000000
vt 0.000000 0.000000
vt 0.000000 0.000000
vt 0.000000 0.000000
vt 0.000000 0.000000
vt 0.000000 0.000000
vt 0.000000 0.000000
vt 0.000000 0.000000
vt 0.000000 0.000000
vt 0.000000 0.000000
vt 0.000000 0.000000
vt 0.000000 0.000000
vt 0.000000 0.000000
vt 0.000000 0.000000
vt 0.000000 0.000000
vt 0.000000 0.000000
vt 0.000000 0.000000
vt 0.000000 0.000000
vt 0.000000 0.000000
vt 0.000000 0.000000
vt 0.000000 0.000000
vt 0.000000 0.000000
vt 0.000000 0.000000
vt 0.000000 0.000000
vt 0.000000 0.000000
vt 0.000000 0.000000
vt 0.000000 0.000000
vt 0.000000 0.000000
vt 0.000000 0.000000
vt 0.000000 0.000000
vt 0.000000 0.000000
vt 0.000000 0.000000
vt 0.000000 0.000000
vt 0.000000 0.000000
vt 0.000000 0.000000
vt 0.000000 0.000000
vt 0.000000 0.000000
vt 0.000000 0.000000
vt 0.000000 0.000000
vt 0.000000 0.000000
vt 0.000000 0.000000
vt 0.000000 0.000000
vt 0.000000 0.000000
vt 0.000000 0.000000
vt 0.000000 0.000000
vt 0.000000 0.000000
vt 0.000000 0.000000
vt 0.000000 0.000000
vt 0.000000 0.000000
vt 0.000000 0.000000
vt 0.000000 0.000000
vt 0.000000 0.000000
vt 0.000000 0.000000
vt 0.000000 0.000000
vt 0.000000 0.000000
vt 0.000000 0.000000
vt 0.000000 0.000000
vt 0.000000 0.000000
vt 0.000000 0.000000
vt 0.000000 0.000000
vt 0.000000 0.000000
vt 0.000000 0.000000
vt 0.000000 0.000000
vt 0.000000 0.000000
vt 0.000000 0.000000
vt 0.000000 0.000000
vt 0.000000 0.000000
vt 0.000000 0.000000
vt 0.000000 0.000000
vt 0.000000 0.000000
vt 0.000000 0.000000
vt 0.000000 0.000000
vt 0.000000 0.000000
vt 0.000000 0.000000
vt 0.000000 0.000000
vt 0.000000 0.000000
vt 0.000000 0.000000
vt 0.000000 0.000000
vt 0.000000 0.000000
vt 0.000000 0.000000
vt 0.000000 0.000000
vt 0.000000 0.000000
vt 0.000000 0.000000
vt 0.000000 0.000000
vt 0.000000 0.000000
vt 0.000000 0.000000
vt 0.000000 0.000000
vt 0.000000 0.000000
vt 0.000000 0.000000
vt 0.000000 0.000000
vt 0.000000 0.000000
vt 0.000000 0.000000
vt 0.000000 0.000000
vt 0.000000 0.000000
vt 0.000000 0.000000
vt 0.000000 0.000000
vt 0.000000 0.000000
vt 0.000000 0.000000
vt 0.000000 0.000000
vt 0.000000 0.000000
vt 0.000000 0.000000
vt 0.000000 0.000000
vt 0.000000 0.000000
vt 0.000000 0.000000
vt 0.000000 0.000000
vt 0.000000 0.000000
vt 0.000000 0.000000
vt 0.000000 0.000000
vt 0.000000 0.000000
vt 0.000000 0.000000
vt 0.000000 0.000000
vt 0.000000 0.000000
vt 0.000000 0.000000
vt 0.000000 0.000000
vn -0.0000 -0.0000 1.0000
vn -0.0000 0.0000 -1.0000
vn -0.8090 0.5878 0.0000
vn 0.8090 0.5878 0.0000
vn 0.3090 -0.9511 0.0000
vn -1.0000 -0.0000 0.0000
vn 0.3090 0.9511 0.0000
vn 0.8090 -0.5878 0.0000
vn -0.8090 -0.5878 0.0000
vn -0.3090 0.9511 0.0000
vn 1.0000 0.0000 0.0000
vn -0.3090 -0.9511 0.0000
vn -0.2476 0.7620 0.5984
vn -0.6482 0.4709 0.5984
vn -0.8012 -0.0000 0.5984
vn -0.6482 -0.4709 0.5984
vn -0.2476 -0.7620 0.5984
vn 0.2476 -0.7620 0.5984
vn 0.6482 -0.4709 0.5984
vn 0.8012 -0.0000 0.5984
vn 0.6482 0.4709 0.5984
vn 0.2476 0.7620 0.5984
vn -0.2725 0.8387 0.4714
vn -0.7135 0.5184 0.4714
vn -0.8819 -0.0000 0.4714
vn -0.7135 -0.5184 0.4714
vn -0.2725 -0.8387 0.4714
vn 0.2725 -0.8387 0.4714
vn 0.7135 -0.5184 0.4714
vn 0.8819 -0.0000 0.4714
vn 0.7135 0.5184 0.4714
vn 0.2725 0.8387 0.4714
vn 0.6492 -0.0357 0.7598
vn -0.6611 0.0081 0.7503
vn -0.1981 -0.6937 0.6925
vn 0.4023 0.6562 0.6385
vn 0.2029 -0.6923 0.6925
vn -0.4085 0.6517 0.6391
vn -0.6490 -0.0360 0.7600
vn 0.6610 0.0081 0.7503
vn -0.4471 -0.4734 0.7589
vn 0.4181 0.5121 0.7502
vn -0.5836 0.6386 0.5016
vn 0.4680 -0.7456 0.4745
vn -0.7619 0.4092 0.5021
vn 0.8373 -0.2684 0.4764
vn 0.3513 0.5481 0.7590
vn -0.3964 -0.5291 0.7503
vn 0.5637 -0.4095 0.7173
vn -0.5637 -0.4095 0.7173
vn -0.2153 0.6627 0.7173
vn 0.6968 -0.0000 0.7173
vn -0.2153 -0.6627 0.7173
vn -0.5637 0.4095 0.7173
vn 0.5637 0.4095 0.7173
vn 0.2153 -0.6627 0.7173
vn -0.6968 -0.0000 0.7173
vn 0.2153 0.6627 0.7173
g Clock_Circle.006_Mat2.001
usemtl Mat2.001
s off
f 51/1/1 52/2/1 62/3/1 61/4/1
f 73/5/1 51/1/1 61/4/1 63/6/1
f 74/7/1 73/5/1 63/6/1 64/8/1
f 55/9/1 74/7/1 64/8/1 65/10/1
f 56/11/1 55/9/1 65/10/1 66/12/1
f 57/13/1 56/11/1 66/12/1 67/14/1
f 78/15/1 57/13/1 67/14/1 68/16/1
f 79/17/1 78/15/1 68/16/1 69/18/1
f 60/19/1 79/17/1 69/18/1 70/20/1
f 52/2/1 60/19/1 70/20/1 62/3/1
g Clock_Circle.006_Mat4
usemtl Mat4
f 10/21/2 20/22/2 11/23/2 1/24/2
f 9/25/2 19/26/2 20/22/2 10/21/2
f 8/27/2 18/28/2 19/26/2 9/25/2
f 7/29/2 17/30/2 18/28/2 8/27/2
f 6/31/2 16/32/2 17/30/2 7/29/2
f 5/33/2 15/34/2 16/32/2 6/31/2
f 4/35/2 14/36/2 15/34/2 5/33/2
f 3/37/2 13/38/2 14/36/2 4/35/2
f 2/39/2 12/40/2 13/38/2 3/37/2
f 1/24/2 11/23/2 12/40/2 2/39/2
f 18/28/2 17/30/2 20/22/2 19/26/2
f 17/30/2 16/32/2 11/23/2 20/22/2
f 12/40/2 11/23/2 16/32/2 15/34/2
f 13/38/2 12/40/2 15/34/2 14/36/2
f 30/41/1 22/42/1 32/43/1 40/44/1
f 29/45/1 30/41/1 40/44/1 39/46/1
f 28/47/1 29/45/1 39/46/1 38/48/1
f 27/49/1 28/47/1 38/48/1 37/50/1
f 26/51/1 27/49/1 37/50/1 36/52/1
f 25/53/1 26/51/1 36/52/1 35/54/1
f 24/55/1 25/53/1 35/54/1 34/56/1
f 23/57/1 24/55/1 34/56/1 33/58/1
f 21/59/1 23/57/1 33/58/1 31/60/1
f 22/42/1 21/59/1 31/60/1 32/43/1
f 58/61/1 59/62/1 80/63/1 77/64/1
f 77/64/1 80/63/1 72/65/1 76/66/1
f 71/67/1 75/68/1 76/66/1 72/65/1
f 53/69/1 54/70/1 75/68/1 71/67/1
f 2/39/3 3/37/3 43/71/3 41/72/3
f 9/25/4 10/21/4 50/73/4 49/74/4
f 6/31/5 7/29/5 47/75/5 46/76/5
f 3/37/6 4/35/6 44/77/6 43/71/6
f 10/21/7 1/24/7 42/78/7 50/73/7
f 7/29/8 8/27/8 48/79/8 47/75/8
f 4/35/9 5/33/9 45/80/9 44/77/9
f 1/24/10 2/39/10 41/72/10 42/78/10
f 8/27/11 9/25/11 49/74/11 48/79/11
f 5/33/12 6/31/12 46/76/12 45/80/12
f 21/59/13 22/42/13 42/78/13 41/72/13
f 23/57/14 21/59/14 41/72/14 43/71/14
f 24/55/15 23/57/15 43/71/15 44/77/15
f 25/53/16 24/55/16 44/77/16 45/80/16
f 26/51/17 25/53/17 45/80/17 46/76/17
f 27/49/18 26/51/18 46/76/18 47/75/18
f 28/47/19 27/49/19 47/75/19 48/79/19
f 29/45/20 28/47/20 48/79/20 49/74/20
f 30/41/21 29/45/21 49/74/21 50/73/21
f 22/42/22 30/41/22 50/73/22 42/78/22
f 32/43/18 31/60/18 61/4/18 62/3/18
f 31/60/19 33/58/19 63/6/19 61/4/19
f 33/58/20 34/56/20 64/8/20 63/6/20
f 34/56/21 35/54/21 65/10/21 64/8/21
f 35/54/22 36/52/22 66/12/22 65/10/22
f 36/52/13 37/50/13 67/14/13 66/12/13
f 37/50/14 38/48/14 68/16/14 67/14/14
f 38/48/15 39/46/15 69/18/15 68/16/15
f 39/46/16 40/44/16 70/20/16 69/18/16
f 40/44/17 32/43/17 62/3/17 70/20/17
f 71/67/23 72/65/23 52/2/23 51/1/23
f 53/69/24 71/67/24 51/1/24 73/5/24
f 54/70/25 53/69/25 73/5/25 74/7/25
f 75/68/26 54/70/26 74/7/26 55/9/26
f 76/66/27 75/68/27 55/9/27 56/11/27
f 77/64/28 76/66/28 56/11/28 57/13/28
f 58/61/29 77/64/29 57/13/29 78/15/29
f 59/62/30 58/61/30 78/15/30 79/17/30
f 80/63/31 59/62/31 79/17/31 60/19/31
f 72/65/32 80/63/32 60/19/32 52/2/32
f 95/81/1 92/82/1 90/83/1 94/84/1
f 93/85/1 88/86/1 92/82/1 95/81/1
f 93/85/33 87/87/33 83/88/33 96/89/33
f 94/84/34 90/83/34 81/90/34 97/91/34
f 91/92/35 89/93/35 82/94/35 85/95/35
f 92/82/36 88/86/36 84/96/36 86/97/36
f 87/87/37 91/92/37 85/95/37 83/88/37
f 90/83/38 92/82/38 86/97/38 81/90/38
f 97/91/2 98/98/2 85/95/2 82/94/2
f 96/89/2 83/88/2 85/95/2 98/98/2
f 84/96/2 96/89/2 98/98/2 86/97/2
f 81/90/2 86/97/2 98/98/2 97/91/2
f 89/93/39 94/84/39 97/91/39 82/94/39
f 88/86/40 93/85/40 96/89/40 84/96/40
f 87/87/1 93/85/1 95/81/1 91/92/1
f 91/92/1 95/81/1 94/84/1 89/93/1
f 113/99/1 110/100/1 108/101/1 112/102/1
f 111/103/1 106/104/1 110/100/1 113/99/1
f 111/103/41 105/105/41 101/106/41 114/107/41
f 112/102/42 108/101/42 99/108/42 115/109/42
f 109/110/43 107/111/43 100/112/43 103/113/43
f 110/100/44 106/104/44 102/114/44 104/115/44
f 105/105/45 109/110/45 103/113/45 101/106/45
f 108/101/46 110/100/46 104/115/46 99/108/46
f 115/109/2 116/116/2 103/113/2 100/112/2
f 114/107/2 101/106/2 103/113/2 116/116/2
f 102/114/2 114/107/2 116/116/2 104/115/2
f 99/108/2 104/115/2 116/116/2 115/109/2
f 107/111/47 112/102/47 115/109/47 100/112/47
f 106/104/48 111/103/48 114/107/48 102/114/48
f 105/105/1 111/103/1 113/99/1 109/110/1
f 109/110/1 113/99/1 112/102/1 107/111/1
f 119/117/2 125/118/2 126/119/2 120/120/2
f 125/118/2 124/121/2 122/122/2 126/119/2
f 121/123/2 122/122/2 124/121/2 123/124/2
f 117/125/2 121/123/2 123/124/2 118/126/2
f 135/127/1 136/128/1 128/129/1 127/130/1
f 127/130/1 128/129/1 130/131/1 129/132/1
f 131/133/1 132/134/1 129/132/1 130/131/1
f 133/135/1 134/136/1 132/134/1 131/133/1
f 125/118/49 119/117/49 135/127/49 127/130/49
f 118/126/50 123/124/50 132/134/50 134/136/50
f 122/122/51 121/123/51 131/133/51 130/131/51
f 119/117/52 120/120/52 136/128/52 135/127/52
f 123/124/53 124/121/53 129/132/53 132/134/53
f 121/123/54 117/125/54 133/135/54 131/133/54
f 120/120/55 126/119/55 128/129/55 136/128/55
f 124/121/56 125/118/56 127/130/56 129/132/56
f 117/125/57 118/126/57 134/136/57 133/135/57
f 126/119/58 122/122/58 130/131/58 128/129/58
