# Blender v2.83.1 OBJ File: 'EgoObjects.blend'
# www.blender.org
mtllib Landscape_Hanging.mtl
o HangingFrameLandscape_Cube.004
v -0.626640 0.443663 -0.020446
v 0.626640 0.443663 -0.020446
v -0.747593 0.590572 -0.046058
v 0.747593 0.590572 -0.046058
v -0.626640 -0.443663 -0.020446
v 0.626640 -0.443663 -0.020446
v -0.747593 -0.590572 -0.046058
v 0.747593 -0.590572 -0.046058
v -0.898074 0.741100 0.028607
v 0.898074 0.741100 0.028607
v 0.898074 -0.741100 0.028607
v -0.898074 -0.741100 0.028607
v -0.863280 0.698053 0.029309
v 0.863280 0.698053 0.029309
v 0.863280 -0.698053 0.029308
v -0.863280 -0.698053 0.029309
v -0.821879 0.651092 0.004208
v 0.821879 0.651092 0.004208
v 0.821879 -0.651092 0.004208
v -0.821879 -0.651092 0.004208
v -0.761175 0.569758 0.053019
v 0.761175 0.569758 0.053019
v 0.761175 -0.569758 0.053019
v -0.761175 -0.569758 0.053019
v -0.725725 0.538524 0.053800
v 0.725725 0.538524 0.053800
v 0.725725 -0.538524 0.053799
v -0.725725 -0.538524 0.053800
v -0.696437 0.514082 -0.020446
v 0.696437 0.514082 -0.020446
v 0.696437 -0.514082 -0.020446
v -0.696437 -0.514082 -0.020446
v 0.898344 0.741323 -0.047175
v -0.898344 0.741323 -0.047175
v -0.898344 -0.741323 -0.047175
v 0.898344 -0.741323 -0.047175
v 0.823692 0.666671 -0.047175
v -0.823692 0.666671 -0.047175
v -0.823692 -0.666671 -0.047175
v 0.823692 -0.666671 -0.047175
v -0.257292 0.208862 -0.091360
v -0.342708 0.208862 -0.091360
v -0.342708 0.276996 -0.091360
v -0.257292 0.276996 -0.091360
v -0.360668 0.291322 -0.073552
v -0.239332 0.291322 -0.073553
v -0.360668 0.194537 -0.073553
v -0.239332 0.194537 -0.073553
v 0.360668 0.194537 -0.073553
v 0.239332 0.194537 -0.073553
v 0.360668 0.291322 -0.073553
v 0.239332 0.291322 -0.073552
v 0.342708 0.208862 -0.091360
v 0.257292 0.208862 -0.091360
v 0.342708 0.276996 -0.091360
v 0.257292 0.276996 -0.091360
v 0.776047 0.619026 -0.036763
v -0.776047 0.619026 -0.036762
v -0.776047 -0.619026 -0.036763
v 0.776047 -0.619026 -0.036763
v 0.759065 0.602044 -0.036763
v -0.759065 0.602044 -0.036762
v -0.759065 -0.602044 -0.036763
v 0.759065 -0.602044 -0.036763
vt 0.375000 0.000000
vt 0.625000 0.000000
vt 0.625000 0.250000
vt 0.375000 0.250000
vt 0.375000 0.500000
vt 0.625000 0.500000
vt 0.625000 0.750000
vt 0.375000 0.750000
vt 0.125000 0.500000
vt 0.125000 0.750000
vt 0.875000 0.500000
vt 0.875000 0.750000
vt 0.381537 0.991064
vt 0.618463 0.991064
vt 0.625000 1.000000
vt 0.375000 1.000000
vt 0.618463 0.758936
vt 0.381537 0.758936
vt 0.389617 0.980020
vt 0.610383 0.980020
vt 0.610383 0.769980
vt 0.389617 0.769980
vt 0.406900 0.956395
vt 0.593100 0.956395
vt 0.593099 0.793605
vt 0.406900 0.793605
vt 0.412169 0.950011
vt 0.587831 0.950011
vt 0.587831 0.799989
vt 0.412169 0.799989
vt 0.416522 0.944735
vt 0.583477 0.944735
vt 0.583477 0.805265
vt 0.416522 0.805265
vt 0.614613 0.262588
vt 0.385387 0.262588
vt 0.385388 0.487412
vt 0.614613 0.487412
vt 0.607983 0.270621
vt 0.392017 0.270621
vt 0.392017 0.479379
vt 0.607983 0.479379
vt 0.031866 0.013159
vt 0.947622 0.013159
vt 0.947622 0.986841
vt 0.031866 0.986841
vt 0.425353 0.934035
vt 0.574647 0.934035
vt 0.574647 0.815965
vt 0.425353 0.815965
vt 0.392017 0.270621
vt 0.607983 0.270621
vt 0.607983 0.270621
vt 0.392017 0.270621
vt 0.392017 0.270621
vt 0.607983 0.270621
vt 0.607983 0.270621
vt 0.392017 0.270621
vt 0.607983 0.479379
vt 0.607983 0.479379
vt 0.607983 0.479379
vt 0.392017 0.479379
vt 0.392017 0.479379
vt 0.607983 0.479379
vt 0.392017 0.479379
vt 0.392017 0.479379
vt 0.925588 0.950408
vt 0.082909 0.949931
vt 0.082179 0.049592
vt 0.924858 0.050070
vt 0.069268 0.967392
vt 0.939808 0.967198
vt 0.953961 0.984609
vt 0.055009 0.984609
vt 0.938499 0.032608
vt 0.952757 0.015391
vt 0.067959 0.032802
vt 0.053806 0.015392
vn 0.0000 1.0000 0.0029
vn -0.0000 -1.0000 0.0029
vn -1.0000 0.0000 0.0036
vn 1.0000 0.0000 0.0036
vn 0.0000 0.0163 0.9999
vn 0.0000 -0.0163 0.9999
vn -0.0202 -0.0000 0.9998
vn 0.0202 -0.0000 0.9998
vn 0.0000 -0.4714 0.8819
vn 0.0000 0.4714 0.8819
vn 0.5184 -0.0000 0.8551
vn -0.5184 -0.0000 0.8551
vn 0.0000 0.5146 0.8574
vn 0.0000 -0.5146 0.8574
vn -0.6266 -0.0000 0.7793
vn 0.6266 -0.0000 0.7793
vn 0.0000 0.0250 0.9997
vn 0.0000 -0.0250 0.9997
vn -0.0220 -0.0000 0.9998
vn 0.0220 -0.0000 0.9998
vn -0.0000 -0.9499 0.3127
vn 0.0000 0.9499 0.3127
vn 0.9302 -0.0000 0.3670
vn -0.9302 -0.0000 0.3670
vn -0.0000 0.0000 -1.0000
vn -0.0000 -0.2135 -0.9769
vn 0.2135 0.0000 -0.9769
vn -0.2135 0.0000 -0.9769
vn -0.0000 0.2135 -0.9769
vn 0.0000 -0.0000 1.0000
vn -0.0000 0.7792 -0.6268
vn 0.7041 0.0000 -0.7101
vn -0.0000 -0.7792 -0.6268
vn -0.7041 -0.0000 -0.7101
vn -0.0000 0.6296 -0.7769
vn -0.6296 0.0000 -0.7769
vn 0.6296 0.0000 -0.7769
vn -0.0000 -0.6296 -0.7769
g HangingFrameLandscape_Cube.004_Mat4
usemtl Mat4
s off
f 9/1/1 10/2/1 33/3/1 34/4/1
f 35/5/2 36/6/2 11/7/2 12/8/2
f 34/9/3 35/5/3 12/8/3 9/10/3
f 36/6/4 33/11/4 10/12/4 11/7/4
f 13/13/5 14/14/5 10/15/5 9/16/5
f 15/17/6 16/18/6 12/8/6 11/7/6
f 16/18/7 13/13/7 9/16/7 12/8/7
f 14/14/8 15/17/8 11/7/8 10/15/8
f 17/19/9 18/20/9 14/14/9 13/13/9
f 19/21/10 20/22/10 16/18/10 15/17/10
f 20/22/11 17/19/11 13/13/11 16/18/11
f 18/20/12 19/21/12 15/17/12 14/14/12
f 21/23/13 22/24/13 18/20/13 17/19/13
f 23/25/14 24/26/14 20/22/14 19/21/14
f 24/26/15 21/23/15 17/19/15 20/22/15
f 22/24/16 23/25/16 19/21/16 18/20/16
f 25/27/17 26/28/17 22/24/17 21/23/17
f 27/29/18 28/30/18 24/26/18 23/25/18
f 28/30/19 25/27/19 21/23/19 24/26/19
f 26/28/20 27/29/20 23/25/20 22/24/20
f 29/31/21 30/32/21 26/28/21 25/27/21
f 31/33/22 32/34/22 28/30/22 27/29/22
f 32/34/23 29/31/23 25/27/23 28/30/23
f 30/32/24 31/33/24 27/29/24 26/28/24
f 37/35/25 38/36/25 34/4/25 33/3/25
f 38/36/25 39/37/25 35/5/25 34/4/25
f 40/38/25 37/35/25 33/3/25 36/6/25
f 39/37/25 40/38/25 36/6/25 35/5/25
f 57/39/26 58/40/26 38/36/26 37/35/26
f 58/40/27 59/41/27 39/37/27 38/36/27
f 60/42/28 57/39/28 37/35/28 40/38/28
f 59/41/29 60/42/29 40/38/29 39/37/29
g HangingFrameLandscape_Cube.004_Mat2
usemtl Mat2
f 5/43/30 6/44/30 2/45/30 1/46/30
g HangingFrameLandscape_Cube.004_Mat3
usemtl Mat3
f 1/47/30 2/48/30 30/32/30 29/31/30
f 6/49/30 5/50/30 32/34/30 31/33/30
f 5/50/30 1/47/30 29/31/30 32/34/30
f 2/48/30 6/49/30 31/33/30 30/32/30
f 52/51/31 51/52/31 55/53/31 56/54/31
f 45/55/31 46/56/31 44/57/31 43/58/31
f 46/56/32 48/59/32 41/60/32 44/57/32
f 49/61/33 50/62/33 54/63/33 53/64/33
f 50/62/34 52/51/34 56/54/34 54/63/34
f 47/65/34 45/55/34 43/58/34 42/66/34
f 56/54/25 55/53/25 53/64/25 54/63/25
f 43/58/25 44/57/25 41/60/25 42/66/25
f 45/55/30 47/65/30 48/59/30 46/56/30
f 52/51/30 50/62/30 49/61/30 51/52/30
f 51/52/32 49/61/32 53/64/32 55/53/32
f 48/59/33 47/65/33 42/66/33 41/60/33
g HangingFrameLandscape_Cube.004_Mat4.001
usemtl Mat4.001
f 3/67/25 4/68/25 8/69/25 7/70/25
f 61/71/25 62/72/25 58/73/25 57/74/25
f 62/72/25 63/75/25 59/76/25 58/73/25
f 64/77/25 61/71/25 57/74/25 60/78/25
f 63/75/25 64/77/25 60/78/25 59/76/25
f 4/68/35 3/67/35 62/72/35 61/71/35
f 3/67/36 7/70/36 63/75/36 62/72/36
f 8/69/37 4/68/37 61/71/37 64/77/37
f 7/70/38 8/69/38 64/77/38 63/75/38
