# Blender v2.83.1 OBJ File: 'EgoObjects.blend'
# www.blender.org
mtllib Portrait_Hanging.mtl
o HangingFramePortrait_Cube.003
v -0.443663 -0.626640 -0.020446
v -0.443663 0.626640 -0.020446
v -0.590572 -0.747593 -0.046058
v -0.590572 0.747593 -0.046058
v 0.443663 -0.626640 -0.020446
v 0.443663 0.626640 -0.020446
v 0.590572 -0.747593 -0.046058
v 0.590572 0.747593 -0.046058
v -0.741100 -0.898074 0.028607
v -0.741100 0.898074 0.028607
v 0.741100 0.898074 0.028607
v 0.741100 -0.898074 0.028607
v -0.698053 -0.863280 0.029309
v -0.698053 0.863280 0.029309
v 0.698053 0.863280 0.029309
v 0.698053 -0.863280 0.029309
v -0.651092 -0.821879 0.004208
v -0.651092 0.821879 0.004208
v 0.651092 0.821879 0.004208
v 0.651092 -0.821879 0.004208
v -0.569758 -0.761175 0.053019
v -0.569758 0.761175 0.053019
v 0.569758 0.761175 0.053019
v 0.569758 -0.761175 0.053019
v -0.538524 -0.725725 0.053800
v -0.538524 0.725725 0.053800
v 0.538524 0.725725 0.053800
v 0.538524 -0.725725 0.053800
v -0.514082 -0.696437 -0.020446
v -0.514082 0.696437 -0.020446
v 0.514082 0.696437 -0.020446
v 0.514082 -0.696437 -0.020446
v -0.741323 0.898344 -0.047175
v -0.741323 -0.898344 -0.047175
v 0.741323 -0.898344 -0.047175
v 0.741323 0.898344 -0.047175
v -0.666671 0.823692 -0.047175
v -0.666671 -0.823692 -0.047175
v 0.666671 -0.823692 -0.047175
v 0.666671 0.823692 -0.047175
v -0.265933 0.285638 -0.091360
v -0.265933 0.200221 -0.091360
v -0.334067 0.200221 -0.091360
v -0.334067 0.285638 -0.091360
v -0.348393 0.182261 -0.073553
v -0.348393 0.303597 -0.073553
v -0.251607 0.182261 -0.073553
v -0.251607 0.303597 -0.073553
v 0.348393 0.303597 -0.073553
v 0.348393 0.182261 -0.073553
v 0.251607 0.303597 -0.073553
v 0.251607 0.182261 -0.073553
v 0.334067 0.285638 -0.091360
v 0.334067 0.200221 -0.091360
v 0.265933 0.285638 -0.091360
v 0.265933 0.200221 -0.091360
v -0.619026 0.776047 -0.036763
v -0.619026 -0.776047 -0.036763
v 0.619026 -0.776047 -0.036763
v 0.619026 0.776047 -0.036763
v -0.602044 0.759065 -0.036763
v -0.602044 -0.759065 -0.036763
v 0.602044 -0.759065 -0.036763
v 0.602044 0.759065 -0.036763
vt 0.375000 0.000000
vt 0.625000 0.000000
vt 0.625000 0.250000
vt 0.375000 0.250000
vt 0.395976 0.275419
vt 0.604024 0.275419
vt 0.604024 0.474581
vt 0.395976 0.474581
vt 0.375000 0.500000
vt 0.625000 0.500000
vt 0.625000 0.750000
vt 0.375000 0.750000
vt 0.125000 0.500000
vt 0.125000 0.750000
vt 0.875000 0.500000
vt 0.875000 0.750000
vt 0.381537 0.991064
vt 0.618463 0.991064
vt 0.625000 1.000000
vt 0.375000 1.000000
vt 0.618463 0.758936
vt 0.381537 0.758936
vt 0.389617 0.980020
vt 0.610383 0.980020
vt 0.610383 0.769980
vt 0.389617 0.769980
vt 0.406900 0.956395
vt 0.593100 0.956395
vt 0.593099 0.793605
vt 0.406900 0.793605
vt 0.412169 0.950011
vt 0.587831 0.950011
vt 0.587831 0.799989
vt 0.412169 0.799989
vt 0.416522 0.944735
vt 0.583477 0.944735
vt 0.583477 0.805265
vt 0.416522 0.805265
vt 0.614613 0.262588
vt 0.385387 0.262588
vt 0.385388 0.487412
vt 0.614613 0.487412
vt 0.607983 0.270621
vt 0.392017 0.270621
vt 0.392017 0.479379
vt 0.607983 0.479379
vt 0.605620 0.273485
vt 0.394380 0.273485
vt 0.394380 0.476515
vt 0.605620 0.476515
vt 0.848593 0.000084
vt 0.848593 0.999916
vt 0.140709 0.999916
vt 0.140709 0.000084
vt 0.425353 0.934035
vt 0.574647 0.934035
vt 0.574647 0.815965
vt 0.425353 0.815965
vt 0.392017 0.270621
vt 0.607983 0.270621
vt 0.607983 0.270621
vt 0.392017 0.270621
vt 0.392017 0.270621
vt 0.607983 0.270621
vt 0.607983 0.270621
vt 0.392017 0.270621
vt 0.607983 0.479379
vt 0.607983 0.479379
vt 0.607983 0.479379
vt 0.392017 0.479379
vt 0.392017 0.479379
vt 0.607983 0.479379
vt 0.392017 0.479379
vt 0.392017 0.479379
vn -1.0000 0.0000 0.0029
vn 0.0000 0.0000 -1.0000
vn 1.0000 0.0000 0.0029
vn 0.0000 -1.0000 0.0036
vn 0.0000 1.0000 0.0036
vn -0.0163 0.0000 0.9999
vn 0.0163 0.0000 0.9999
vn 0.0000 -0.0202 0.9998
vn 0.0000 0.0202 0.9998
vn 0.4714 0.0000 0.8819
vn -0.4714 0.0000 0.8819
vn 0.0000 0.5184 0.8551
vn 0.0000 -0.5184 0.8551
vn -0.5146 0.0000 0.8574
vn 0.5146 0.0000 0.8574
vn 0.0000 -0.6266 0.7793
vn 0.0000 0.6266 0.7793
vn -0.0250 0.0000 0.9997
vn 0.0250 0.0000 0.9997
vn 0.0000 -0.0220 0.9998
vn 0.0000 0.0220 0.9998
vn 0.9499 0.0000 0.3127
vn -0.9499 0.0000 0.3127
vn 0.0000 0.9302 0.3670
vn 0.0000 -0.9302 0.3670
vn 0.2135 0.0000 -0.9769
vn 0.0000 0.2135 -0.9769
vn 0.0000 -0.2135 -0.9769
vn -0.2135 0.0000 -0.9769
vn -0.6296 0.0000 -0.7769
vn 0.0000 -0.6296 -0.7769
vn 0.0000 0.6296 -0.7769
vn 0.6296 0.0000 -0.7769
vn 0.0000 0.0000 1.0000
vn -0.7792 0.0000 -0.6268
vn 0.0000 0.7041 -0.7101
vn 0.7792 0.0000 -0.6268
vn 0.0000 -0.7041 -0.7101
g HangingFramePortrait_Cube.003_Mat4
usemtl Mat4
s off
f 9/1/1 10/2/1 33/3/1 34/4/1
f 3/5/2 4/6/2 8/7/2 7/8/2
f 35/9/3 36/10/3 11/11/3 12/12/3
f 34/13/4 35/9/4 12/12/4 9/14/4
f 36/10/5 33/15/5 10/16/5 11/11/5
f 13/17/6 14/18/6 10/19/6 9/20/6
f 15/21/7 16/22/7 12/12/7 11/11/7
f 16/22/8 13/17/8 9/20/8 12/12/8
f 14/18/9 15/21/9 11/11/9 10/19/9
f 17/23/10 18/24/10 14/18/10 13/17/10
f 19/25/11 20/26/11 16/22/11 15/21/11
f 20/26/12 17/23/12 13/17/12 16/22/12
f 18/24/13 19/25/13 15/21/13 14/18/13
f 21/27/14 22/28/14 18/24/14 17/23/14
f 23/29/15 24/30/15 20/26/15 19/25/15
f 24/30/16 21/27/16 17/23/16 20/26/16
f 22/28/17 23/29/17 19/25/17 18/24/17
f 25/31/18 26/32/18 22/28/18 21/27/18
f 27/33/19 28/34/19 24/30/19 23/29/19
f 28/34/20 25/31/20 21/27/20 24/30/20
f 26/32/21 27/33/21 23/29/21 22/28/21
f 29/35/22 30/36/22 26/32/22 25/31/22
f 31/37/23 32/38/23 28/34/23 27/33/23
f 32/38/24 29/35/24 25/31/24 28/34/24
f 30/36/25 31/37/25 27/33/25 26/32/25
f 37/39/2 38/40/2 34/4/2 33/3/2
f 38/40/2 39/41/2 35/9/2 34/4/2
f 40/42/2 37/39/2 33/3/2 36/10/2
f 39/41/2 40/42/2 36/10/2 35/9/2
f 57/43/26 58/44/26 38/40/26 37/39/26
f 58/44/27 59/45/27 39/41/27 38/40/27
f 60/46/28 57/43/28 37/39/28 40/42/28
f 59/45/29 60/46/29 40/42/29 39/41/29
f 61/47/2 62/48/2 58/44/2 57/43/2
f 62/48/2 63/49/2 59/45/2 58/44/2
f 64/50/2 61/47/2 57/43/2 60/46/2
f 63/49/2 64/50/2 60/46/2 59/45/2
f 4/6/30 3/5/30 62/48/30 61/47/30
f 3/5/31 7/8/31 63/49/31 62/48/31
f 8/7/32 4/6/32 61/47/32 64/50/32
f 7/8/33 8/7/33 64/50/33 63/49/33
g HangingFramePortrait_Cube.003_Mat2
usemtl Mat2
f 5/51/34 6/52/34 2/53/34 1/54/34
g HangingFramePortrait_Cube.003_Mat3
usemtl Mat3
f 1/55/34 2/56/34 30/36/34 29/35/34
f 6/57/34 5/58/34 32/38/34 31/37/34
f 5/58/34 1/55/34 29/35/34 32/38/34
f 2/56/34 6/57/34 31/37/34 30/36/34
f 52/59/35 51/60/35 55/61/35 56/62/35
f 45/63/35 46/64/35 44/65/35 43/66/35
f 46/64/36 48/67/36 41/68/36 44/65/36
f 49/69/37 50/70/37 54/71/37 53/72/37
f 50/70/38 52/59/38 56/62/38 54/71/38
f 47/73/38 45/63/38 43/66/38 42/74/38
f 56/62/2 55/61/2 53/72/2 54/71/2
f 43/66/2 44/65/2 41/68/2 42/74/2
f 45/63/34 47/73/34 48/67/34 46/64/34
f 52/59/34 50/70/34 49/69/34 51/60/34
f 51/60/36 49/69/36 53/72/36 55/61/36
f 48/67/37 47/73/37 42/74/37 41/68/37
