# Blender v2.83.1 OBJ File: 'Tree.blend'
# www.blender.org
mtllib grass.mtl
o Plane.001
v -0.707107 0.022988 0.707107
v 0.707107 0.022988 -0.707107
v -0.707107 2.022988 0.707107
v 0.707107 2.022988 -0.707107
v -0.707107 0.022988 -0.707107
v 0.707107 0.022988 0.707107
v -0.707107 2.022988 -0.707107
v 0.707107 2.022988 0.707107
vt 0.000000 0.000000
vt 1.000000 0.000000
vt 1.000000 1.000000
vt 0.000000 1.000000
vt 0.000000 0.000000
vt 1.000000 0.000000
vt 1.000000 1.000000
vt 0.000000 1.000000
vn 0.7071 0.0000 0.7071
vn -0.7071 0.0000 0.7071
g Plane.001_Plane.001_Leaves
usemtl Leaves
s off
f 1/1/1 2/2/1 4/3/1 3/4/1
f 5/5/2 6/6/2 8/7/2 7/8/2
