# Blender v2.83.1 OBJ File: 'EgoObjects.blend'
# www.blender.org
mtllib Safe.mtl
o SafeBody_Cube
v -0.489204 0.107323 -0.398176
v -0.471118 0.089237 -0.398176
v -0.470992 0.107449 -0.416261
v -0.489204 1.049559 -0.398176
v -0.470992 1.049433 -0.416261
v -0.471118 1.067645 -0.398176
v -0.550714 0.009642 -0.550714
v -0.568799 0.027727 -0.550714
v -0.550714 0.027727 -0.568799
v -0.550714 1.147240 -0.550714
v -0.550714 1.129155 -0.568799
v -0.568799 1.129155 -0.550714
v 0.489204 0.107323 -0.398176
v 0.470992 0.107449 -0.416261
v 0.471118 0.089237 -0.398176
v 0.489204 1.049559 -0.398176
v 0.471118 1.067645 -0.398176
v 0.470992 1.049433 -0.416261
v 0.550714 0.009642 -0.550714
v 0.550714 0.027727 -0.568799
v 0.568799 0.027727 -0.550714
v 0.550714 1.147240 -0.550714
v 0.568799 1.129155 -0.550714
v 0.550714 1.129155 -0.568799
v -0.550714 0.009642 0.550714
v -0.525137 0.027727 0.568799
v -0.550714 0.053304 0.568799
v -0.568799 0.027727 0.550714
v -0.550714 1.103578 0.568799
v -0.525137 1.129155 0.568799
v -0.550714 1.147240 0.550714
v -0.568799 1.129155 0.550714
v 0.550714 1.147240 0.550714
v 0.525137 1.129155 0.568799
v 0.550714 1.103578 0.568799
v 0.568799 1.129155 0.550714
v 0.550714 0.009642 0.550714
v 0.568799 0.027727 0.550714
v 0.550714 0.053304 0.568799
v 0.525137 0.027727 0.568799
v -0.495820 0.100706 0.550714
v -0.514032 0.089986 0.568799
v -0.488455 0.064409 0.568799
v -0.477735 0.082621 0.550714
v -0.495820 1.056176 0.550714
v -0.477735 1.074261 0.550714
v -0.488455 1.092473 0.568799
v -0.514032 1.066896 0.568799
v 0.495820 1.056176 0.550714
v 0.514032 1.066896 0.568799
v 0.488455 1.092473 0.568799
v 0.477735 1.074261 0.550714
v 0.495820 0.100706 0.550714
v 0.477735 0.082621 0.550714
v 0.488455 0.064409 0.568799
v 0.514032 0.089986 0.568799
v -0.498708 0.795788 -0.461508
v 0.498708 0.795788 -0.461508
v -0.505712 0.789172 0.407009
v 0.505712 0.789172 0.407009
v 0.505712 0.735383 0.406666
v -0.505712 0.735383 0.406666
v -0.498708 0.742000 -0.461852
v 0.498708 0.742000 -0.461852
v 0.533272 0.242710 0.553255
v 0.472797 0.242710 0.553255
v 0.485776 0.242710 0.580004
v 0.520294 0.242710 0.526505
v 0.485776 0.242710 0.526505
v 0.520294 0.242710 0.580004
v 0.533272 0.927145 0.553255
v 0.472797 0.927145 0.553255
v 0.485776 0.927145 0.580004
v 0.520294 0.927145 0.526505
v 0.485776 0.927145 0.526505
v 0.520294 0.927145 0.580004
vt 0.378974 0.253974
vt 0.621026 0.253974
vt 0.621026 0.496026
vt 0.378974 0.496026
vt 0.628974 0.503974
vt 0.871026 0.503974
vt 0.871026 0.746026
vt 0.628974 0.746026
vt 0.392656 0.987964
vt 0.607343 0.987964
vt 0.615405 0.996026
vt 0.384595 0.996026
vt 0.378974 0.003974
vt 0.621026 0.003974
vt 0.621026 0.246026
vt 0.378974 0.246026
vt 0.387036 0.767657
vt 0.387036 0.982344
vt 0.378974 0.990405
vt 0.378974 0.759595
vt 0.612964 0.982344
vt 0.612964 0.767657
vt 0.621026 0.759595
vt 0.621026 0.990405
vt 0.607344 0.762036
vt 0.392656 0.762036
vt 0.384595 0.753974
vt 0.615405 0.753974
vt 0.378974 0.503974
vt 0.621026 0.503974
vt 0.621026 0.746026
vt 0.378974 0.746026
vt 0.128974 0.503974
vt 0.371026 0.503974
vt 0.371026 0.746026
vt 0.128974 0.746026
vt 0.396467 0.982508
vt 0.392492 0.978534
vt 0.396494 0.978506
vt 0.603533 0.982508
vt 0.603506 0.978506
vt 0.607508 0.978534
vt 0.125000 0.503974
vt 0.128974 0.500000
vt 0.871026 0.500000
vt 0.875000 0.503974
vt 0.396467 0.767492
vt 0.396494 0.771494
vt 0.392492 0.771467
vt 0.603533 0.767492
vt 0.607508 0.771467
vt 0.603506 0.771494
vt 0.371026 0.500000
vt 0.375000 0.503974
vt 0.625000 0.503974
vt 0.628974 0.500000
vt 0.134595 0.750000
vt 0.128974 0.750000
vt 0.125000 0.746026
vt 0.618215 0.993215
vt 0.623013 0.998013
vt 0.621026 1.000000
vt 0.634595 0.750000
vt 0.628974 0.750000
vt 0.625000 0.746026
vt 0.375000 0.746026
vt 0.371026 0.750000
vt 0.365405 0.750000
vt 0.395012 0.983962
vt 0.391038 0.979988
vt 0.604988 0.983962
vt 0.608962 0.979988
vt 0.604988 0.766038
vt 0.608962 0.770013
vt 0.395012 0.766038
vt 0.391038 0.770012
vt 0.378974 1.000000
vt 0.875000 0.746026
vt 0.865405 0.750000
vt 0.392492 0.771467
vt 0.391038 0.770012
vt 0.391038 0.979988
vt 0.392492 0.978534
vt 0.392492 0.771467
vt 0.392492 0.978534
vt 0.391038 0.979988
vt 0.391038 0.770012
vt 0.500000 0.793269
vt 0.500000 0.956731
vt 0.581439 0.948452
vt 0.581439 0.801548
vt 0.418561 0.801548
vt 0.418561 0.948452
vt 0.500000 0.793269
vt 0.581439 0.801548
vt 0.581439 0.948452
vt 0.500000 0.956731
vt 0.418561 0.801548
vt 0.418561 0.948452
vn 0.0000 0.0000 -1.0000
vn 0.0000 1.0000 0.0000
vn -0.0000 0.0000 1.0000
vn -1.0000 0.0000 0.0000
vn 1.0000 0.0000 0.0000
vn 0.0000 -1.0000 0.0000
vn 0.5747 0.5747 0.5827
vn 0.5747 -0.5747 0.5827
vn -0.5774 -0.5774 -0.5773
vn -0.5774 0.5774 -0.5773
vn -0.5747 0.5747 0.5827
vn -0.5747 -0.5747 0.5827
vn 0.5774 -0.5774 -0.5773
vn 0.5774 0.5774 -0.5773
vn -0.3574 -0.3574 0.8629
vn -0.3574 0.3574 0.8629
vn 0.3574 0.3574 0.8629
vn 0.3574 -0.3574 0.8629
vn 0.4683 0.4683 0.7492
vn 0.4683 -0.4683 0.7492
vn -0.4683 -0.4683 0.7492
vn -0.4683 0.4683 0.7492
vn -0.7071 -0.7071 0.0000
vn -0.7071 0.0000 0.7071
vn -0.7071 0.7071 0.0000
vn -0.7071 0.0000 -0.7071
vn 0.0000 -0.7071 -0.7071
vn 0.0000 0.7071 -0.7071
vn 0.7071 0.0000 -0.7071
vn 0.7071 -0.7071 0.0000
vn 0.7071 0.7071 0.0000
vn 0.7071 0.0000 0.7071
vn 0.0000 -0.7071 0.7071
vn 0.0000 0.7071 0.7071
vn 0.7046 0.0000 0.7096
vn -0.7046 0.0000 0.7096
vn 0.0000 0.7046 0.7096
vn 0.0000 -0.7046 0.7096
vn 0.0000 -1.0000 -0.0076
vn 0.0000 1.0000 0.0076
vn -1.0000 -0.0001 0.0081
vn 0.0000 -0.0064 1.0000
vn 1.0000 -0.0001 0.0081
vn 0.0000 0.0064 -1.0000
vn 0.8997 0.0000 0.4365
vn 0.8997 0.0000 -0.4365
vn -0.8997 0.0000 -0.4365
vn -0.8997 0.0000 0.4365
vn 0.0000 1.0000 0.0070
vn -1.0000 0.0000 0.0070
vn -0.0000 -1.0000 0.0070
vn 0.7071 0.7071 0.0099
vn 0.7071 -0.7071 0.0099
vn -0.7071 -0.7071 0.0099
vn -0.7071 0.7071 0.0099
vn 1.0000 0.0000 0.0070
g SafeBody_Cube_Mat4
usemtl Mat4
s off
f 9/1/1 11/2/1 24/3/1 20/4/1
f 22/5/2 10/6/2 31/7/2 33/8/2
f 42/9/3 48/10/3 29/11/3 27/12/3
f 28/13/4 32/14/4 12/15/4 8/16/4
f 55/17/3 43/18/3 26/19/3 40/20/3
f 47/21/3 51/22/3 34/23/3 30/24/3
f 50/25/3 56/26/3 39/27/3 35/28/3
f 21/29/5 23/30/5 36/31/5 38/32/5
f 7/33/6 19/34/6 37/35/6 25/36/6
f 1/37/7 2/38/7 3/39/7
f 4/40/8 5/41/8 6/42/8
f 7/33/9 8/43/9 9/44/9
f 10/6/10 11/45/10 12/46/10
f 13/47/11 14/48/11 15/49/11
f 16/50/12 17/51/12 18/52/12
f 19/34/13 20/53/13 21/54/13
f 22/5/14 23/55/14 24/56/14
f 25/36/15 26/57/15 27/58/15 28/59/15
f 29/11/16 30/60/16 31/61/16 32/62/16
f 33/8/17 34/63/17 35/64/17 36/65/17
f 37/35/18 38/66/18 39/67/18 40/68/18
f 41/69/19 42/9/19 43/18/19 44/70/19
f 45/71/20 46/72/20 47/21/20 48/10/20
f 49/73/21 50/25/21 51/22/21 52/74/21
f 53/75/22 54/76/22 55/17/22 56/26/22
f 7/33/23 25/36/23 28/59/23 8/43/23
f 27/12/24 29/11/24 32/62/24 28/77/24
f 31/7/25 10/6/25 12/46/25 32/78/25
f 11/2/26 9/1/26 8/16/26 12/15/26
f 19/34/27 7/33/27 9/44/27 20/53/27
f 10/6/28 22/5/28 24/56/28 11/45/28
f 23/30/29 21/29/29 20/4/29 24/3/29
f 37/35/30 19/34/30 21/29/30 38/32/30
f 22/5/31 33/8/31 36/31/31 23/30/31
f 35/28/32 39/27/32 38/32/32 36/31/32
f 25/36/33 37/35/33 40/68/33 26/57/33
f 33/8/34 31/7/34 30/79/34 34/63/34
f 41/69/35 45/71/35 48/10/35 42/9/35
f 49/73/36 53/75/36 56/26/36 50/25/36
f 43/18/37 55/17/37 54/76/37 44/70/37
f 51/22/38 47/21/38 46/72/38 52/74/38
f 26/19/3 43/18/3 42/9/3 27/12/3
f 47/21/3 30/24/3 29/11/3 48/10/3
f 34/23/3 51/22/3 50/25/3 35/28/3
f 55/17/3 40/20/3 39/27/3 56/26/3
f 3/39/35 5/41/35 4/40/35 1/37/35
f 18/52/36 14/48/36 13/47/36 16/50/36
f 2/38/37 15/49/37 14/48/37 3/39/37
f 17/51/38 6/42/38 5/41/38 18/52/38
f 58/80/39 60/81/39 59/82/39 57/83/39
f 64/84/40 63/85/40 62/86/40 61/87/40
f 60/81/41 58/80/41 64/84/41 61/87/41
f 58/80/42 57/83/42 63/85/42 64/84/42
f 57/83/43 59/82/43 62/86/43 63/85/43
f 59/82/44 60/81/44 61/87/44 62/86/44
g SafeBody_Cube_Mat3
usemtl Mat3
f 65/88/2 66/89/2 67/90/2 70/91/2
f 68/92/2 69/93/2 66/89/2 65/88/2
f 71/94/6 76/95/6 73/96/6 72/97/6
f 74/98/6 71/94/6 72/97/6 75/99/6
f 66/89/45 69/93/45 75/99/45 72/97/45
f 69/93/3 68/92/3 74/98/3 75/99/3
f 67/90/46 66/89/46 72/97/46 73/96/46
f 65/88/47 70/91/47 76/95/47 71/94/47
f 70/91/1 67/90/1 73/96/1 76/95/1
f 68/92/48 65/88/48 71/94/48 74/98/48
g SafeBody_Cube_Mat2
usemtl Mat2
f 15/49/49 2/38/49 44/70/49 54/76/49
f 16/50/50 13/47/50 53/75/50 49/73/50
f 14/48/3 18/52/3 5/41/3 3/39/3
f 6/42/51 17/51/51 52/74/51 46/72/51
f 44/70/52 2/38/52 1/37/52 41/69/52
f 6/42/53 46/72/53 45/71/53 4/40/53
f 52/74/54 17/51/54 16/50/54 49/73/54
f 15/49/55 54/76/55 53/75/55 13/47/55
f 1/37/56 4/40/56 45/71/56 41/69/56
