# Blender v2.83.1 OBJ File: 'EgoObjects.blend'
# www.blender.org
mtllib Bookshelf.mtl
o Bookshelf_Cube.008
v -1.906036 0.483572 0.589605
v -2.022402 6.005277 0.705971
v -1.906036 0.483572 -0.589605
v -2.022402 6.005277 -0.705971
v 1.906036 0.483572 0.589605
v 2.022402 6.005277 0.705971
v 1.906036 0.483572 -0.589605
v 2.022402 6.005277 -0.705971
v -1.906036 1.572333 0.589605
v -1.906036 2.661095 0.589605
v -1.906036 3.749856 0.589605
v -1.906036 4.838618 0.589605
v -1.906036 4.838618 -0.589605
v -1.906036 3.749856 -0.589605
v -1.906036 2.661095 -0.589605
v -1.906036 1.572333 -0.589605
v 1.906036 4.838618 -0.589605
v 1.906036 3.749856 -0.589605
v 1.906036 2.661095 -0.589605
v 1.906036 1.572333 -0.589605
v 1.906036 4.838618 0.589605
v 1.906036 3.749856 0.589605
v 1.906036 2.661095 0.589605
v 1.906036 1.572333 0.589605
v 1.781400 4.947294 0.589605
v 1.781400 5.818703 0.589605
v -1.781400 5.818703 0.589605
v -1.781400 4.947294 0.589605
v 1.781400 0.592248 0.589605
v 1.781400 1.463657 0.589605
v -1.781400 1.463657 0.589605
v -1.781400 0.592248 0.589605
v 1.781400 1.681010 0.589605
v 1.781400 2.552418 0.589605
v -1.781400 2.552418 0.589605
v -1.781400 1.681010 0.589605
v 1.781400 2.769771 0.589605
v 1.781400 3.641180 0.589605
v -1.781400 3.641180 0.589605
v -1.781400 2.769771 0.589605
v 1.781400 3.858533 0.589605
v 1.781400 4.729941 0.589605
v -1.781400 4.729941 0.589605
v -1.781400 3.858533 0.589605
v 1.781400 5.818703 -0.408986
v 1.781400 4.947294 -0.408986
v -1.781400 4.947294 -0.408986
v -1.781400 5.818703 -0.408986
v 1.781400 1.463657 -0.408986
v 1.781400 0.592248 -0.408986
v -1.781400 0.592248 -0.408986
v -1.781400 1.463657 -0.408986
v 1.781400 2.552418 -0.408986
v 1.781400 1.681010 -0.408986
v -1.781400 1.681010 -0.408986
v -1.781400 2.552418 -0.408986
v 1.781400 3.641180 -0.408986
v 1.781400 2.769771 -0.408986
v -1.781400 2.769771 -0.408986
v -1.781400 3.641180 -0.408986
v 1.781400 4.729941 -0.408986
v 1.781400 3.858533 -0.408986
v -1.781400 3.858533 -0.408986
v -1.781400 4.729941 -0.408986
v -2.022402 6.136365 0.705971
v -2.022402 6.136365 -0.705971
v 2.022402 6.136365 -0.705971
v 2.022402 6.136365 0.705971
v -1.906036 5.927379 0.589605
v -1.906036 5.927379 -0.589605
v 1.906036 5.927379 -0.589605
v 1.906036 5.927379 0.589605
v -1.906036 6.114453 0.589605
v -1.906036 6.114453 -0.589605
v 1.906036 6.114453 -0.589605
v 1.906036 6.114453 0.589605
v 1.750026 0.483572 -0.589605
v -1.750026 0.483572 -0.589605
v -1.750026 5.927379 -0.589605
v 1.750026 5.927379 -0.589605
v -1.750026 0.483572 0.589605
v 1.750026 0.483572 0.589605
v 1.750026 5.927379 0.589605
v -1.750026 5.927379 0.589605
v 1.750026 1.572333 0.589605
v -1.750026 1.572333 0.589605
v 1.750026 2.661095 0.589605
v -1.750026 2.661095 0.589605
v 1.750026 3.749856 0.589605
v -1.750026 3.749856 0.589605
v 1.750026 4.838618 0.589605
v -1.750026 4.838618 0.589605
v -1.750026 1.572333 -0.589605
v 1.750026 1.572333 -0.589605
v -1.750026 2.661095 -0.589605
v 1.750026 2.661095 -0.589605
v -1.750026 3.749856 -0.589605
v 1.750026 3.749856 -0.589605
v -1.750026 4.838618 -0.589605
v 1.750026 4.838618 -0.589605
v 1.635592 4.947294 0.589605
v -1.635592 4.947294 0.589605
v 1.635592 5.818703 0.589605
v -1.635592 5.818703 0.589605
v -1.635592 0.592248 0.589605
v 1.635592 0.592248 0.589605
v 1.635592 1.463657 0.589605
v -1.635592 1.463657 0.589605
v 1.635592 1.681010 0.589605
v -1.635592 1.681010 0.589605
v 1.635592 2.552418 0.589605
v -1.635592 2.552418 0.589605
v 1.635592 2.769771 0.589605
v -1.635592 2.769771 0.589605
v 1.635592 3.641180 0.589605
v -1.635592 3.641180 0.589605
v 1.635592 3.858533 0.589605
v -1.635592 3.858533 0.589605
v 1.635592 4.729941 0.589605
v -1.635592 4.729941 0.589605
v 1.635592 4.947294 -0.408986
v -1.635592 4.947294 -0.408986
v 1.635592 5.818703 -0.408986
v -1.635592 5.818703 -0.408986
v -1.635592 0.592248 -0.408986
v 1.635592 0.592248 -0.408986
v 1.635592 1.463657 -0.408986
v -1.635592 1.463657 -0.408986
v 1.635592 1.681010 -0.408986
v -1.635592 1.681010 -0.408986
v 1.635592 2.552418 -0.408986
v -1.635592 2.552418 -0.408986
v 1.635592 2.769771 -0.408986
v -1.635592 2.769771 -0.408986
v 1.635592 3.641180 -0.408986
v -1.635592 3.641180 -0.408986
v 1.635592 3.858533 -0.408986
v -1.635592 3.858533 -0.408986
v 1.635592 4.729941 -0.408986
v -1.635592 4.729941 -0.408986
v -1.750026 6.114453 -0.589605
v 1.750026 6.114453 -0.589605
v 1.750026 6.114453 0.589605
v -1.750026 6.114453 0.589605
v -1.856867 6.005277 -0.705971
v 1.856867 6.005277 -0.705971
v 1.856867 6.005277 0.705971
v -1.856867 6.005277 0.705971
v -1.856867 6.136365 -0.705971
v 1.856867 6.136365 -0.705971
v 1.856867 6.136365 0.705971
v -1.856867 6.136365 0.705971
v -2.021420 0.483572 -0.367125
v -2.021420 0.483572 0.367125
v -2.021420 5.927379 0.367125
v -2.021420 5.927379 -0.367125
v 2.021420 0.483572 0.367125
v 2.021420 0.483572 -0.367125
v 2.021420 5.927379 -0.367125
v 2.021420 5.927379 0.367125
v 2.021420 1.572333 -0.367125
v 2.021420 1.572333 0.367125
v 2.021420 2.661095 -0.367125
v 2.021420 2.661095 0.367125
v 2.021420 3.749856 -0.367125
v 2.021420 3.749856 0.367125
v 2.021420 4.838618 -0.367125
v 2.021420 4.838618 0.367125
v -2.021420 1.572333 0.367125
v -2.021420 1.572333 -0.367125
v -2.021420 2.661095 0.367125
v -2.021420 2.661095 -0.367125
v -2.021420 3.749856 0.367125
v -2.021420 3.749856 -0.367125
v -2.021420 4.838618 0.367125
v -2.021420 4.838618 -0.367125
v -2.021420 6.114453 0.367125
v -2.021420 6.114453 -0.367125
v 2.021420 6.114453 -0.367125
v 2.021420 6.114453 0.367125
v -2.144831 6.005277 0.439582
v -2.144831 6.005277 -0.439582
v 2.144831 6.005277 -0.439582
v 2.144831 6.005277 0.439582
v -2.144831 6.136365 0.439582
v -2.144831 6.136365 -0.439582
v 2.144831 6.136365 -0.439582
v 2.144831 6.136365 0.439582
v 1.855966 6.114453 -0.367125
v 1.855966 6.114453 0.367125
v -1.855966 6.114453 -0.367125
v -1.855966 6.114453 0.367125
v -1.855966 0.483572 -0.367125
v -1.855966 0.483572 0.367125
v 1.855966 0.483572 -0.367125
v 1.855966 0.483572 0.367125
v -2.021420 0.009396 0.367125
v -1.906036 0.009396 0.589605
v -1.750026 0.009396 -0.589605
v -1.906036 0.009396 -0.589605
v 2.021420 0.009396 -0.367125
v 1.906036 0.009396 -0.589605
v 1.750026 0.009396 0.589605
v 1.906036 0.009396 0.589605
v 1.750026 0.009396 -0.589605
v -1.750026 0.009396 0.589605
v -1.855966 0.009396 0.367125
v 1.855966 0.009396 0.367125
v -2.021420 0.009396 -0.367125
v 2.021420 0.009396 0.367125
v -1.855966 0.009396 -0.367125
v 1.855966 0.009396 -0.367125
vt 0.575000 0.166667
vt 0.625000 0.166667
vt 0.625000 0.250000
vt 0.575000 0.250000
vt 0.575000 0.416667
vt 0.625000 0.416667
vt 0.625000 0.500000
vt 0.575000 0.500000
vt 0.575000 0.666667
vt 0.625000 0.666667
vt 0.625000 0.750000
vt 0.575000 0.750000
vt 0.208333 0.500000
vt 0.208333 0.583333
vt 0.208333 0.583333
vt 0.208333 0.500000
vt 0.625000 0.333333
vt 0.625000 0.250000
vt 0.625000 0.250000
vt 0.625000 0.333333
vt 0.379991 0.758174
vt 0.420009 0.758174
vt 0.420009 0.758174
vt 0.379991 0.758174
vt 0.579991 0.758174
vt 0.620009 0.758174
vt 0.620009 0.758174
vt 0.579991 0.758174
vt 0.570009 0.991826
vt 0.529991 0.991826
vt 0.529991 0.991826
vt 0.570009 0.991826
vt 0.520009 0.991826
vt 0.479991 0.991826
vt 0.479991 0.991826
vt 0.520009 0.991826
vt 0.375000 0.666667
vt 0.425000 0.666667
vt 0.425000 0.750000
vt 0.375000 0.750000
vt 0.475000 0.666667
vt 0.475000 0.750000
vt 0.525000 0.666667
vt 0.525000 0.750000
vt 0.375000 0.416667
vt 0.425000 0.416667
vt 0.425000 0.500000
vt 0.375000 0.500000
vt 0.475000 0.416667
vt 0.475000 0.500000
vt 0.525000 0.416667
vt 0.525000 0.500000
vt 0.375000 0.166667
vt 0.425000 0.166667
vt 0.425000 0.250000
vt 0.375000 0.250000
vt 0.475000 0.166667
vt 0.475000 0.250000
vt 0.525000 0.166667
vt 0.525000 0.250000
vt 0.625000 0.916667
vt 0.625000 1.000000
vt 0.620009 0.991826
vt 0.620009 0.913942
vt 0.575000 1.000000
vt 0.579991 0.991826
vt 0.575000 0.833333
vt 0.579991 0.836058
vt 0.425000 0.916667
vt 0.425000 1.000000
vt 0.420009 0.991826
vt 0.420009 0.913942
vt 0.375000 1.000000
vt 0.379991 0.991826
vt 0.375000 0.833333
vt 0.379991 0.836058
vt 0.470009 0.758174
vt 0.429991 0.758174
vt 0.475000 0.916667
vt 0.475000 1.000000
vt 0.470009 0.991826
vt 0.470009 0.913942
vt 0.429991 0.991826
vt 0.425000 0.833333
vt 0.429991 0.836058
vt 0.520009 0.758174
vt 0.479991 0.758174
vt 0.525000 0.916667
vt 0.525000 1.000000
vt 0.520009 0.913942
vt 0.475000 0.833333
vt 0.479991 0.836058
vt 0.570009 0.758174
vt 0.529991 0.758174
vt 0.575000 0.916667
vt 0.570009 0.913942
vt 0.525000 0.833333
vt 0.529991 0.836058
vt 0.579991 0.913942
vt 0.620009 0.913942
vt 0.620009 0.991826
vt 0.579991 0.991826
vt 0.379991 0.913942
vt 0.420009 0.913942
vt 0.420009 0.991826
vt 0.379991 0.991826
vt 0.429991 0.913942
vt 0.470009 0.913942
vt 0.470009 0.991826
vt 0.429991 0.991826
vt 0.479991 0.913942
vt 0.520009 0.913942
vt 0.529991 0.913942
vt 0.570009 0.913942
vt 0.470009 0.758174
vt 0.429991 0.758174
vt 0.520009 0.758174
vt 0.479991 0.758174
vt 0.570009 0.758174
vt 0.529991 0.758174
vt 0.791667 0.666667
vt 0.875000 0.666667
vt 0.875000 0.750000
vt 0.791667 0.750000
vt 0.625000 0.583333
vt 0.625000 0.500000
vt 0.625000 0.500000
vt 0.625000 0.583333
vt 0.625000 0.083333
vt 0.625000 0.000000
vt 0.625000 0.000000
vt 0.625000 0.083333
vt 0.625000 0.833333
vt 0.625000 0.750000
vt 0.625000 0.750000
vt 0.625000 0.833333
vt 0.625000 0.166667
vt 0.625000 0.416667
vt 0.625000 0.666667
vt 0.625000 0.916667
vt 0.625000 1.000000
vt 0.625000 0.000000
vt 0.625000 0.083333
vt 0.625000 0.250000
vt 0.625000 0.333333
vt 0.625000 0.500000
vt 0.625000 0.583333
vt 0.625000 0.750000
vt 0.625000 0.833333
vt 0.625000 1.000000
vt 0.625000 0.916667
vt 0.625000 0.916667
vt 0.625000 1.000000
vt 0.625000 0.416667
vt 0.625000 0.416667
vt 0.625000 0.833333
vt 0.625000 0.333333
vt 0.625000 0.666667
vt 0.708333 0.666667
vt 0.708333 0.750000
vt 0.570009 0.836058
vt 0.529991 0.836058
vt 0.520009 0.836058
vt 0.479991 0.836058
vt 0.470009 0.836058
vt 0.429991 0.836058
vt 0.420009 0.836058
vt 0.379991 0.836058
vt 0.620009 0.836058
vt 0.579991 0.836058
vt 0.529991 0.913942
vt 0.570009 0.836058
vt 0.479991 0.913942
vt 0.520009 0.836058
vt 0.429991 0.913942
vt 0.470009 0.836058
vt 0.375000 0.916667
vt 0.379991 0.913942
vt 0.420009 0.836058
vt 0.579991 0.913942
vt 0.620009 0.836058
vt 0.575000 0.333333
vt 0.525000 0.333333
vt 0.475000 0.333333
vt 0.425000 0.333333
vt 0.375000 0.333333
vt 0.375000 0.583333
vt 0.375000 0.583333
vt 0.375000 0.500000
vt 0.208333 0.666667
vt 0.291667 0.666667
vt 0.291667 0.750000
vt 0.208333 0.750000
vt 0.291667 0.500000
vt 0.291667 0.583333
vt 0.125000 0.666667
vt 0.208333 0.666667
vt 0.125000 0.666667
vt 0.125000 0.583333
vt 0.708333 0.500000
vt 0.791667 0.500000
vt 0.791667 0.583333
vt 0.708333 0.583333
vt 0.625000 0.666667
vt 0.625000 0.166667
vt 0.625000 0.166667
vt 0.625000 0.583333
vt 0.625000 0.083333
vt 0.625000 0.000000
vt 0.875000 0.500000
vt 0.875000 0.583333
vt 0.525000 0.000000
vt 0.575000 0.000000
vt 0.575000 0.083333
vt 0.525000 0.083333
vt 0.475000 0.000000
vt 0.475000 0.083333
vt 0.425000 0.000000
vt 0.425000 0.083333
vt 0.375000 0.000000
vt 0.375000 0.083333
vt 0.575000 0.583333
vt 0.525000 0.583333
vt 0.475000 0.583333
vt 0.425000 0.583333
vt 0.291667 0.666667
vt 0.291667 0.750000
vt 0.375000 0.666667
vt 0.375000 0.750000
vt 0.208333 0.750000
vt 0.125000 0.750000
vt 0.125000 0.500000
vt 0.125000 0.583333
vt 0.291667 0.500000
vt 0.291667 0.583333
vt 0.375000 0.416667
vt 0.375000 0.083333
vt 0.375000 0.000000
vt 0.375000 0.833333
vt 0.375000 0.250000
vt 0.375000 0.166667
vt 0.375000 0.333333
vt 0.375000 1.000000
vt 0.375000 0.916667
vn -0.8877 0.0000 -0.4604
vn 0.0000 0.0000 -1.0000
vn 0.8877 0.0000 0.4604
vn 0.9029 0.0000 0.4299
vn -1.0000 0.0000 0.0000
vn 1.0000 0.0000 0.0000
vn -0.0000 0.0000 1.0000
vn 0.0000 1.0000 0.0000
vn 0.9086 0.0000 -0.4176
vn -0.9086 0.0000 0.4176
vn -0.4164 -0.8863 -0.2026
vn 0.0000 -0.8310 -0.5563
vn 0.4164 -0.8863 0.2026
vn 0.0000 -0.8310 0.5563
vn 0.1307 0.9894 -0.0636
vn 0.0000 0.9827 0.1850
vn -0.1307 0.9894 0.0636
vn 0.0000 0.9827 -0.1850
vn 0.8877 0.0000 -0.4604
vn 0.0000 -1.0000 0.0000
vn -0.1307 0.9894 -0.0636
vn -0.1748 0.9846 0.0000
vn 0.1307 0.9894 0.0636
vn 0.1748 0.9846 0.0000
vn 0.4164 -0.8863 -0.2026
vn 0.5338 -0.8456 0.0000
vn -0.4164 -0.8863 0.2026
vn -0.5338 -0.8456 0.0000
vn -0.9086 0.0000 -0.4176
vn 0.9086 0.0000 0.4176
vn -0.8877 0.0000 0.4604
vn -0.9029 0.0000 -0.4299
vn -0.9029 0.0000 0.4299
vn 0.9029 0.0000 -0.4299
g Bookshelf_Cube.008_Mat3
usemtl Mat3
s off
f 176/1/1 156/2/1 70/3/1 13/4/1
f 100/5/2 80/6/2 71/7/2 17/8/2
f 168/9/3 160/10/3 72/11/3 21/12/3
f 78/13/4 193/14/4 211/15/4 199/16/4
f 145/17/2 4/18/2 66/19/2 149/20/2
f 29/21/5 30/22/5 49/23/5 50/24/5
f 25/25/5 26/26/5 45/27/5 46/28/5
f 43/29/6 44/30/6 63/31/6 64/32/6
f 39/33/6 40/34/6 59/35/6 60/36/6
f 157/37/3 162/38/3 24/39/3 5/40/3
f 162/38/3 164/41/3 23/42/3 24/39/3
f 164/41/3 166/43/3 22/44/3 23/42/3
f 166/43/3 168/9/3 21/12/3 22/44/3
f 77/45/2 94/46/2 20/47/2 7/48/2
f 94/46/2 96/49/2 19/50/2 20/47/2
f 96/49/2 98/51/2 18/52/2 19/50/2
f 98/51/2 100/5/2 17/8/2 18/52/2
f 153/53/1 170/54/1 16/55/1 3/56/1
f 170/54/1 172/57/1 15/58/1 16/55/1
f 172/57/1 174/59/1 14/60/1 15/58/1
f 174/59/1 176/1/1 13/4/1 14/60/1
f 21/12/7 72/11/7 26/26/7 25/25/7
f 84/61/7 69/62/7 27/63/7 104/64/7
f 69/62/7 12/65/7 28/66/7 27/63/7
f 91/67/7 21/12/7 25/25/7 101/68/7
f 5/40/7 24/39/7 30/22/7 29/21/7
f 86/69/7 9/70/7 31/71/7 108/72/7
f 9/70/7 1/73/7 32/74/7 31/71/7
f 82/75/7 5/40/7 29/21/7 106/76/7
f 24/39/7 23/42/7 34/77/7 33/78/7
f 88/79/7 10/80/7 35/81/7 112/82/7
f 10/80/7 9/70/7 36/83/7 35/81/7
f 85/84/7 24/39/7 33/78/7 109/85/7
f 23/42/7 22/44/7 38/86/7 37/87/7
f 90/88/7 11/89/7 39/33/7 116/90/7
f 11/89/7 10/80/7 40/34/7 39/33/7
f 87/91/7 23/42/7 37/87/7 113/92/7
f 22/44/7 21/12/7 42/93/7 41/94/7
f 92/95/7 12/65/7 43/29/7 120/96/7
f 12/65/7 11/89/7 44/30/7 43/29/7
f 89/97/7 22/44/7 41/94/7 117/98/7
f 122/99/7 124/100/7 48/101/7 47/102/7
f 125/103/7 128/104/7 52/105/7 51/106/7
f 130/107/7 132/108/7 56/109/7 55/110/7
f 134/111/7 136/112/7 60/36/7 59/35/7
f 138/113/7 140/114/7 64/32/7 63/31/7
f 33/78/5 34/77/5 53/115/5 54/116/5
f 37/87/5 38/86/5 57/117/5 58/118/5
f 41/94/5 42/93/5 61/119/5 62/120/5
f 27/63/6 28/66/6 47/102/6 48/101/6
f 31/71/6 32/74/6 51/106/6 52/105/6
f 35/81/6 36/83/6 55/110/6 56/109/6
f 192/121/8 177/122/8 73/123/8 144/124/8
f 183/125/9 8/126/9 67/127/9 187/128/9
f 181/129/10 2/130/10 65/131/10 185/132/10
f 147/133/7 6/134/7 68/135/7 151/136/7
f 182/137/11 4/18/11 70/3/11 156/2/11
f 146/138/12 8/126/12 71/7/12 80/6/12
f 184/139/13 6/134/13 72/11/13 160/10/13
f 148/140/14 2/141/14 69/62/14 84/61/14
f 185/132/15 65/131/15 73/142/15 177/143/15
f 149/20/16 66/19/16 74/144/16 141/145/16
f 187/128/17 67/127/17 75/146/17 179/147/17
f 151/136/18 68/135/18 76/148/18 143/149/18
f 65/150/18 152/151/18 144/152/18 73/153/18
f 152/151/18 151/136/18 143/149/18 144/152/18
f 67/127/16 150/154/16 142/155/16 75/146/16
f 150/154/16 149/20/16 141/145/16 142/155/16
f 6/134/14 147/133/14 83/156/14 72/11/14
f 147/133/14 148/140/14 84/61/14 83/156/14
f 4/18/12 145/17/12 79/157/12 70/3/12
f 145/17/12 146/138/12 80/6/12 79/157/12
f 2/141/7 148/140/7 152/151/7 65/150/7
f 148/140/7 147/133/7 151/136/7 152/151/7
f 180/158/8 190/159/8 143/160/8 76/148/8
f 190/159/8 192/121/8 144/124/8 143/160/8
f 62/120/7 61/119/7 139/161/7 137/162/7
f 137/162/7 139/161/7 140/114/7 138/113/7
f 58/118/7 57/117/7 135/163/7 133/164/7
f 133/164/7 135/163/7 136/112/7 134/111/7
f 54/116/7 53/115/7 131/165/7 129/166/7
f 129/166/7 131/165/7 132/108/7 130/107/7
f 50/24/7 49/23/7 127/167/7 126/168/7
f 126/168/7 127/167/7 128/104/7 125/103/7
f 46/28/7 45/27/7 123/169/7 121/170/7
f 121/170/7 123/169/7 124/100/7 122/99/7
f 11/89/7 90/88/7 118/171/7 44/30/7
f 90/88/7 89/97/7 117/98/7 118/171/7
f 21/12/7 91/67/7 119/172/7 42/93/7
f 91/67/7 92/95/7 120/96/7 119/172/7
f 10/80/7 88/79/7 114/173/7 40/34/7
f 88/79/7 87/91/7 113/92/7 114/173/7
f 22/44/7 89/97/7 115/174/7 38/86/7
f 89/97/7 90/88/7 116/90/7 115/174/7
f 9/70/7 86/69/7 110/175/7 36/83/7
f 86/69/7 85/84/7 109/85/7 110/175/7
f 23/42/7 87/91/7 111/176/7 34/77/7
f 87/91/7 88/79/7 112/82/7 111/176/7
f 1/73/7 81/177/7 105/178/7 32/74/7
f 81/177/7 82/75/7 106/76/7 105/178/7
f 24/39/7 85/84/7 107/179/7 30/22/7
f 85/84/7 86/69/7 108/72/7 107/179/7
f 12/65/7 92/95/7 102/180/7 28/66/7
f 92/95/7 91/67/7 101/68/7 102/180/7
f 72/11/7 83/156/7 103/181/7 26/26/7
f 83/156/7 84/61/7 104/64/7 103/181/7
f 14/60/2 13/4/2 99/182/2 97/183/2
f 97/183/2 99/182/2 100/5/2 98/51/2
f 15/58/2 14/60/2 97/183/2 95/184/2
f 95/184/2 97/183/2 98/51/2 96/49/2
f 16/55/2 15/58/2 95/184/2 93/185/2
f 93/185/2 95/184/2 96/49/2 94/46/2
f 3/56/2 16/55/2 93/185/2 78/186/2
f 78/186/2 93/185/2 94/46/2 77/45/2
f 8/126/2 146/138/2 150/154/2 67/127/2
f 146/138/2 145/17/2 149/20/2 150/154/2
f 7/48/19 158/187/19 201/188/19 202/189/19
f 194/190/20 196/191/20 82/192/20 81/193/20
f 13/4/2 70/3/2 79/157/2 99/182/2
f 99/182/2 79/157/2 80/6/2 100/5/2
f 78/13/20 77/194/20 195/195/20 193/14/20
f 193/14/20 195/195/20 196/191/20 194/190/20
f 154/196/2 194/190/2 207/197/2 197/198/2
f 153/199/20 193/14/20 194/190/20 154/196/20
f 142/200/8 141/201/8 191/202/8 189/203/8
f 189/203/8 191/202/8 192/121/8 190/159/8
f 75/146/8 142/200/8 189/203/8 179/147/8
f 179/147/8 189/203/8 190/159/8 180/158/8
f 68/135/21 188/204/21 180/158/21 76/148/21
f 188/204/22 187/128/22 179/147/22 180/158/22
f 66/19/23 186/205/23 178/206/23 74/144/23
f 186/205/24 185/132/24 177/143/24 178/206/24
f 8/126/25 183/125/25 159/207/25 71/7/25
f 183/125/26 184/139/26 160/10/26 159/207/26
f 2/130/27 181/129/27 155/208/27 69/209/27
f 181/129/28 182/137/28 156/2/28 155/208/28
f 4/18/29 182/137/29 186/205/29 66/19/29
f 182/137/5 181/129/5 185/132/5 186/205/5
f 6/134/30 184/139/30 188/204/30 68/135/30
f 184/139/6 183/125/6 187/128/6 188/204/6
f 141/201/8 74/210/8 178/211/8 191/202/8
f 191/202/8 178/211/8 177/122/8 192/121/8
f 11/212/31 12/213/31 175/214/31 173/215/31
f 173/215/5 175/214/5 176/1/5 174/59/5
f 10/216/31 11/212/31 173/215/31 171/217/31
f 171/217/5 173/215/5 174/59/5 172/57/5
f 9/218/31 10/216/31 171/217/31 169/219/31
f 169/219/5 171/217/5 172/57/5 170/54/5
f 1/220/31 9/218/31 169/219/31 154/221/31
f 154/221/5 169/219/5 170/54/5 153/53/5
f 18/52/19 17/8/19 167/222/19 165/223/19
f 165/223/6 167/222/6 168/9/6 166/43/6
f 19/50/19 18/52/19 165/223/19 163/224/19
f 163/224/6 165/223/6 166/43/6 164/41/6
f 20/47/19 19/50/19 163/224/19 161/225/19
f 161/225/6 163/224/6 164/41/6 162/38/6
f 7/48/19 20/47/19 161/225/19 158/187/19
f 158/187/6 161/225/6 162/38/6 157/37/6
f 82/192/32 196/191/32 208/226/32 203/227/32
f 195/195/20 158/187/20 157/37/20 196/191/20
f 17/8/19 71/7/19 159/207/19 167/222/19
f 167/222/6 159/207/6 160/10/6 168/9/6
f 12/213/31 69/209/31 155/208/31 175/214/31
f 175/214/5 155/208/5 156/2/5 176/1/5
f 208/226/20 210/228/20 204/229/20 203/227/20
f 197/198/20 207/197/20 206/230/20 198/231/20
f 200/232/20 199/16/20 211/15/20 209/233/20
f 205/234/20 202/189/20 201/188/20 212/235/20
f 77/45/2 7/48/2 202/189/2 205/236/2
f 1/220/31 154/221/31 197/237/31 198/238/31
f 157/37/3 5/40/3 204/229/3 210/228/3
f 195/195/33 77/194/33 205/234/33 212/235/33
f 5/40/7 82/75/7 203/239/7 204/229/7
f 153/53/1 3/56/1 200/240/1 209/241/1
f 3/56/2 78/186/2 199/242/2 200/240/2
f 81/177/7 1/73/7 198/243/7 206/244/7
f 158/187/7 195/195/7 212/235/7 201/188/7
f 194/190/34 81/193/34 206/230/34 207/197/34
f 196/191/2 157/37/2 210/228/2 208/226/2
f 193/14/7 153/199/7 209/233/7 211/15/7
g Bookshelf_Cube.008_Mat2
usemtl Mat2
f 101/68/8 25/25/8 46/28/8 121/170/8
f 106/76/8 29/21/8 50/24/8 126/168/8
f 104/64/20 27/63/20 48/101/20 124/100/20
f 109/85/8 33/78/8 54/116/8 129/166/8
f 108/72/20 31/71/20 52/105/20 128/104/20
f 113/92/8 37/87/8 58/118/8 133/164/8
f 112/82/20 35/81/20 56/109/20 132/108/20
f 117/98/8 41/94/8 62/120/8 137/162/8
f 116/90/20 39/33/20 60/36/20 136/112/20
f 120/96/20 43/29/20 64/32/20 140/114/20
f 42/93/20 119/172/20 139/161/20 61/119/20
f 119/172/20 120/96/20 140/114/20 139/161/20
f 38/86/20 115/174/20 135/163/20 57/117/20
f 115/174/20 116/90/20 136/112/20 135/163/20
f 44/30/8 118/171/8 138/113/8 63/31/8
f 118/171/8 117/98/8 137/162/8 138/113/8
f 34/77/20 111/176/20 131/165/20 53/115/20
f 111/176/20 112/82/20 132/108/20 131/165/20
f 40/34/8 114/173/8 134/111/8 59/35/8
f 114/173/8 113/92/8 133/164/8 134/111/8
f 30/22/20 107/179/20 127/167/20 49/23/20
f 107/179/20 108/72/20 128/104/20 127/167/20
f 36/83/8 110/175/8 130/107/8 55/110/8
f 110/175/8 109/85/8 129/166/8 130/107/8
f 26/26/20 103/181/20 123/169/20 45/27/20
f 103/181/20 104/64/20 124/100/20 123/169/20
f 32/74/8 105/178/8 125/103/8 51/106/8
f 105/178/8 106/76/8 126/168/8 125/103/8
f 28/66/8 102/180/8 122/99/8 47/102/8
f 102/180/8 101/68/8 121/170/8 122/99/8
