# Blender v2.83.1 OBJ File: 'EgoObjects.blend'
# www.blender.org
mtllib Book.mtl
o Book_Plane.001
v 0.091929 -0.018592 0.251728
v 0.081572 -0.017638 -0.281757
v 0.091929 0.692187 0.251728
v 0.081572 0.693140 -0.281757
v -0.024702 -0.018592 0.284380
v -0.024702 0.692187 0.284380
v -0.133653 -0.018592 0.251728
v -0.133653 0.692187 0.251728
v -0.093817 -0.018592 -0.278872
v -0.093817 0.692187 -0.278872
v 0.080908 0.006473 0.231087
v 0.080908 0.666533 0.231087
v 0.057005 0.006473 -0.261046
v 0.057005 0.666533 -0.261046
v -0.077745 0.666533 -0.252739
v -0.077745 0.006473 -0.252739
v -0.129533 0.006473 0.236932
v -0.129533 0.666533 0.236932
v -0.024312 0.006473 0.277853
v -0.010370 0.006473 -0.256892
v -0.024312 0.666533 0.277853
v -0.010370 0.666533 -0.256892
v 0.099883 -0.018553 0.230255
v 0.099884 0.692225 0.230255
v -0.138816 -0.018592 0.214527
v -0.138816 0.692187 0.214527
vt 0.542575 0.012231
vt 0.985017 0.020128
vt 0.982484 0.995935
vt 0.541241 0.988053
vt 0.524310 0.010807
vt 0.522976 0.986628
vt 0.490481 0.986121
vt 0.491816 0.010299
vt 0.458490 0.985621
vt 0.459824 0.009800
vt 0.428175 0.009306
vt 0.426841 0.985127
vt 0.006935 0.995937
vt 0.004719 0.020126
vt 0.000000 0.000000
vt 0.000000 0.000000
vt 0.000000 1.000000
vt 0.000000 1.000000
vt 0.000000 0.000000
vt 0.000000 1.000000
vt 0.000000 1.000000
vt 0.000000 0.000000
vt 0.000000 0.000000
vt 0.000000 0.000000
vt 0.000000 1.000000
vt 0.000000 1.000000
vn 0.9994 -0.0000 -0.0357
vn 0.2696 -0.0000 0.9630
vn -0.2871 0.0000 0.9579
vn -0.9959 0.0000 -0.0908
vn 0.9377 -0.0000 0.3474
vn -0.9905 0.0000 0.1375
vn 0.9988 -0.0000 -0.0485
vn -0.9945 0.0000 -0.1052
vn 0.0000 -1.0000 -0.0000
vn -0.3625 0.0000 0.9320
vn 0.0000 1.0000 0.0000
vn -0.0615 0.0000 -0.9981
vn 0.4061 -0.0000 0.9138
g Book_Plane.001_Mat2
usemtl Mat2
s off
f 23/1/1 2/2/1 4/3/1 24/4/1
f 1/5/2 3/6/2 6/7/2 5/8/2
f 5/8/3 6/7/3 8/9/3 7/10/3
f 25/11/4 26/12/4 10/13/4 9/14/4
f 1/5/5 23/1/5 24/4/5 3/6/5
f 7/10/6 8/9/6 26/12/6 25/11/6
g Book_Plane.001_Mat4
usemtl Mat4
f 11/15/7 13/16/7 14/17/7 12/18/7
f 17/19/8 18/20/8 15/21/8 16/22/8
f 20/23/9 19/24/9 17/19/9 16/22/9
f 19/24/10 21/25/10 18/20/10 17/19/10
f 21/25/11 22/26/11 15/21/11 18/20/11
f 22/26/12 20/23/12 16/22/12 15/21/12
f 14/17/12 13/16/12 20/23/12 22/26/12
f 12/18/11 14/17/11 22/26/11 21/25/11
f 11/15/13 12/18/13 21/25/13 19/24/13
f 13/16/9 11/15/9 19/24/9 20/23/9
