# Blender v2.83.1 OBJ File: 'EgoObjects.blend'
# www.blender.org
mtllib AtticStairs.mtl
o AtticStairs_Cube.022
v 1.000000 0.000000 -0.600000
v 1.000000 5.000000 -5.600000
v 1.000000 0.000000 -1.000000
v 1.000000 5.000000 -6.000000
v 1.000000 3.625484 -4.625484
v 1.000000 3.625484 -4.225483
v 0.800000 0.000000 -1.000000
v 0.800000 5.000000 -6.000000
v 0.800000 0.000000 -0.600000
v 0.800000 5.000000 -5.600000
v 0.800000 3.625484 -4.225483
v 0.800000 3.625484 -4.625484
v 1.000000 1.812742 -2.812742
v 1.000000 1.812742 -2.412742
v 0.800000 1.812742 -2.812742
v 0.800000 1.812742 -2.412742
v 1.000000 1.812742 -2.412742
v 0.800000 1.812742 -2.812742
v 1.000000 1.812742 -2.812742
v 1.000000 3.625484 -4.625484
v 1.000000 3.625484 -4.225483
v 0.800000 3.625484 -4.625484
v 0.800000 0.000000 -1.016409
v 0.800000 0.090637 -1.061728
v 0.800000 0.000000 -0.616409
v 0.800000 0.090637 -0.636728
v 0.800000 1.500000 -2.516410
v 0.800000 1.590637 -2.561728
v 0.800000 1.500000 -2.116410
v 0.800000 1.590637 -2.136728
v 0.800000 0.500000 -1.516409
v 0.800000 0.590637 -1.561728
v 0.800000 0.500000 -1.116409
v 0.800000 0.590637 -1.136728
v 0.800000 1.000000 -2.016409
v 0.800000 1.090637 -2.061728
v 0.800000 1.000000 -1.616409
v 0.800000 1.090637 -1.636728
v 0.800000 2.000000 -3.016410
v 0.800000 2.090637 -3.061728
v 0.800000 2.000000 -2.616410
v 0.800000 2.090637 -2.636728
v 0.800000 2.500000 -3.516410
v 0.800000 2.590637 -3.561728
v 0.800000 2.500000 -3.116410
v 0.800000 2.590637 -3.136728
v 0.800000 3.000000 -4.016410
v 0.800000 3.090637 -4.061728
v 0.800000 3.000000 -3.616410
v 0.800000 3.090637 -3.636728
v 0.800000 3.500000 -4.516409
v 0.800000 3.590637 -4.561728
v 0.800000 3.500000 -4.116409
v 0.800000 3.590637 -4.136728
v 0.800000 4.000000 -5.016409
v 0.800000 4.090637 -5.061728
v 0.800000 4.000000 -4.616409
v 0.800000 4.090637 -4.636728
v 0.800000 4.500000 -5.516409
v 0.800000 4.590637 -5.561728
v 0.800000 4.500000 -5.116409
v 0.800000 4.590637 -5.136727
v 1.000000 5.000000 -6.016409
v 1.000000 5.090637 -6.061728
v 1.000000 5.000000 -5.616409
v 1.000000 5.090637 -5.636727
v 1.200000 5.000000 -6.100000
v 1.200000 3.525484 -4.625484
v 1.200000 5.000000 -6.300000
v 1.200000 3.525484 -4.825483
v 1.005882 5.000000 -6.100000
v 1.005882 3.525484 -4.625484
v 1.005882 5.000000 -6.300000
v 1.005882 3.525484 -4.825483
v 0.890453 5.000000 -6.176675
v 0.890453 3.525484 -4.702159
v 0.890453 5.000000 -6.300000
v 0.890453 3.525484 -4.825483
v 1.198567 3.538928 -4.718974
v 1.198567 3.546312 -4.766265
v 1.198567 4.986556 -6.206509
v 1.198567 4.979172 -6.159218
v 1.017874 4.982864 -6.159218
v 1.017874 4.982864 -6.206509
v 1.017874 3.542619 -4.718974
v 1.017874 3.542619 -4.766265
v 0.890453 5.000000 -6.217783
v 0.890453 5.000000 -6.258892
v 0.890453 3.525484 -4.743267
v 0.890453 3.525484 -4.784375
v 1.005882 5.000000 -6.166667
v 1.005882 5.000000 -6.233333
v 1.005882 3.525484 -4.692150
v 1.005882 3.525484 -4.758817
v 1.200000 3.525484 -4.692150
v 1.200000 3.525484 -4.758817
v 1.200000 5.000000 -6.166667
v 1.200000 5.000000 -6.233333
v -1.000000 0.000000 -0.600000
v -1.000000 5.000000 -5.600000
v -1.000000 0.000000 -1.000000
v -1.000000 5.000000 -6.000000
v -1.000000 3.625484 -4.625484
v -1.000000 3.625484 -4.225483
v -0.800000 0.000000 -1.000000
v -0.800000 5.000000 -6.000000
v -0.800000 0.000000 -0.600000
v -0.800000 5.000000 -5.600000
v -0.800000 3.625484 -4.225483
v -0.800000 3.625484 -4.625484
v -1.000000 1.812742 -2.812742
v -1.000000 1.812742 -2.412742
v -0.800000 1.812742 -2.812742
v -0.800000 1.812742 -2.412742
v -1.000000 1.812742 -2.412742
v -0.800000 1.812742 -2.812742
v -1.000000 1.812742 -2.812742
v -1.000000 3.625484 -4.625484
v -1.000000 3.625484 -4.225483
v -0.800000 3.625484 -4.625484
v -0.800000 0.000000 -1.016409
v -0.800000 0.090637 -1.061728
v -0.800000 0.000000 -0.616409
v -0.800000 0.090637 -0.636728
v -0.800000 1.500000 -2.516410
v -0.800000 1.590637 -2.561728
v -0.800000 1.500000 -2.116410
v -0.800000 1.590637 -2.136728
v -0.800000 0.500000 -1.516409
v -0.800000 0.590637 -1.561728
v -0.800000 0.500000 -1.116409
v -0.800000 0.590637 -1.136728
v -0.800000 1.000000 -2.016409
v -0.800000 1.090637 -2.061728
v -0.800000 1.000000 -1.616409
v -0.800000 1.090637 -1.636728
v -0.800000 2.000000 -3.016410
v -0.800000 2.090637 -3.061728
v -0.800000 2.000000 -2.616410
v -0.800000 2.090637 -2.636728
v -0.800000 2.500000 -3.516410
v -0.800000 2.590637 -3.561728
v -0.800000 2.500000 -3.116410
v -0.800000 2.590637 -3.136728
v -0.800000 3.000000 -4.016410
v -0.800000 3.090637 -4.061728
v -0.800000 3.000000 -3.616410
v -0.800000 3.090637 -3.636728
v -0.800000 3.500000 -4.516409
v -0.800000 3.590637 -4.561728
v -0.800000 3.500000 -4.116409
v -0.800000 3.590637 -4.136728
v -0.800000 4.000000 -5.016409
v -0.800000 4.090637 -5.061728
v -0.800000 4.000000 -4.616409
v -0.800000 4.090637 -4.636728
v -0.800000 4.500000 -5.516409
v -0.800000 4.590637 -5.561728
v -0.800000 4.500000 -5.116409
v -0.800000 4.590637 -5.136727
v -1.000000 5.000000 -6.016409
v -1.000000 5.090637 -6.061728
v -1.000000 5.000000 -5.616409
v -1.000000 5.090637 -5.636727
v 0.000000 5.000000 -6.016409
v 0.000000 5.090637 -6.061728
v 0.000000 5.000000 -5.616409
v 0.000000 5.090637 -5.636727
v 0.000000 4.500000 -5.516409
v 0.000000 4.590637 -5.561728
v 0.000000 4.500000 -5.116409
v 0.000000 4.590637 -5.136727
v 0.000000 4.000000 -5.016409
v 0.000000 4.090637 -5.061728
v 0.000000 4.000000 -4.616409
v 0.000000 4.090637 -4.636728
v 0.000000 3.500000 -4.516409
v 0.000000 3.590637 -4.561728
v 0.000000 3.500000 -4.116409
v 0.000000 3.590637 -4.136728
v 0.000000 3.000000 -4.016410
v 0.000000 3.090637 -4.061728
v 0.000000 3.000000 -3.616410
v 0.000000 3.090637 -3.636728
v 0.000000 2.500000 -3.516410
v 0.000000 2.590637 -3.561728
v 0.000000 2.500000 -3.116410
v 0.000000 2.590637 -3.136728
v 0.000000 2.000000 -3.016410
v 0.000000 2.090637 -3.061728
v 0.000000 2.000000 -2.616410
v 0.000000 2.090637 -2.636728
v 0.000000 1.500000 -2.516410
v 0.000000 1.590637 -2.561728
v 0.000000 1.500000 -2.116410
v 0.000000 1.590637 -2.136728
v 0.000000 1.000000 -2.016409
v 0.000000 1.090637 -2.061728
v 0.000000 1.000000 -1.616409
v 0.000000 1.090637 -1.636728
v 0.000000 0.500000 -1.516409
v 0.000000 0.590637 -1.561728
v 0.000000 0.500000 -1.116409
v 0.000000 0.590637 -1.136728
v 0.000000 0.000000 -1.016409
v 0.000000 0.090637 -1.061728
v 0.000000 0.000000 -0.616409
v 0.000000 0.090637 -0.636728
v 0.000000 1.812742 -2.412742
v 0.000000 3.625484 -4.225483
v -1.200000 5.000000 -6.100000
v 0.000000 5.000000 -6.176675
v -1.200000 3.525484 -4.625484
v 0.000000 3.525484 -4.702159
v 0.000000 5.000000 -6.300000
v -1.200000 5.000000 -6.300000
v -1.200000 3.525484 -4.825483
v 0.000000 3.525484 -4.825483
v -1.005882 5.000000 -6.100000
v -1.005882 3.525484 -4.625484
v -1.005882 5.000000 -6.300000
v -1.005882 3.525484 -4.825483
v -0.890453 5.000000 -6.176675
v -0.890453 3.525484 -4.702159
v -0.890453 5.000000 -6.300000
v -0.890453 3.525484 -4.825483
v -1.198567 3.538928 -4.718974
v -1.198567 3.546312 -4.766265
v -1.198567 4.986556 -6.206509
v -1.198567 4.979172 -6.159218
v 0.000000 3.525484 -4.743267
v 0.000000 3.525484 -4.784375
v 0.000000 5.000000 -6.258892
v 0.000000 5.000000 -6.217783
v -1.017874 4.982864 -6.159218
v -1.017874 4.982864 -6.206509
v -1.017874 3.542619 -4.718974
v -1.017874 3.542619 -4.766265
v -0.890453 5.000000 -6.217783
v -0.890453 5.000000 -6.258892
v -0.890453 3.525484 -4.743267
v -0.890453 3.525484 -4.784375
v -1.005882 5.000000 -6.166667
v -1.005882 5.000000 -6.233333
v -1.005882 3.525484 -4.692150
v -1.005882 3.525484 -4.758817
v -1.200000 3.525484 -4.692150
v -1.200000 3.525484 -4.758817
v -1.200000 5.000000 -6.166667
v -1.200000 5.000000 -6.233333
vt 0.556274 0.416667
vt 0.625000 0.416667
vt 0.625000 0.500000
vt 0.556274 0.500000
vt 0.625000 0.750000
vt 0.556274 0.750000
vt 0.291667 0.500000
vt 0.375000 0.500000
vt 0.375000 0.750000
vt 0.291667 0.750000
vt 0.465637 0.500000
vt 0.556274 0.500000
vt 0.556274 0.750000
vt 0.465637 0.750000
vt 0.465637 0.416667
vt 0.556274 0.416667
vt 0.556274 0.833333
vt 0.465637 0.833333
vt 0.708333 0.500000
vt 0.708333 0.750000
vt 0.625000 0.833333
vt 0.465637 0.750000
vt 0.375000 0.833333
vt 0.375000 0.416667
vt 0.465637 0.416667
vt 0.465637 0.500000
vt 0.375000 0.833333
vt 0.379532 0.833333
vt 0.379532 0.833333
vt 0.375000 0.833333
vt 0.375000 0.875000
vt 0.375000 0.875000
vt 0.375000 0.833333
vt 0.379532 0.833333
vt 0.379532 0.833333
vt 0.375000 0.833333
vt 0.375000 0.875000
vt 0.375000 0.875000
vt 0.375000 0.833333
vt 0.379532 0.833333
vt 0.379532 0.833333
vt 0.375000 0.833333
vt 0.375000 0.875000
vt 0.375000 0.875000
vt 0.375000 0.833333
vt 0.379532 0.833333
vt 0.379532 0.833333
vt 0.375000 0.833333
vt 0.375000 0.875000
vt 0.375000 0.875000
vt 0.375000 0.833333
vt 0.379532 0.833333
vt 0.379532 0.833333
vt 0.375000 0.833333
vt 0.375000 0.875000
vt 0.375000 0.875000
vt 0.375000 0.833333
vt 0.379532 0.833333
vt 0.379532 0.833333
vt 0.375000 0.833333
vt 0.375000 0.875000
vt 0.375000 0.875000
vt 0.375000 0.833333
vt 0.379532 0.833333
vt 0.379532 0.833333
vt 0.375000 0.833333
vt 0.375000 0.875000
vt 0.375000 0.875000
vt 0.375000 0.833333
vt 0.379532 0.833333
vt 0.379532 0.833333
vt 0.375000 0.833333
vt 0.375000 0.875000
vt 0.375000 0.875000
vt 0.375000 0.833333
vt 0.379532 0.833333
vt 0.379532 0.833333
vt 0.375000 0.833333
vt 0.375000 0.875000
vt 0.375000 0.875000
vt 0.375000 0.833333
vt 0.379532 0.833333
vt 0.379532 0.833333
vt 0.375000 0.833333
vt 0.375000 0.875000
vt 0.375000 0.875000
vt 0.375000 0.833333
vt 0.379532 0.833333
vt 0.379532 0.833333
vt 0.375000 0.833333
vt 0.375000 0.875000
vt 0.375000 0.875000
vt 0.379532 0.875000
vt 0.379532 0.875000
vt 0.379532 0.875000
vt 0.379532 0.875000
vt 0.379532 0.875000
vt 0.379532 0.875000
vt 0.379532 0.875000
vt 0.379532 0.875000
vt 0.379532 0.875000
vt 0.379532 0.875000
vt 0.379532 0.875000
vt 0.379532 0.875000
vt 0.379532 0.875000
vt 0.379532 0.875000
vt 0.379532 0.875000
vt 0.379532 0.875000
vt 0.379532 0.875000
vt 0.379532 0.875000
vt 0.379532 0.875000
vt 0.379532 0.875000
vt 0.379532 0.875000
vt 0.379532 0.875000
vt 0.556274 0.486520
vt 0.556274 0.500000
vt 0.625000 0.500000
vt 0.625000 0.486520
vt 0.556274 0.486520
vt 0.625000 0.486520
vt 0.625000 0.500000
vt 0.556274 0.500000
vt 0.625000 0.500000
vt 0.556274 0.500000
vt 0.556274 0.478504
vt 0.556274 0.416667
vt 0.556274 0.416667
vt 0.556274 0.478504
vt 0.625000 0.486520
vt 0.625000 0.478504
vt 0.625000 0.478504
vt 0.556274 0.486520
vt 0.556274 0.478504
vt 0.625000 0.478504
vt 0.556274 0.416667
vt 0.625000 0.416667
vt 0.625000 0.416667
vt 0.625000 0.416667
vt 0.556274 0.478504
vt 0.556274 0.486520
vt 0.625000 0.478504
vt 0.625000 0.416667
vt 0.556274 0.500000
vt 0.556098 0.500000
vt 0.556274 0.487153
vt 0.556274 0.487153
vt 0.556450 0.500000
vt 0.625000 0.486520
vt 0.625000 0.500000
vt 0.625000 0.487153
vt 0.624824 0.500000
vt 0.625176 0.500000
vt 0.625000 0.487153
vt 0.556274 0.416667
vt 0.556274 0.416667
vt 0.556274 0.500000
vt 0.625000 0.500000
vt 0.625000 0.416667
vt 0.556274 0.750000
vt 0.625000 0.750000
vt 0.291667 0.500000
vt 0.291667 0.750000
vt 0.375000 0.750000
vt 0.375000 0.500000
vt 0.465637 0.500000
vt 0.465637 0.750000
vt 0.556274 0.750000
vt 0.556274 0.500000
vt 0.465637 0.416667
vt 0.556274 0.416667
vt 0.465637 0.833333
vt 0.556274 0.833333
vt 0.708333 0.750000
vt 0.708333 0.500000
vt 0.625000 0.833333
vt 0.375000 0.833333
vt 0.465637 0.750000
vt 0.375000 0.416667
vt 0.465637 0.500000
vt 0.465637 0.416667
vt 0.375000 0.833333
vt 0.375000 0.833333
vt 0.379532 0.833333
vt 0.379532 0.833333
vt 0.375000 0.833333
vt 0.375000 0.833333
vt 0.379532 0.833333
vt 0.379532 0.833333
vt 0.375000 0.833333
vt 0.375000 0.833333
vt 0.379532 0.833333
vt 0.379532 0.833333
vt 0.375000 0.833333
vt 0.375000 0.833333
vt 0.379532 0.833333
vt 0.379532 0.833333
vt 0.375000 0.833333
vt 0.375000 0.833333
vt 0.379532 0.833333
vt 0.379532 0.833333
vt 0.375000 0.833333
vt 0.375000 0.833333
vt 0.379532 0.833333
vt 0.379532 0.833333
vt 0.375000 0.833333
vt 0.375000 0.833333
vt 0.379532 0.833333
vt 0.379532 0.833333
vt 0.375000 0.833333
vt 0.375000 0.833333
vt 0.379532 0.833333
vt 0.379532 0.833333
vt 0.375000 0.833333
vt 0.375000 0.833333
vt 0.379532 0.833333
vt 0.379532 0.833333
vt 0.375000 0.833333
vt 0.375000 0.833333
vt 0.379532 0.833333
vt 0.379532 0.833333
vt 0.375000 0.833333
vt 0.375000 0.833333
vt 0.379532 0.833333
vt 0.379532 0.833333
vt 0.556274 0.486520
vt 0.625000 0.486520
vt 0.625000 0.500000
vt 0.556274 0.500000
vt 0.556274 0.486520
vt 0.556274 0.500000
vt 0.625000 0.500000
vt 0.625000 0.486520
vt 0.625000 0.500000
vt 0.556274 0.500000
vt 0.556274 0.478504
vt 0.556274 0.478504
vt 0.625000 0.486520
vt 0.625000 0.478504
vt 0.625000 0.478504
vt 0.556274 0.486520
vt 0.556274 0.478504
vt 0.625000 0.478504
vt 0.556274 0.486520
vt 0.556274 0.478504
vt 0.625000 0.478504
vt 0.556274 0.500000
vt 0.556098 0.500000
vt 0.556450 0.500000
vt 0.556274 0.487153
vt 0.556274 0.487153
vt 0.625000 0.486520
vt 0.625000 0.500000
vt 0.625000 0.487153
vt 0.625000 0.487153
vt 0.625176 0.500000
vt 0.624824 0.500000
vn 0.0000 -0.7071 -0.7071
vn 1.0000 0.0000 0.0000
vn 0.0000 -1.0000 0.0000
vn 0.0000 0.7071 0.7071
vn 0.0000 1.0000 0.0000
vn 0.0000 0.2187 0.9758
vn 0.0000 -0.4472 -0.8944
vn -1.0000 0.0000 0.0000
vn -0.4251 0.6400 0.6400
vn 0.0000 -0.9970 -0.0778
vn -0.0000 0.9970 0.0778
vn 0.8193 0.5733 0.0000
vn 0.8193 -0.5734 0.0000
vn -0.0086 -0.8680 -0.4965
vn -0.0036 0.3661 0.9306
vn -0.0036 -0.3661 -0.9306
vn -0.0086 0.8680 0.4965
vn 0.9887 -0.1059 -0.1059
vn 0.9887 0.1059 0.1059
vn 0.4251 0.6400 0.6400
vn -0.8193 0.5733 0.0000
vn -0.8193 -0.5734 0.0000
vn 0.0086 -0.8680 -0.4965
vn 0.0036 0.3661 0.9306
vn 0.0036 -0.3661 -0.9306
vn 0.0086 0.8680 0.4965
vn -0.9887 -0.1059 -0.1059
vn -0.9887 0.1059 0.1059
g AtticStairs_Cube.022_Mat3
usemtl Mat3
s off
f 22/1/1 8/2/1 4/3/1 20/4/1
f 20/4/2 4/3/2 2/5/2 21/6/2
f 7/7/3 3/8/3 1/9/3 9/10/3
f 19/11/2 5/12/2 6/13/2 17/14/2
f 18/15/1 12/16/1 5/12/1 19/11/1
f 17/14/4 6/13/4 11/17/4 16/18/4
f 4/3/5 8/19/5 10/20/5 2/5/5
f 21/6/4 2/5/4 10/21/4 11/17/4
f 1/9/4 14/22/4 16/18/4 9/23/4
f 7/24/1 15/25/1 13/26/1 3/8/1
f 3/8/2 13/26/2 14/22/2 1/9/2
f 23/27/2 24/28/2 26/29/2 25/30/2
f 205/31/3 23/27/3 25/30/3 207/32/3
f 27/33/2 28/34/2 30/35/2 29/36/2
f 193/37/3 27/33/3 29/36/3 195/38/3
f 31/39/2 32/40/2 34/41/2 33/42/2
f 201/43/3 31/39/3 33/42/3 203/44/3
f 35/45/2 36/46/2 38/47/2 37/48/2
f 197/49/3 35/45/3 37/48/3 199/50/3
f 39/51/2 40/52/2 42/53/2 41/54/2
f 189/55/3 39/51/3 41/54/3 191/56/3
f 43/57/2 44/58/2 46/59/2 45/60/2
f 185/61/3 43/57/3 45/60/3 187/62/3
f 47/63/2 48/64/2 50/65/2 49/66/2
f 181/67/3 47/63/3 49/66/3 183/68/3
f 51/69/2 52/70/2 54/71/2 53/72/2
f 177/73/3 51/69/3 53/72/3 179/74/3
f 55/75/2 56/76/2 58/77/2 57/78/2
f 173/79/3 55/75/3 57/78/3 175/80/3
f 59/81/2 60/82/2 62/83/2 61/84/2
f 169/85/3 59/81/3 61/84/3 171/86/3
f 63/87/2 64/88/2 66/89/2 65/90/2
f 165/91/3 63/87/3 65/90/3 167/92/3
f 64/88/5 166/93/5 168/94/5 66/89/5
f 65/90/6 66/89/6 168/94/6 167/92/6
f 63/87/7 165/91/7 166/93/7 64/88/7
f 60/82/5 170/95/5 172/96/5 62/83/5
f 61/84/6 62/83/6 172/96/6 171/86/6
f 59/81/7 169/85/7 170/95/7 60/82/7
f 56/76/5 174/97/5 176/98/5 58/77/5
f 57/78/6 58/77/6 176/98/6 175/80/6
f 55/75/7 173/79/7 174/97/7 56/76/7
f 52/70/5 178/99/5 180/100/5 54/71/5
f 53/72/6 54/71/6 180/100/6 179/74/6
f 51/69/7 177/73/7 178/99/7 52/70/7
f 48/64/5 182/101/5 184/102/5 50/65/5
f 49/66/6 50/65/6 184/102/6 183/68/6
f 47/63/7 181/67/7 182/101/7 48/64/7
f 44/58/5 186/103/5 188/104/5 46/59/5
f 45/60/6 46/59/6 188/104/6 187/62/6
f 43/57/7 185/61/7 186/103/7 44/58/7
f 40/52/5 190/105/5 192/106/5 42/53/5
f 41/54/6 42/53/6 192/106/6 191/56/6
f 39/51/7 189/55/7 190/105/7 40/52/7
f 28/34/5 194/107/5 196/108/5 30/35/5
f 29/36/6 30/35/6 196/108/6 195/38/6
f 27/33/7 193/37/7 194/107/7 28/34/7
f 36/46/5 198/109/5 200/110/5 38/47/5
f 37/48/6 38/47/6 200/110/6 199/50/6
f 35/45/7 197/49/7 198/109/7 36/46/7
f 32/40/5 202/111/5 204/112/5 34/41/5
f 33/42/6 34/41/6 204/112/6 203/44/6
f 31/39/7 201/43/7 202/111/7 32/40/7
f 24/28/5 206/113/5 208/114/5 26/29/5
f 25/30/6 26/29/6 208/114/6 207/32/6
f 23/27/7 205/31/7 206/113/7 24/28/7
f 8/2/8 22/1/8 11/17/8 10/21/8
f 6/13/5 5/12/5 12/16/5 11/17/5
f 18/15/8 16/18/8 11/17/8 12/16/8
f 13/26/5 15/25/5 16/18/5 14/22/5
f 7/7/8 9/10/8 16/18/8 15/25/8
f 72/115/4 68/116/4 67/117/4 71/118/4
f 74/119/1 73/120/1 69/121/1 70/122/1
f 98/123/2 96/124/2 70/122/2 69/121/2
f 90/125/3 232/126/3 218/127/3 78/128/3
f 92/129/5 98/123/5 69/121/5 73/120/5
f 88/130/5 92/129/5 73/120/5 77/131/5
f 96/124/3 94/132/3 74/119/3 70/122/3
f 78/128/1 77/131/1 73/120/1 74/119/1
f 76/133/9 72/115/9 71/118/9 75/134/9
f 214/135/4 76/133/4 75/134/4 212/136/4
f 218/127/1 215/137/1 77/131/1 78/128/1
f 233/138/5 88/130/5 77/131/5 215/137/5
f 94/132/3 90/125/3 78/128/3 74/119/3
f 72/115/3 76/133/3 89/139/3 93/140/3
f 93/140/3 89/139/3 90/125/3 94/132/3
f 212/136/5 75/134/5 87/141/5 234/142/5
f 234/142/5 87/141/5 88/130/5 233/138/5
f 68/116/3 72/115/3 93/140/3 95/143/3
f 79/144/10 85/145/10 86/146/10 80/147/10
f 75/134/5 71/118/5 91/148/5 87/141/5
f 87/141/5 91/148/5 92/129/5 88/130/5
f 71/118/5 67/117/5 97/149/5 91/148/5
f 83/150/11 82/151/11 81/152/11 84/153/11
f 76/133/3 214/135/3 231/154/3 89/139/3
f 89/139/3 231/154/3 232/126/3 90/125/3
f 67/117/2 68/116/2 95/143/2 97/149/2
f 82/151/2 79/144/2 80/147/2 81/152/2
f 83/150/12 84/153/12 92/129/12 91/148/12
f 86/146/13 85/145/13 93/140/13 94/132/13
f 85/145/14 79/144/14 95/143/14 93/140/14
f 80/147/15 86/146/15 94/132/15 96/124/15
f 82/151/16 83/150/16 91/148/16 97/149/16
f 84/153/17 81/152/17 98/123/17 92/129/17
f 79/144/18 82/151/18 97/149/18 95/143/18
f 81/152/19 80/147/19 96/124/19 98/123/19
f 120/155/1 118/156/1 102/157/1 106/158/1
f 118/156/8 119/159/8 100/160/8 102/157/8
f 105/161/3 107/162/3 99/163/3 101/164/3
f 117/165/8 115/166/8 104/167/8 103/168/8
f 116/169/1 117/165/1 103/168/1 110/170/1
f 115/166/4 114/171/4 109/172/4 104/167/4
f 102/157/5 100/160/5 108/173/5 106/174/5
f 119/159/4 109/172/4 108/175/4 100/160/4
f 99/163/4 107/176/4 114/171/4 112/177/4
f 105/178/1 101/164/1 111/179/1 113/180/1
f 101/164/8 99/163/8 112/177/8 111/179/8
f 121/181/8 123/182/8 124/183/8 122/184/8
f 205/31/3 207/32/3 123/182/3 121/181/3
f 125/185/8 127/186/8 128/187/8 126/188/8
f 193/37/3 195/38/3 127/186/3 125/185/3
f 129/189/8 131/190/8 132/191/8 130/192/8
f 201/43/3 203/44/3 131/190/3 129/189/3
f 133/193/8 135/194/8 136/195/8 134/196/8
f 197/49/3 199/50/3 135/194/3 133/193/3
f 137/197/8 139/198/8 140/199/8 138/200/8
f 189/55/3 191/56/3 139/198/3 137/197/3
f 141/201/8 143/202/8 144/203/8 142/204/8
f 185/61/3 187/62/3 143/202/3 141/201/3
f 145/205/8 147/206/8 148/207/8 146/208/8
f 181/67/3 183/68/3 147/206/3 145/205/3
f 149/209/8 151/210/8 152/211/8 150/212/8
f 177/73/3 179/74/3 151/210/3 149/209/3
f 153/213/8 155/214/8 156/215/8 154/216/8
f 173/79/3 175/80/3 155/214/3 153/213/3
f 157/217/8 159/218/8 160/219/8 158/220/8
f 169/85/3 171/86/3 159/218/3 157/217/3
f 161/221/8 163/222/8 164/223/8 162/224/8
f 165/91/3 167/92/3 163/222/3 161/221/3
f 162/224/5 164/223/5 168/94/5 166/93/5
f 163/222/6 167/92/6 168/94/6 164/223/6
f 161/221/7 162/224/7 166/93/7 165/91/7
f 158/220/5 160/219/5 172/96/5 170/95/5
f 159/218/6 171/86/6 172/96/6 160/219/6
f 157/217/7 158/220/7 170/95/7 169/85/7
f 154/216/5 156/215/5 176/98/5 174/97/5
f 155/214/6 175/80/6 176/98/6 156/215/6
f 153/213/7 154/216/7 174/97/7 173/79/7
f 150/212/5 152/211/5 180/100/5 178/99/5
f 151/210/6 179/74/6 180/100/6 152/211/6
f 149/209/7 150/212/7 178/99/7 177/73/7
f 146/208/5 148/207/5 184/102/5 182/101/5
f 147/206/6 183/68/6 184/102/6 148/207/6
f 145/205/7 146/208/7 182/101/7 181/67/7
f 142/204/5 144/203/5 188/104/5 186/103/5
f 143/202/6 187/62/6 188/104/6 144/203/6
f 141/201/7 142/204/7 186/103/7 185/61/7
f 138/200/5 140/199/5 192/106/5 190/105/5
f 139/198/6 191/56/6 192/106/6 140/199/6
f 137/197/7 138/200/7 190/105/7 189/55/7
f 126/188/5 128/187/5 196/108/5 194/107/5
f 127/186/6 195/38/6 196/108/6 128/187/6
f 125/185/7 126/188/7 194/107/7 193/37/7
f 134/196/5 136/195/5 200/110/5 198/109/5
f 135/194/6 199/50/6 200/110/6 136/195/6
f 133/193/7 134/196/7 198/109/7 197/49/7
f 130/192/5 132/191/5 204/112/5 202/111/5
f 131/190/6 203/44/6 204/112/6 132/191/6
f 129/189/7 130/192/7 202/111/7 201/43/7
f 122/184/5 124/183/5 208/114/5 206/113/5
f 123/182/6 207/32/6 208/114/6 124/183/6
f 121/181/7 122/184/7 206/113/7 205/31/7
f 106/158/2 108/175/2 109/172/2 120/155/2
f 104/167/5 109/172/5 110/170/5 103/168/5
f 116/169/2 110/170/2 109/172/2 114/171/2
f 111/179/5 112/177/5 114/171/5 113/180/5
f 105/161/2 113/180/2 114/171/2 107/162/2
f 220/225/4 219/226/4 211/227/4 213/228/4
f 222/229/1 217/230/1 216/231/1 221/232/1
f 250/233/8 216/231/8 217/230/8 248/234/8
f 242/235/3 226/236/3 218/127/3 232/126/3
f 244/237/5 221/232/5 216/231/5 250/233/5
f 240/238/5 225/239/5 221/232/5 244/237/5
f 248/234/3 217/230/3 222/229/3 246/240/3
f 226/236/1 222/229/1 221/232/1 225/239/1
f 224/241/20 223/242/20 219/226/20 220/225/20
f 214/135/4 212/136/4 223/242/4 224/241/4
f 218/127/1 226/236/1 225/239/1 215/137/1
f 233/138/5 215/137/5 225/239/5 240/238/5
f 246/240/3 222/229/3 226/236/3 242/235/3
f 220/225/3 245/243/3 241/244/3 224/241/3
f 245/243/3 246/240/3 242/235/3 241/244/3
f 212/136/5 234/142/5 239/245/5 223/242/5
f 234/142/5 233/138/5 240/238/5 239/245/5
f 213/228/3 247/246/3 245/243/3 220/225/3
f 227/247/10 228/248/10 238/249/10 237/250/10
f 223/242/5 239/245/5 243/251/5 219/226/5
f 239/245/5 240/238/5 244/237/5 243/251/5
f 219/226/5 243/251/5 249/252/5 211/227/5
f 235/253/11 236/254/11 229/255/11 230/256/11
f 224/241/3 241/244/3 231/154/3 214/135/3
f 241/244/3 242/235/3 232/126/3 231/154/3
f 211/227/8 249/252/8 247/246/8 213/228/8
f 230/256/8 229/255/8 228/248/8 227/247/8
f 235/253/21 243/251/21 244/237/21 236/254/21
f 238/249/22 246/240/22 245/243/22 237/250/22
f 237/250/23 245/243/23 247/246/23 227/247/23
f 228/248/24 248/234/24 246/240/24 238/249/24
f 230/256/25 249/252/25 243/251/25 235/253/25
f 236/254/26 244/237/26 250/233/26 229/255/26
f 227/247/27 247/246/27 249/252/27 230/256/27
f 229/255/28 250/233/28 248/234/28 228/248/28
l 16 209
l 11 210
l 114 209
l 109 210
