# Blender v2.83.1 OBJ File: 'EgoObjects.blend'
# www.blender.org
mtllib Lamp.mtl
o Lamp_Circle.002
v 0.000000 0.014093 -0.234437
v -0.203029 0.014093 -0.117219
v -0.203029 0.014093 0.117219
v 0.000000 0.014093 0.234437
v 0.203029 0.014093 0.117219
v 0.203029 0.014093 -0.117219
v 0.000000 0.130723 -0.404790
v -0.350559 0.130723 -0.202395
v -0.350559 0.130723 0.202395
v 0.000000 0.130723 0.404790
v 0.350559 0.130723 0.202395
v 0.350559 0.130723 -0.202395
v 0.000000 0.610200 -0.291177
v -0.252167 0.610200 -0.145588
v -0.252167 0.610200 0.145589
v 0.000000 0.610200 0.291177
v 0.252167 0.610200 0.145589
v 0.252167 0.610200 -0.145588
v 0.004078 0.827261 -0.094144
v -0.077452 0.827261 -0.047072
v -0.077452 0.827261 0.047072
v 0.004078 0.827261 0.094144
v 0.085609 0.827261 0.047072
v 0.085609 0.827261 -0.047072
v 0.004078 1.235465 -0.094144
v -0.077452 1.235465 -0.047072
v -0.077452 1.235465 0.047072
v 0.004078 1.235465 0.094144
v 0.085609 1.235465 0.047072
v 0.085609 1.235465 -0.047072
v 0.004078 1.277581 -0.151165
v -0.126835 1.277581 -0.075583
v -0.126835 1.277581 0.075583
v 0.004078 1.277581 0.151166
v 0.134991 1.277581 0.075583
v 0.134991 1.277581 -0.075583
v 0.004078 1.329417 -0.068435
v -0.055188 1.329417 -0.034217
v -0.055188 1.329417 0.034217
v 0.004078 1.329417 0.068435
v 0.063345 1.329417 0.034217
v 0.063345 1.329417 -0.034217
v 0.004078 1.040279 -0.624133
v -0.536437 1.040279 -0.312067
v -0.536437 1.040279 0.312067
v 0.004078 1.040279 0.624134
v 0.544594 1.040279 0.312067
v 0.544594 1.040279 -0.312067
v 0.004078 1.791520 -0.397924
v -0.340534 1.791520 -0.198962
v -0.340534 1.791520 0.198962
v 0.004078 1.791520 0.397924
v 0.348690 1.791520 0.198962
v 0.348690 1.791520 -0.198962
v 0.004078 1.346290 -0.068435
v -0.055188 1.346290 -0.034217
v -0.055188 1.346290 0.034217
v 0.004078 1.346290 0.068435
v 0.063345 1.346290 0.034217
v 0.063345 1.346290 -0.034217
v -0.055188 1.383787 -0.034217
v 0.004078 1.383787 -0.068435
v -0.055188 1.383787 0.034217
v 0.004078 1.383787 0.068435
v 0.063345 1.383787 0.034217
v 0.063345 1.383787 -0.034217
v -0.055188 1.447531 -0.034217
v 0.004078 1.447531 -0.068435
v -0.055188 1.447531 0.034217
v 0.004078 1.447531 0.068435
v 0.063345 1.447531 0.034217
v 0.063345 1.447531 -0.034217
v -0.080802 1.456906 -0.049006
v 0.004078 1.456906 -0.098011
v -0.080802 1.456906 0.049006
v 0.004078 1.456906 0.098011
v 0.088959 1.456906 0.049006
v 0.088959 1.456906 -0.049006
v -0.096391 1.545023 -0.064664
v 0.004078 1.545023 -0.129329
v -0.096391 1.545023 0.064664
v 0.004078 1.545023 0.129329
v 0.104548 1.545023 0.064664
v 0.104548 1.545023 -0.064664
v -0.070176 1.644389 -0.042871
v 0.004078 1.644389 -0.085742
v -0.070176 1.644389 0.042871
v 0.004078 1.644389 0.085742
v 0.078333 1.644389 0.042871
v 0.078333 1.644389 -0.042871
v -0.055188 1.346290 0.000000
v 0.063345 1.346290 0.000000
v 0.004078 1.346290 0.000000
v -0.055188 1.383787 0.000000
v 0.063345 1.383787 0.000000
v -0.055188 1.447531 0.000000
v 0.063345 1.447531 0.000000
v -0.080802 1.456906 0.000000
v 0.088959 1.456906 0.000000
v -0.128520 1.545781 0.000000
v 0.136677 1.545781 0.000000
v -0.078979 1.667238 0.000000
v 0.087135 1.667238 0.000000
v 0.004078 1.700994 0.000000
vt 0.001508 0.245215
vt 0.440191 0.000093
vt 0.457347 0.400487
vt 0.354764 0.427311
vt 0.434944 0.999907
vt 0.000093 0.747638
vt 0.334768 0.529465
vt 0.415477 0.599863
vt 0.871954 0.248312
vt 0.871954 0.750872
vt 0.517651 0.568083
vt 0.540684 0.466686
vt 0.244448 0.827252
vt 0.234764 0.732585
vt 0.274607 0.725472
vt 0.280742 0.834510
vt 0.213933 0.628329
vt 0.172068 0.545108
vt 0.205215 0.525259
vt 0.248706 0.619386
vt 0.231445 0.951030
vt 0.380864 0.837973
vt 0.371068 0.999926
vt 0.254267 0.673076
vt 0.335513 0.583523
vt 0.358966 0.647273
vt 0.047770 0.443334
vt 0.000074 0.410062
vt 0.007658 0.358134
vt 0.070853 0.405284
vt 0.217621 0.680770
vt 0.204670 0.915998
vt 0.100681 0.472469
vt 0.129618 0.439155
vt 0.369383 0.715505
vt 0.507677 0.684228
vt 0.535494 0.823410
vt 0.286545 0.475862
vt 0.427648 0.398523
vt 0.472550 0.541813
vt 0.211703 0.368764
vt 0.085280 0.228418
vt 0.161018 0.302518
vt 0.502038 0.065981
vt 0.545518 0.136670
vt 0.478469 0.263353
vt 0.396223 0.138797
vt 0.301697 0.203939
vt 0.246977 0.146647
vt 0.309185 0.017366
vt 0.521132 0.605391
vt 0.545519 0.967836
vt 0.335673 0.275169
vt 0.451559 0.000074
vt 0.601290 0.718798
vt 0.526152 0.691703
vt 0.537436 0.639686
vt 0.650325 0.668368
vt 0.287275 0.702758
vt 0.191097 0.711502
vt 0.189861 0.632023
vt 0.290341 0.635457
vt 0.451407 0.690728
vt 0.455114 0.635429
vt 0.080183 0.735991
vt 0.027204 0.639681
vt 0.372972 0.696100
vt 0.375615 0.635973
vt 0.443047 0.525279
vt 0.521542 0.512566
vt 0.114407 0.448882
vt 0.209395 0.499039
vt 0.293617 0.519735
vt 0.371038 0.527031
vt 0.634900 0.471093
vt 0.372679 0.385697
vt 0.427011 0.390619
vt 0.478613 0.375351
vt 0.526966 0.357078
vt 0.267311 0.372537
vt 0.320598 0.376271
vt 0.219381 0.355742
vt 0.426675 0.151730
vt 0.468354 0.148122
vt 0.244416 0.135417
vt 0.296866 0.144104
vt 0.341935 0.149769
vt 0.384519 0.152358
vt 0.515493 0.149419
vt 0.386415 0.126310
vt 0.426686 0.126245
vt 0.468176 0.124256
vt 0.531186 0.120623
vt 0.305683 0.112734
vt 0.346600 0.122574
vt 0.241054 0.088591
vt 0.425575 0.083834
vt 0.462868 0.077363
vt 0.286836 0.058542
vt 0.319512 0.078686
vt 0.353885 0.084792
vt 0.389315 0.086153
vt 0.503056 0.064536
vt 0.401325 0.054773
vt 0.475910 0.041832
vt 0.307614 0.045866
vt 0.376359 0.058078
vt 0.395847 0.564739
vt 0.443829 0.500000
vt 0.512541 0.552221
vt 0.436308 0.585192
vt 0.491812 0.435261
vt 0.375118 0.447779
vt 0.451351 0.414808
vt 0.307601 0.408477
vt 0.294035 0.566846
vt 0.000094 0.752889
vt 0.000094 0.236629
vt 0.438992 0.659945
vt 0.580058 0.591523
vt 0.887565 0.763372
vt 0.433786 0.999906
vt 0.362497 0.531270
vt 0.448667 0.340055
vt 0.534403 0.368603
vt 0.353256 0.631397
vt 0.525162 0.468730
vt 0.593624 0.433154
vt 0.453873 0.000094
vt 0.700182 0.070486
vt 0.187477 0.929514
vt 0.887565 0.247111
vt 0.562680 0.756922
vt 0.413189 0.754971
vt 0.342937 0.781679
vt 0.150580 0.799168
vn 0.9676 0.2523 0.0000
vn -0.4838 0.2523 0.8380
vn -0.4838 0.2523 -0.8380
vn 0.4838 0.2523 -0.8380
vn 0.4838 0.2523 0.8380
vn -0.9676 0.2523 0.0000
vn 0.1718 -0.9391 0.2976
vn 0.1718 -0.9391 -0.2976
vn -0.5043 -0.2638 0.8223
vn 0.9036 -0.3456 -0.2531
vn -0.3437 -0.9391 0.0000
vn 0.3437 -0.9391 0.0000
vn -0.1718 -0.9391 0.2976
vn -0.1718 -0.9391 -0.2976
vn 0.4948 0.3298 0.8040
vn 0.4948 0.3298 -0.8040
vn -0.5043 -0.2638 -0.8223
vn 0.5043 -0.2638 -0.8223
vn 0.5043 -0.2638 0.8223
vn -0.9036 -0.3456 0.2531
vn 0.3117 0.7987 -0.5147
vn -0.3117 0.7987 0.5147
vn -0.8548 0.3326 0.3984
vn 0.8548 0.3326 -0.3984
vn -0.4948 0.3298 0.8040
vn -0.4948 0.3298 -0.8040
vn 0.8548 0.3326 0.3984
vn -0.8548 0.3326 -0.3984
vn -0.3117 0.7987 -0.5147
vn 0.3117 0.7987 0.5147
vn -0.9036 -0.3456 -0.2531
vn 0.9036 -0.3456 0.2531
vn 0.3101 -0.7845 0.5371
vn -0.6202 -0.7845 0.0000
vn 0.6202 -0.7845 0.0000
vn -0.3101 -0.7845 0.5371
vn -0.3101 -0.7845 -0.5371
vn 0.3101 -0.7845 -0.5371
vn 0.9796 0.2010 0.0000
vn -0.4898 0.2010 0.8483
vn -0.4898 0.2010 -0.8483
vn 0.4898 0.2010 -0.8483
vn 0.4898 0.2010 0.8483
vn -0.9796 0.2010 0.0000
vn 0.3949 0.6134 -0.6839
vn 0.3949 0.6134 0.6839
vn -0.7790 0.6270 0.0000
vn 0.7934 0.6088 0.0000
vn -0.3913 0.6226 0.6777
vn -0.3913 0.6226 -0.6777
vn 1.0000 0.0000 0.0000
vn -0.5000 0.0000 0.8660
vn -0.5000 0.0000 -0.8660
vn 0.5000 0.0000 -0.8660
vn 0.5000 0.0000 0.8660
vn -1.0000 0.0000 0.0000
vn 0.3245 -0.7609 -0.5620
vn 0.3245 -0.7609 0.5620
vn -0.6489 -0.7609 0.0000
vn 0.6489 -0.7609 0.0000
vn -0.3245 -0.7609 0.5620
vn -0.3245 -0.7609 -0.5620
vn 0.5862 0.8102 0.0000
vn -0.2931 0.8102 0.5076
vn -0.2931 0.8102 -0.5076
vn 0.2931 0.8102 -0.5076
vn 0.2931 0.8102 0.5076
vn -0.5862 0.8102 -0.0000
vn 0.0000 1.0000 0.0000
vn 0.0000 -1.0000 0.0000
g Lamp_Circle.002_Mat2
usemtl Mat2
s off
f 47/1/1 48/2/1 54/3/1 53/4/1
f 45/5/2 46/6/2 52/7/2 51/8/2
f 43/9/3 44/10/3 50/11/3 49/12/3
f 48/2/4 43/9/4 49/12/4 54/3/4
f 46/6/5 47/1/5 53/4/5 52/7/5
f 44/10/6 45/5/6 51/8/6 50/11/6
g Lamp_Circle.002_Mat3
usemtl Mat3
f 70/13/7 71/14/7 77/15/7 76/16/7
f 72/17/8 68/18/8 74/19/8 78/20/8
f 75/21/9 76/16/9 82/22/9 81/23/9
f 99/24/10 78/20/10 84/25/10 101/26/10
f 96/27/11 69/28/11 75/29/11 98/30/11
f 97/31/12 72/17/12 78/20/12 99/24/12
f 69/32/13 70/13/13 76/16/13 75/21/13
f 68/18/14 67/33/14 73/34/14 74/19/14
f 82/22/15 83/35/15 89/36/15 88/37/15
f 84/25/16 80/38/16 86/39/16 90/40/16
f 74/19/17 73/34/17 79/41/17 80/38/17
f 78/20/18 74/19/18 80/38/18 84/25/18
f 76/16/19 77/15/19 83/35/19 82/22/19
f 98/30/20 75/29/20 81/42/20 100/43/20
f 103/44/21 90/45/21 86/46/21 104/47/21
f 102/48/22 87/49/22 88/50/22 104/47/22
f 100/43/23 81/42/23 87/49/23 102/48/23
f 101/26/24 84/25/24 90/40/24 103/51/24
f 81/23/25 82/22/25 88/37/25 87/52/25
f 80/38/26 79/41/26 85/53/26 86/39/26
f 83/35/27 101/26/27 103/51/27 89/36/27
f 79/41/28 100/43/28 102/48/28 85/53/28
f 85/53/29 102/48/29 104/47/29 86/46/29
f 89/54/30 103/44/30 104/47/30 88/50/30
f 73/34/31 98/30/31 100/43/31 79/41/31
f 71/14/12 97/31/12 99/24/12 77/15/12
f 67/33/11 96/27/11 98/30/11 73/34/11
f 77/15/32 99/24/32 101/26/32 83/35/32
g Lamp_Circle.002_Mat4
usemtl Mat4
f 4/55/33 5/56/33 11/57/33 10/58/33
f 2/59/34 3/60/34 9/61/34 8/62/34
f 5/56/35 6/63/35 12/64/35 11/57/35
f 3/60/36 4/65/36 10/66/36 9/61/36
f 1/67/37 2/59/37 8/62/37 7/68/37
f 6/63/38 1/67/38 7/68/38 12/64/38
f 11/57/39 12/64/39 18/69/39 17/70/39
f 9/61/40 10/66/40 16/71/40 15/72/40
f 7/68/41 8/62/41 14/73/41 13/74/41
f 12/64/42 7/68/42 13/74/42 18/69/42
f 10/58/43 11/57/43 17/70/43 16/75/43
f 8/62/44 9/61/44 15/72/44 14/73/44
f 18/69/45 13/74/45 19/76/45 24/77/45
f 16/75/46 17/70/46 23/78/46 22/79/46
f 14/73/47 15/72/47 21/80/47 20/81/47
f 17/70/48 18/69/48 24/77/48 23/78/48
f 15/72/49 16/71/49 22/82/49 21/80/49
f 13/74/50 14/73/50 20/81/50 19/76/50
f 23/78/51 24/77/51 30/83/51 29/84/51
f 21/80/52 22/82/52 28/85/52 27/86/52
f 19/76/53 20/81/53 26/87/53 25/88/53
f 24/77/54 19/76/54 25/88/54 30/83/54
f 22/79/55 23/78/55 29/84/55 28/89/55
f 20/81/56 21/80/56 27/86/56 26/87/56
f 30/83/57 25/88/57 31/90/57 36/91/57
f 28/89/58 29/84/58 35/92/58 34/93/58
f 26/87/59 27/86/59 33/94/59 32/95/59
f 29/84/60 30/83/60 36/91/60 35/92/60
f 27/86/61 28/85/61 34/96/61 33/94/61
f 25/88/62 26/87/62 32/95/62 31/90/62
f 35/92/63 36/91/63 42/97/63 41/98/63
f 33/94/64 34/96/64 40/99/64 39/100/64
f 31/90/65 32/95/65 38/101/65 37/102/65
f 36/91/66 31/90/66 37/102/66 42/97/66
f 34/93/67 35/92/67 41/98/67 40/103/67
f 32/95/68 33/94/68 39/100/68 38/101/68
f 41/98/69 42/97/69 37/104/69 40/105/69
f 38/101/69 39/100/69 40/106/69 37/107/69
f 92/108/70 93/109/70 55/110/70 60/111/70
f 91/112/70 93/109/70 58/113/70 57/114/70
f 64/115/55 65/116/55 71/117/55 70/118/55
f 66/119/54 62/120/54 68/121/54 72/122/54
f 60/111/54 55/110/54 62/120/54 66/119/54
f 58/113/55 59/123/55 65/116/55 64/115/55
f 91/112/56 57/114/56 63/124/56 94/125/56
f 92/108/51 60/111/51 66/119/51 95/126/51
f 57/114/52 58/113/52 64/115/52 63/124/52
f 55/110/53 56/127/53 61/128/53 62/120/53
f 94/125/56 63/124/56 69/129/56 96/130/56
f 95/126/51 66/119/51 72/122/51 97/131/51
f 63/124/52 64/115/52 70/118/52 69/129/52
f 62/120/53 61/128/53 67/132/53 68/121/53
f 65/116/51 95/126/51 97/131/51 71/117/51
f 61/128/56 94/125/56 96/130/56 67/132/56
f 59/123/51 92/108/51 95/126/51 65/116/51
f 56/127/56 91/112/56 94/125/56 61/128/56
f 56/127/70 55/110/70 93/109/70 91/112/70
f 59/123/70 58/113/70 93/109/70 92/108/70
f 5/56/70 4/133/70 1/134/70 6/63/70
f 2/59/70 1/135/70 4/136/70 3/60/70
