# Blender v2.83.1 OBJ File: 'EgoObjects.blend'
# www.blender.org
mtllib Sink.mtl
o Sink_Cube.012
v 1.153703 0.018733 0.872118
v 1.153703 0.018733 -0.844850
v 1.153703 0.337510 -0.844850
v 1.153703 0.337510 0.872118
v 0.865797 0.337510 -0.630615
v 0.865797 0.337510 0.657883
v 0.695250 0.115390 -0.485093
v 0.695250 0.115390 0.512360
v 0.351188 0.018733 -0.844850
v 0.351188 0.018733 0.872118
v 0.351188 0.337510 -0.844850
v 0.351188 0.337510 0.872118
v 0.229038 0.115390 -0.485093
v 0.263549 0.337510 -0.630615
v 0.263549 0.337510 0.657883
v 0.229038 0.115390 0.512360
v 0.206448 0.388793 -0.811514
v 0.175045 0.388793 -0.663952
v 1.153703 0.018733 -0.450780
v 1.153703 0.337510 -0.450780
v 0.865797 0.337510 -0.334886
v 0.695250 0.115390 -0.256162
v 0.229038 0.115390 -0.256162
v 0.351188 0.018733 -0.450780
v 0.186586 0.066770 -0.442660
v 0.186586 0.066770 -0.298594
v 0.125509 0.918768 -0.633139
v 0.116989 0.814427 -0.528797
v 0.078178 0.913872 -0.294204
v 0.075873 0.819323 -0.294204
v -1.153703 0.018733 0.872118
v -1.153703 0.018733 -0.844850
v 0.000000 0.018733 -0.844850
v 0.000000 0.018733 0.872118
v 0.000000 0.337510 -0.844850
v -1.153703 0.337510 -0.844850
v -1.153703 0.337510 0.872118
v 0.000000 0.337510 0.872118
v 0.000000 0.337510 -0.630615
v -0.865797 0.337510 -0.630615
v -0.865797 0.337510 0.657883
v 0.000000 0.337510 0.657883
v 0.000000 0.115390 -0.485093
v -0.695250 0.115390 -0.485093
v -0.695250 0.115390 0.512360
v 0.000000 0.115390 0.512360
v -0.351188 0.018733 -0.844850
v -0.351188 0.018733 0.872118
v -0.351188 0.337510 -0.844850
v -0.351188 0.337510 0.872118
v -0.229038 0.115390 -0.485093
v -0.263549 0.337510 -0.630615
v -0.263549 0.337510 0.657883
v -0.229038 0.115390 0.512360
v 0.000000 0.388793 -0.811514
v 0.000000 0.388793 -0.663952
v -0.206448 0.388793 -0.811514
v -0.175045 0.388793 -0.663952
v -1.153703 0.018733 -0.450780
v 0.000000 0.018733 -0.450780
v -1.153703 0.337510 -0.450780
v -0.865797 0.337510 -0.334886
v -0.695250 0.115390 -0.256162
v 0.000000 0.115390 -0.256162
v -0.229038 0.115390 -0.256162
v -0.351188 0.018733 -0.450780
v 0.000000 0.066770 -0.298594
v 0.000000 0.066770 -0.442660
v -0.186586 0.066770 -0.442660
v -0.186586 0.066770 -0.298594
v 0.000000 0.918768 -0.633139
v 0.000000 0.814427 -0.528797
v -0.125509 0.918768 -0.633139
v -0.116989 0.814427 -0.528797
v 0.000000 0.913872 -0.294204
v 0.000000 0.819323 -0.294204
v -0.078178 0.913872 -0.294204
v -0.075873 0.819323 -0.294204
vt 0.711950 0.557379
vt 0.711950 0.750000
vt 0.750000 0.750000
vt 0.750000 0.557379
vt 0.711950 0.750000
vt 0.625000 0.750000
vt 0.625000 0.750000
vt 0.711950 0.750000
vt 0.625000 0.557379
vt 0.625000 0.500000
vt 0.625000 0.500000
vt 0.625000 0.557379
vt 0.625000 0.750000
vt 0.711950 0.500000
vt 0.750000 0.500000
vt 0.750000 0.500000
vt 0.711950 0.500000
vt 0.625000 0.750000
vt 0.711950 0.750000
vt 0.625000 0.500000
vt 0.625000 0.557379
vt 0.711950 0.557379
vt 0.750000 0.557379
vt 0.750000 0.750000
vt 0.711950 0.500000
vt 0.750000 0.500000
vt 0.750000 0.500000
vt 0.711950 0.500000
vt 0.625000 0.500000
vt 0.625000 0.557379
vt 0.750000 0.750000
vt 0.750000 0.750000
vt 0.711950 0.500000
vt 0.711950 0.557379
vt 0.750000 0.500000
vt 0.750000 0.557379
vt 0.711950 0.557379
vt 0.711950 0.750000
vt 0.711950 0.750000
vt 0.711950 0.750000
vt 0.625000 0.750000
vt 0.625000 0.750000
vt 0.625000 0.557379
vt 0.625000 0.557379
vt 0.625000 0.500000
vt 0.625000 0.500000
vt 0.625000 0.750000
vt 0.711950 0.500000
vt 0.711950 0.500000
vt 0.711950 0.750000
vt 0.625000 0.750000
vt 0.625000 0.557379
vt 0.625000 0.500000
vt 0.711950 0.557379
vt 0.711950 0.500000
vt 0.711950 0.500000
vt 0.625000 0.557379
vt 0.625000 0.500000
vt 0.711950 0.557379
vt 0.711950 0.500000
vt 0.711950 0.500000
vt 0.711950 0.500000
vt 0.711950 0.500000
vt 0.711950 0.500000
vt 0.750000 0.500000
vt 0.750000 0.500000
vt 0.750000 0.500000
vt 0.711950 0.500000
vt 0.750000 0.500000
vt 0.750000 0.500000
vt 0.711950 0.500000
vt 0.750000 0.500000
vt 0.711950 0.500000
vt 0.711950 0.500000
vt 0.711950 0.500000
vt 0.711950 0.500000
vt 0.711950 0.500000
vt 0.711950 0.500000
vn 0.0000 -1.0000 0.0000
vn 0.0000 1.0000 -0.0000
vn 1.0000 0.0000 0.0000
vn 0.0000 0.0000 1.0000
vn 0.0000 0.0000 -1.0000
vn 0.0000 0.5480 -0.8365
vn 0.0000 0.5480 0.8365
vn -0.7932 0.6090 0.0000
vn -0.7533 0.6577 0.0000
vn 0.0000 0.6575 0.7534
vn 0.0000 0.6575 -0.7534
vn -1.0000 0.0000 0.0000
vn 0.7932 0.6090 0.0000
vn 0.7533 0.6577 0.0000
vn 0.3991 0.9075 0.1313
vn 0.9788 0.0805 0.1885
vn 0.0000 0.5450 -0.8384
vn 0.0000 0.5450 0.8384
vn 0.0000 -0.9998 0.0209
vn 0.0000 0.3190 -0.9478
vn 0.0000 -0.3026 0.9531
vn 0.9880 0.0262 0.1524
vn 0.0000 0.9999 0.0144
vn -0.3991 0.9075 0.1313
vn -0.9788 0.0805 0.1885
vn -0.9880 0.0262 0.1524
g Sink_Cube.012_Mat2
usemtl Mat2
s off
f 24/1/1 10/2/1 34/3/1 60/4/1
f 12/5/2 4/6/2 6/7/2 15/8/2
f 19/9/3 2/10/3 3/11/3 20/12/3
f 10/2/4 1/13/4 4/6/4 12/5/4
f 9/14/5 33/15/5 35/16/5 11/17/5
f 15/8/6 6/7/6 8/18/6 16/19/6
f 20/12/2 3/11/2 5/20/2 21/21/2
f 23/22/2 64/23/2 46/24/2 16/19/2
f 14/25/7 39/26/7 43/27/7 13/28/7
f 21/21/8 5/20/8 7/29/8 22/30/8
f 5/20/7 14/25/7 13/28/7 7/29/7
f 22/30/2 23/22/2 16/19/2 8/18/2
f 3/11/2 11/17/2 14/25/2 5/20/2
f 42/31/6 15/8/6 16/19/6 46/24/6
f 2/10/5 9/14/5 11/17/5 3/11/5
f 34/3/4 10/2/4 12/5/4 38/32/4
f 38/32/2 12/5/2 15/8/2 42/31/2
f 19/9/1 1/13/1 10/2/1 24/1/1
f 2/10/1 19/9/1 24/1/1 9/14/1
f 7/29/2 13/28/2 23/22/2 22/30/2
f 6/7/8 21/21/8 22/30/8 8/18/8
f 23/22/9 13/28/9 25/33/9 26/34/9
f 4/6/2 20/12/2 21/21/2 6/7/2
f 1/13/3 19/9/3 20/12/3 4/6/3
f 9/14/1 24/1/1 60/4/1 33/15/1
f 25/33/2 68/35/2 67/36/2 26/34/2
f 13/28/10 43/27/10 68/35/10 25/33/10
f 64/23/11 23/22/11 26/34/11 67/36/11
f 66/37/1 60/4/1 34/3/1 48/38/1
f 50/39/2 53/40/2 41/41/2 37/42/2
f 59/43/12 61/44/12 36/45/12 32/46/12
f 48/38/4 50/39/4 37/42/4 31/47/4
f 47/48/5 49/49/5 35/16/5 33/15/5
f 53/40/6 54/50/6 45/51/6 41/41/6
f 61/44/2 62/52/2 40/53/2 36/45/2
f 65/54/2 54/50/2 46/24/2 64/23/2
f 52/55/7 51/56/7 43/27/7 39/26/7
f 62/52/13 63/57/13 44/58/13 40/53/13
f 40/53/7 44/58/7 51/56/7 52/55/7
f 63/57/2 45/51/2 54/50/2 65/54/2
f 36/45/2 40/53/2 52/55/2 49/49/2
f 42/31/6 46/24/6 54/50/6 53/40/6
f 32/46/5 36/45/5 49/49/5 47/48/5
f 34/3/4 38/32/4 50/39/4 48/38/4
f 38/32/2 42/31/2 53/40/2 50/39/2
f 59/43/1 66/37/1 48/38/1 31/47/1
f 32/46/1 47/48/1 66/37/1 59/43/1
f 44/58/2 63/57/2 65/54/2 51/56/2
f 41/41/13 45/51/13 63/57/13 62/52/13
f 65/54/14 70/59/14 69/60/14 51/56/14
f 37/42/2 41/41/2 62/52/2 61/44/2
f 31/47/12 37/42/12 61/44/12 59/43/12
f 47/48/1 33/15/1 60/4/1 66/37/1
f 69/60/2 70/59/2 67/36/2 68/35/2
f 51/56/10 69/60/10 68/35/10 43/27/10
f 64/23/11 67/36/11 70/59/11 65/54/11
g Sink_Cube.012_Mat4
usemtl Mat4
f 14/25/15 11/17/15 17/61/15 18/62/15
f 18/62/16 17/61/16 27/63/16 28/64/16
f 11/17/17 35/16/17 55/65/17 17/61/17
f 39/26/18 14/25/18 18/62/18 56/66/18
f 72/67/19 28/64/19 30/68/19 76/69/19
f 17/61/20 55/65/20 71/70/20 27/63/20
f 56/66/21 18/62/21 28/64/21 72/67/21
f 29/71/4 75/72/4 76/69/4 30/68/4
f 28/64/22 27/63/22 29/71/22 30/68/22
f 27/63/23 71/70/23 75/72/23 29/71/23
f 52/55/24 58/73/24 57/74/24 49/49/24
f 58/73/25 74/75/25 73/76/25 57/74/25
f 49/49/17 57/74/17 55/65/17 35/16/17
f 39/26/18 56/66/18 58/73/18 52/55/18
f 72/67/19 76/69/19 78/77/19 74/75/19
f 57/74/20 73/76/20 71/70/20 55/65/20
f 56/66/21 72/67/21 74/75/21 58/73/21
f 77/78/4 78/77/4 76/69/4 75/72/4
f 74/75/26 78/77/26 77/78/26 73/76/26
f 73/76/23 77/78/23 75/72/23 71/70/23
