# Blender v2.81 (sub 16) OBJ File: '2.blend'
# www.blender.org
mtllib 2.mtl
o Cube
v 0.103376 0.843776 -0.168531
v 0.036527 0.843776 -0.168531
v 0.103376 0.739330 0.168531
v 0.036527 0.739330 0.168531
v 0.103376 1.075757 -0.168531
v 0.036527 1.075757 -0.168531
v 0.103376 0.911176 0.168531
v 0.036527 0.911176 0.168531
v 0.042868 0.794482 0.324970
v 0.097034 0.794482 0.324970
v 0.097034 0.692687 0.324970
v 0.042868 0.692687 0.324970
v 0.042868 0.747896 0.497061
v 0.097034 0.747896 0.497061
v 0.097034 0.601799 0.497061
v 0.042868 0.601799 0.497061
v 0.042868 0.665590 0.638789
v 0.097034 0.665590 0.638789
v 0.097034 0.475214 0.638789
v 0.042868 0.475214 0.638789
v 0.036527 0.688492 -0.250708
v 0.036527 0.860341 -0.447192
v 0.103376 0.688492 -0.250708
v 0.103376 0.860341 -0.447192
v 0.036527 0.641327 -0.280252
v 0.036527 0.768422 -0.476736
v 0.103376 0.641327 -0.280252
v 0.103376 0.768422 -0.476736
v 0.036527 0.575473 -0.350441
v 0.036527 0.556046 -0.610750
v 0.103376 0.575473 -0.350441
v 0.103376 0.556046 -0.610750
v 0.036527 0.251489 -0.363430
v 0.036527 0.232062 -0.549402
v 0.103376 0.251489 -0.363430
v 0.103376 0.232062 -0.549402
v 0.036527 0.090668 -0.377106
v 0.036527 -0.059537 -0.488467
v 0.103376 0.090668 -0.377106
v 0.103376 -0.059537 -0.488467
v 0.036527 -0.033555 -0.216464
v 0.036527 -0.173512 -0.327825
v 0.103376 -0.033555 -0.216464
v 0.103376 -0.173512 -0.327825
v 0.036527 -0.061901 0.021146
v 0.036527 -0.201857 -0.090215
v 0.103376 -0.061901 0.021146
v 0.103376 -0.201857 -0.090215
v 0.036527 -0.178347 0.306272
v 0.036527 -0.318304 0.194911
v 0.103376 -0.178347 0.306272
v 0.103376 -0.318304 0.194911
v 0.036527 -0.491830 0.617381
v 0.036527 -0.450129 0.443455
v 0.103376 -0.491830 0.617381
v 0.103376 -0.450129 0.443455
v 0.036527 -0.606919 0.576187
v 0.036527 -0.565218 0.402261
v 0.103376 -0.606919 0.576187
v 0.103376 -0.565218 0.402261
v 0.103376 -0.438617 -0.129634
v 0.036527 -0.438617 -0.129634
v 0.103376 -0.553706 -0.170829
v 0.036527 -0.553706 -0.170829
v 0.103376 -0.341269 -0.541091
v 0.036527 -0.341269 -0.541091
v 0.103376 -0.456358 -0.582285
v 0.036527 -0.456358 -0.582285
v 0.103376 -0.382627 -0.758698
v 0.036527 -0.382627 -0.758698
v 0.103376 -0.497716 -0.799892
v 0.036527 -0.497716 -0.799892
vt 0.625000 0.500000
vt 0.875000 0.500000
vt 0.875000 0.750000
vt 0.625000 0.750000
vt 0.375000 0.000000
vt 0.625000 0.000000
vt 0.625000 0.250000
vt 0.375000 0.250000
vt 0.125000 0.500000
vt 0.375000 0.500000
vt 0.375000 0.750000
vt 0.125000 0.750000
vt 0.375000 0.000000
vt 0.625000 0.000000
vt 0.125000 0.500000
vt 0.375000 0.500000
vt 0.625000 0.750000
vt 0.875000 0.750000
vt 0.875000 0.750000
vt 0.625000 0.750000
vt 0.375000 0.750000
vt 0.125000 0.750000
vt 0.125000 0.750000
vt 0.375000 0.750000
vt 0.375000 0.750000
vt 0.125000 0.750000
vt 0.375000 0.000000
vt 0.625000 0.000000
vt 0.625000 0.000000
vt 0.625000 0.750000
vt 0.875000 0.750000
vt 0.375000 0.000000
vt 0.125000 0.500000
vt 0.375000 0.500000
vt 0.625000 0.500000
vt 0.875000 0.500000
vt 0.625000 0.250000
vt 0.375000 0.250000
vt 0.875000 0.500000
vt 0.625000 0.500000
vt 0.625000 0.500000
vt 0.875000 0.500000
vt 0.625000 0.250000
vt 0.375000 0.250000
vt 0.375000 0.250000
vt 0.625000 0.250000
vt 0.625000 0.250000
vt 0.375000 0.250000
vt 0.375000 0.500000
vt 0.125000 0.500000
vt 0.875000 0.500000
vt 0.625000 0.500000
vt 0.625000 0.500000
vt 0.875000 0.500000
vt 0.125000 0.500000
vt 0.375000 0.500000
vt 0.375000 0.500000
vt 0.375000 0.500000
vt 0.625000 0.500000
vt 0.625000 0.250000
vt 0.375000 0.250000
vt 0.125000 0.500000
vt 0.375000 0.250000
vt 0.625000 0.250000
vt 0.625000 0.250000
vt 0.375000 0.250000
vt 0.125000 0.500000
vt 0.875000 0.500000
vt 0.875000 0.500000
vt 0.625000 0.500000
vt 0.625000 0.500000
vt 0.875000 0.500000
vt 0.125000 0.500000
vt 0.375000 0.500000
vt 0.375000 0.250000
vt 0.625000 0.250000
vt 0.625000 0.250000
vt 0.375000 0.250000
vt 0.375000 0.500000
vt 0.125000 0.500000
vt 0.625000 0.250000
vt 0.375000 0.250000
vt 0.125000 0.500000
vt 0.375000 0.500000
vt 0.625000 0.500000
vt 0.875000 0.500000
vt 0.375000 0.250000
vt 0.875000 0.500000
vt 0.625000 0.500000
vt 0.375000 0.500000
vt 0.125000 0.500000
vt 0.875000 0.500000
vt 0.875000 0.500000
vt 0.875000 0.500000
vt 0.875000 0.500000
vt 0.125000 0.500000
vt 0.125000 0.500000
vt 0.375000 0.250000
vt 0.375000 0.250000
vt 0.625000 0.250000
vt 0.625000 0.250000
vt 0.375000 0.250000
vt 0.125000 0.500000
vt 0.125000 0.500000
vt 0.375000 0.250000
vt 0.625000 0.250000
vt 0.375000 0.250000
vt 0.125000 0.500000
vt 0.125000 0.500000
vt 0.875000 0.500000
vt 0.875000 0.500000
vn 1.0000 0.0000 0.0000
vn 0.0000 0.8986 0.4388
vn -1.0000 0.0000 0.0000
vn 0.0000 -0.9552 -0.2960
vn 0.0000 0.8016 0.5979
vn -0.9992 0.0000 0.0405
vn 0.9992 0.0000 0.0405
vn 0.0000 -0.9583 -0.2857
vn 0.0000 0.9653 0.2613
vn 0.0000 -0.8843 -0.4670
vn 0.0000 0.0000 1.0000
vn 0.0000 -0.7458 -0.6661
vn 0.0000 0.8648 0.5022
vn 0.0000 -0.4677 0.8839
vn 0.0000 0.7912 -0.6116
vn 0.0000 -0.5309 0.8475
vn 0.0000 0.3060 -0.9520
vn 0.0000 -0.1860 -0.9825
vn 0.0000 -0.7293 0.6842
vn 0.0000 0.5337 -0.8457
vn 0.0000 -0.0401 0.9992
vn 0.0000 0.7911 0.6117
vn 0.0000 -0.0847 0.9964
vn 0.0000 -0.2046 -0.9789
vn 0.0000 -0.9930 -0.1185
vn 0.0000 -0.8156 -0.5787
vn 0.0000 0.9930 0.1185
vn 0.0000 -0.8834 -0.4686
vn 0.0000 0.9258 0.3781
vn 0.0000 -0.9258 -0.3781
vn 0.0000 0.9998 0.0201
vn 0.0000 0.7044 0.7098
vn 0.0000 -0.9724 -0.2332
vn 0.0000 -0.3370 0.9415
vn 0.0000 -0.9998 -0.0201
vn 0.0000 0.9824 -0.1867
vn 0.0000 0.9731 0.2302
vn 0.0000 -0.9731 -0.2302
vn 0.0000 0.3370 -0.9415
vn 0.0000 -0.9824 0.1867
usemtl Black
s off
f 1/1/1 5/2/1 7/3/1 3/4/1
f 8/5/2 7/6/2 5/7/2 6/8/2
f 6/9/3 2/10/3 4/11/3 8/12/3
f 2/10/4 1/1/4 3/4/4 4/11/4
f 7/6/5 8/5/5 9/13/5 10/14/5
f 2/10/3 6/9/3 22/15/3 21/16/3
f 11/17/1 10/18/1 14/19/1 15/20/1
f 8/12/6 4/11/6 12/21/6 9/22/6
f 3/4/7 7/3/7 10/18/7 11/17/7
f 4/11/8 3/4/8 11/17/8 12/21/8
f 13/23/3 16/24/3 20/25/3 17/26/3
f 10/14/9 9/13/9 13/27/9 14/28/9
f 9/22/3 12/21/3 16/24/3 13/23/3
f 12/21/10 11/17/10 15/20/10 16/24/10
f 18/29/11 17/26/11 20/25/11 19/30/11
f 16/24/12 15/20/12 19/30/12 20/25/12
f 15/20/1 14/19/1 18/31/1 19/30/1
f 14/28/13 13/27/13 17/32/13 18/29/13
f 21/16/3 22/15/3 26/33/3 25/34/3
f 5/2/1 1/1/1 23/35/1 24/36/1
f 1/1/14 2/10/14 21/16/14 23/35/14
f 6/8/15 5/7/15 24/37/15 22/38/15
f 28/39/1 27/40/1 31/41/1 32/42/1
f 24/36/1 23/35/1 27/40/1 28/39/1
f 23/35/16 21/16/16 25/34/16 27/40/16
f 22/38/17 24/37/17 28/43/17 26/44/17
f 30/45/18 32/46/18 36/47/18 34/48/18
f 27/40/19 25/34/19 29/49/19 31/41/19
f 26/44/20 28/43/20 32/46/20 30/45/20
f 25/34/3 26/33/3 30/50/3 29/49/3
f 36/51/1 35/52/1 39/53/1 40/54/1
f 29/49/3 30/50/3 34/55/3 33/56/3
f 32/42/1 31/41/1 35/52/1 36/51/1
f 31/41/21 29/49/21 33/56/21 35/52/21
f 39/53/22 37/57/22 41/58/22 43/59/22
f 35/52/23 33/56/23 37/57/23 39/53/23
f 34/48/24 36/47/24 40/60/24 38/61/24
f 33/56/3 34/55/3 38/62/3 37/57/3
f 42/63/25 44/64/25 48/65/25 46/66/25
f 38/61/26 40/60/26 44/64/26 42/63/26
f 37/57/3 38/62/3 42/67/3 41/58/3
f 40/54/1 39/53/1 43/59/1 44/68/1
f 48/69/1 47/70/1 51/71/1 52/72/1
f 41/58/3 42/67/3 46/73/3 45/74/3
f 44/68/1 43/59/1 47/70/1 48/69/1
f 43/59/27 41/58/27 45/74/27 47/70/27
f 50/75/28 52/76/28 56/77/28 54/78/28
f 47/70/29 45/74/29 49/79/29 51/71/29
f 46/66/30 48/65/30 52/76/30 50/75/30
f 45/74/3 46/73/3 50/80/3 49/79/3
f 54/78/31 56/77/31 61/81/31 62/82/31
f 49/79/3 50/80/3 54/83/3 53/84/3
f 52/72/1 51/71/1 55/85/1 56/86/1
f 51/71/32 49/79/32 53/84/32 55/85/32
f 58/87/33 60/88/33 59/89/33 57/90/33
f 53/84/3 54/83/3 58/91/3 57/90/3
f 56/86/1 55/85/1 59/89/1 60/88/1
f 55/85/34 53/84/34 57/90/34 59/89/34
f 61/92/1 63/93/1 67/94/1 65/95/1
f 58/91/3 54/83/3 62/96/3 64/97/3
f 56/86/1 60/88/1 63/93/1 61/92/1
f 60/88/35 58/87/35 64/98/35 63/93/35
f 66/99/36 65/100/36 69/101/36 70/102/36
f 62/82/37 61/81/37 65/100/37 66/99/37
f 64/97/3 62/96/3 66/103/3 68/104/3
f 63/93/38 64/98/38 68/105/38 67/94/38
f 70/102/39 69/101/39 71/106/39 72/107/39
f 68/104/3 66/103/3 70/108/3 72/109/3
f 67/94/40 68/105/40 72/107/40 71/110/40
f 65/95/1 67/94/1 71/110/1 69/111/1
