# Blender v2.81 (sub 16) OBJ File: '4.blend'
# www.blender.org
mtllib 4.mtl
o Cube
v 0.767484 1.489983 -0.047901
v 0.864776 0.793265 -0.047901
v 0.767484 1.489983 0.047901
v 0.864776 0.793265 0.047901
v 0.070766 1.489983 -0.047901
v 0.168058 0.793265 -0.047901
v 0.070766 1.489983 0.047901
v 0.168058 0.793265 0.047901
v 0.813476 1.763501 0.047901
v 0.024774 1.763501 0.047901
v 0.813476 1.763501 -0.047901
v 0.024774 1.763501 -0.047901
v 0.382978 0.314974 -0.047901
v 0.382978 0.314974 0.047901
v 0.934072 0.314974 -0.047901
v 0.934072 0.314974 0.047901
v 0.531626 -0.016778 -0.047901
v 0.531626 -0.016778 0.047901
v 1.082720 -0.016778 -0.047901
v 1.082720 -0.016778 0.047901
v 0.521164 -0.419827 -0.047901
v 0.521164 -0.419827 0.047901
v 1.072258 -0.419827 -0.047901
v 1.072258 -0.419827 0.047901
v -0.044956 -0.039038 -0.047901
v -0.044956 -0.039038 0.047901
v -0.055418 -0.367636 -0.047901
v -0.055418 -0.367636 0.047901
v -0.452377 -0.026067 -0.047901
v -0.452377 -0.026067 0.047901
v -0.462839 -0.354665 -0.047901
v -0.462839 -0.354665 0.047901
v -0.894778 0.027370 -0.063481
v -0.894778 0.027370 0.063481
v -0.908642 -0.408102 -0.063481
v -0.908642 -0.408102 0.063481
v -0.184515 0.332020 -0.047901
v -0.184515 0.332020 0.047901
v -0.591936 0.344991 -0.047901
v -0.591936 0.344991 0.047901
v -0.412466 0.653617 -0.047901
v -0.412466 0.653617 0.047901
v -0.879985 0.666588 -0.047901
v -0.879985 0.666588 0.047901
v -0.644471 0.998482 -0.047901
v -0.644471 0.998482 0.047901
v -1.111990 1.011453 -0.047901
v -1.111990 1.011453 0.047901
v -0.629373 1.542678 -0.047901
v -0.629373 1.542678 0.047901
v -1.096892 1.555649 -0.047901
v -1.096892 1.555649 0.047901
v 0.057210 -0.790869 -0.047901
v 0.057210 -0.790869 0.047901
v -0.350211 -0.777898 -0.047901
v -0.350211 -0.777898 0.047901
v 0.001755 -1.166495 -0.047901
v 0.001755 -1.166495 0.047901
v -0.318674 -1.153524 -0.047901
v -0.318674 -1.153524 0.047901
v -0.009401 -1.442097 -0.047901
v -0.009401 -1.442097 0.047901
v -0.329830 -1.429126 -0.047901
v -0.329830 -1.429126 0.047901
v 0.084342 -1.685148 -0.047901
v 0.084342 -1.685148 0.047901
v -0.236086 -1.672178 -0.047901
v -0.236086 -1.672178 0.047901
v -1.106778 -0.094232 -0.063481
v -1.106778 -0.094232 0.063481
v -1.120642 -0.529704 -0.063481
v -1.120642 -0.529704 0.063481
vt 0.625000 0.250000
vt 0.625000 0.000000
vt 0.625000 0.000000
vt 0.625000 0.250000
vt 0.375000 0.750000
vt 0.625000 0.750000
vt 0.625000 1.000000
vt 0.375000 1.000000
vt 0.375000 0.000000
vt 0.375000 0.250000
vt 0.375000 0.250000
vt 0.375000 0.000000
vt 0.375000 0.500000
vt 0.625000 0.500000
vt 0.625000 0.500000
vt 0.875000 0.500000
vt 0.875000 0.750000
vt 0.625000 0.750000
vt 0.625000 1.000000
vt 0.375000 0.750000
vt 0.375000 1.000000
vt 0.375000 1.000000
vt 0.375000 0.750000
vt 0.375000 0.500000
vt 0.375000 0.500000
vt 0.375000 0.750000
vt 0.375000 0.500000
vt 0.375000 0.250000
vt 0.375000 0.000000
vt 0.125000 0.500000
vt 0.125000 0.750000
vt 0.375000 0.250000
vt 0.375000 1.000000
vt 0.375000 0.250000
vt 0.375000 0.250000
vt 0.375000 0.250000
vt 0.375000 0.250000
vt 0.125000 0.750000
vt 0.125000 0.500000
vt 0.375000 1.000000
vt 0.375000 1.000000
vt 0.375000 0.000000
vt 0.375000 1.000000
vt 0.375000 1.000000
vt 0.375000 1.000000
vt 0.375000 1.000000
vt 0.375000 0.250000
vt 0.375000 0.250000
vt 0.375000 1.000000
vt 0.375000 1.000000
vt 0.375000 0.250000
vt 0.375000 0.250000
vt 0.375000 0.250000
vt 0.375000 0.250000
vt 0.125000 0.500000
vt 0.125000 0.750000
vt 0.125000 0.750000
vt 0.125000 0.500000
vt 0.375000 0.000000
vt 0.375000 0.000000
vt 0.375000 0.250000
vt 0.375000 0.250000
vt 0.375000 0.000000
vt 0.375000 1.000000
vt 0.375000 1.000000
vt 0.375000 0.000000
vt 0.375000 1.000000
vt 0.375000 1.000000
vt 0.375000 1.000000
vt 0.375000 1.000000
vt 0.375000 0.000000
vt 0.375000 0.000000
vt 0.375000 0.250000
vt 0.375000 0.250000
vt 0.375000 0.250000
vt 0.375000 0.250000
vt 0.375000 0.000000
vt 0.375000 0.000000
vt 0.375000 0.000000
vt 0.375000 0.000000
vt 0.375000 1.000000
vt 0.375000 1.000000
vt 0.375000 1.000000
vt 0.375000 1.000000
vt 0.125000 0.500000
vt 0.125000 0.750000
vt 0.125000 0.750000
vt 0.125000 0.500000
vt 0.375000 0.250000
vt 0.375000 0.250000
vt 0.375000 0.250000
vt 0.375000 0.250000
vt 0.375000 0.250000
vt 0.375000 0.250000
vt 0.125000 0.500000
vt 0.125000 0.750000
vt 0.125000 0.750000
vt 0.125000 0.500000
vt 0.375000 1.000000
vt 0.375000 1.000000
vt 0.375000 1.000000
vt 0.375000 1.000000
vt 0.125000 0.750000
vt 0.125000 0.500000
vt 0.125000 0.500000
vt 0.125000 0.750000
vt 0.125000 0.500000
vt 0.125000 0.750000
vt 0.125000 0.750000
vt 0.125000 0.500000
vt 0.375000 0.250000
vt 0.375000 0.250000
vt 0.375000 0.000000
vt 0.375000 0.000000
vt 0.375000 1.000000
vt 0.375000 1.000000
vt 0.125000 0.750000
vt 0.125000 0.500000
vn -0.9862 -0.1658 0.0000
vn 0.0000 0.0000 1.0000
vn -0.9904 -0.1383 0.0000
vn -0.9121 -0.4099 0.0000
vn 0.9904 0.1383 0.0000
vn 0.0000 0.0000 -1.0000
vn 0.0000 1.0000 0.0000
vn 0.9862 -0.1658 0.0000
vn 0.9897 0.1434 0.0000
vn 0.9997 -0.0259 0.0000
vn -0.9126 -0.4089 0.0000
vn 0.9126 0.4089 0.0000
vn 0.0000 -1.0000 0.0000
vn -0.0901 -0.9959 0.0000
vn -0.0386 0.9993 0.0000
vn 0.0351 -0.0011 0.9994
vn 0.1190 -0.9929 0.0000
vn 0.0351 -0.0011 -0.9994
vn 0.1199 0.9928 0.0000
vn 0.9360 0.3520 0.0000
vn -0.9360 -0.3520 0.0000
vn 0.8158 0.5783 0.0000
vn -0.7449 -0.6672 0.0000
vn -0.8297 -0.5582 0.0000
vn 0.8297 0.5582 0.0000
vn 0.0277 0.9996 0.0000
vn 0.9996 -0.0277 0.0000
vn -0.9996 0.0277 0.0000
vn -0.9664 -0.2572 0.0000
vn 0.9664 0.2572 0.0000
vn -0.9965 -0.0837 0.0000
vn 0.9893 -0.1461 0.0000
vn 0.9992 -0.0404 0.0000
vn -0.9992 0.0404 0.0000
vn -0.0404 -0.9992 0.0000
vn -0.9330 -0.3599 0.0000
vn 0.9330 0.3599 0.0000
vn -0.9995 0.0318 0.0000
vn -0.4976 0.8674 0.0000
vn 0.4976 -0.8674 0.0000
usemtl Material
s off
f 5/1/1 7/2/1 10/3/1 12/4/1
f 4/5/2 3/6/2 7/7/2 8/8/2
f 8/9/3 7/2/3 5/1/3 6/10/3
f 8/9/4 6/10/4 13/11/4 14/12/4
f 2/13/5 1/14/5 3/6/5 4/5/5
f 6/10/6 5/1/6 1/14/6 2/13/6
f 11/15/7 12/16/7 10/17/7 9/18/7
f 3/6/8 1/14/8 11/15/8 9/18/8
f 1/14/6 5/1/6 12/4/6 11/15/6
f 7/7/2 3/6/2 9/18/2 10/19/2
f 16/20/2 14/21/2 18/22/2 20/23/2
f 2/13/9 4/5/9 16/20/9 15/24/9
f 6/10/6 2/13/6 15/24/6 13/11/6
f 4/5/2 8/8/2 14/21/2 16/20/2
f 19/25/10 20/23/10 24/26/10 23/27/10
f 14/12/11 13/11/11 17/28/11 18/29/11
f 15/24/12 16/20/12 20/23/12 19/25/12
f 13/11/6 15/24/6 19/25/6 17/28/6
f 21/30/13 23/27/13 24/26/13 22/31/13
f 17/28/6 19/25/6 23/27/6 21/32/6
f 20/23/2 18/22/2 22/33/2 24/26/2
f 17/28/6 21/32/6 27/34/6 25/35/6
f 25/35/6 27/34/6 31/36/6 29/37/6
f 21/30/14 22/31/14 28/38/14 27/39/14
f 22/33/2 18/22/2 26/40/2 28/41/2
f 18/29/15 17/28/15 25/35/15 26/42/15
f 32/43/16 30/44/16 34/45/16 36/46/16
f 25/35/6 29/37/6 39/47/6 37/48/6
f 28/41/2 26/40/2 30/44/2 32/43/2
f 28/41/2 32/43/2 56/49/2 54/50/2
f 33/51/6 35/52/6 71/53/6 69/54/6
f 31/55/17 32/56/17 36/57/17 35/58/17
f 29/37/18 31/36/18 35/52/18 33/51/18
f 30/59/19 29/37/19 33/51/19 34/60/19
f 37/48/6 39/47/6 43/61/6 41/62/6
f 26/42/20 25/35/20 37/48/20 38/63/20
f 30/44/2 26/40/2 38/64/2 40/65/2
f 29/37/21 30/59/21 40/66/21 39/47/21
f 44/67/2 42/68/2 46/69/2 48/70/2
f 38/63/22 37/48/22 41/62/22 42/71/22
f 40/65/2 38/64/2 42/68/2 44/67/2
f 39/47/23 40/66/23 44/72/23 43/61/23
f 45/73/6 47/74/6 51/75/6 49/76/6
f 43/61/24 44/72/24 48/77/24 47/74/24
f 41/62/6 43/61/6 47/74/6 45/73/6
f 42/71/25 41/62/25 45/73/25 46/78/25
f 50/79/26 49/76/26 51/75/26 52/80/26
f 46/78/27 45/73/27 49/76/27 50/79/27
f 48/70/2 46/69/2 50/81/2 52/82/2
f 47/74/28 48/77/28 52/80/28 51/75/28
f 54/50/2 56/49/2 60/83/2 58/84/2
f 32/56/29 31/55/29 55/85/29 56/86/29
f 27/39/30 28/38/30 54/87/30 53/88/30
f 31/36/6 27/34/6 53/89/6 55/90/6
f 59/91/6 57/92/6 61/93/6 63/94/6
f 56/86/31 55/85/31 59/95/31 60/96/31
f 55/90/6 53/89/6 57/92/6 59/91/6
f 53/88/32 54/87/32 58/97/32 57/98/32
f 62/99/2 64/100/2 68/101/2 66/102/2
f 57/98/33 58/97/33 62/103/33 61/104/33
f 58/84/2 60/83/2 64/100/2 62/99/2
f 60/96/34 59/95/34 63/105/34 64/106/34
f 65/107/35 66/108/35 68/109/35 67/110/35
f 64/106/36 63/105/36 67/110/36 68/109/36
f 63/94/6 61/93/6 65/111/6 67/112/6
f 61/104/37 62/103/37 66/108/37 65/107/37
f 70/113/38 69/54/38 71/53/38 72/114/38
f 34/60/39 33/51/39 69/54/39 70/113/39
f 36/46/2 34/45/2 70/115/2 72/116/2
f 35/58/40 36/57/40 72/117/40 71/118/40
