# Blender v2.83.1 OBJ File: 'EgoObjects.blend'
# www.blender.org
mtllib Newspaper_Closed.mtl
o Newspaper_Plane
v -0.540764 0.050945 0.814767
v 0.615231 0.042957 0.770083
v -0.540764 0.050945 -0.725400
v 0.615231 0.042957 -0.770083
v -0.611518 0.007988 0.814767
v -0.611518 0.007988 -0.725400
v -0.540764 -0.032442 0.814767
v -0.540764 -0.032442 -0.725400
v 0.608979 -0.014754 0.814767
v 0.608979 -0.014754 -0.725400
v -0.545921 -0.012402 0.826399
v -0.545921 -0.012402 -0.735756
v 0.620236 0.005539 0.826399
v 0.620236 0.005539 -0.735756
v -0.564744 0.027101 0.828462
v -0.541382 0.022878 -0.753117
v 0.615992 0.014672 0.845937
v 0.639354 0.010448 -0.735642
v -0.539418 0.046130 0.814767
v 0.615196 0.037958 0.770083
v -0.539449 0.046122 -0.725400
v 0.615196 0.037958 -0.770083
v -0.606518 0.008054 0.814767
v -0.606518 0.008054 -0.725400
v -0.539518 -0.027600 0.814767
v -0.539518 -0.027600 -0.725400
v 0.608902 -0.009755 0.814767
v 0.608902 -0.009755 -0.725400
v -0.545998 -0.007402 0.826399
v -0.545998 -0.007402 -0.735756
v 0.620159 0.010539 0.826399
v 0.620159 0.010539 -0.735756
v -0.564691 0.032101 0.828447
v -0.541329 0.027878 -0.753132
v 0.616045 0.019671 0.845922
v 0.639407 0.015448 -0.735657
vt 0.012013 0.007461
vt 0.984111 0.007866
vt 0.987022 0.990555
vt 0.009103 0.988195
vt 0.012013 0.007461
vt 0.009103 0.988195
vt 0.987022 0.990555
vt 0.984111 0.007866
vt 0.986551 0.006986
vt 0.986551 0.993703
vt 0.013449 0.993703
vt 0.013449 0.006986
vt 0.986551 0.006986
vt 0.013449 0.006986
vt 0.013449 0.993703
vt 0.986551 0.993703
vt 0.999972 0.077775
vt 0.000028 0.077775
vt 0.000028 0.038598
vt 0.999972 0.038598
vt 0.000028 0.000029
vt 0.999972 0.000028
vt 0.000000 0.000000
vt 0.000000 1.000000
vt 0.000000 1.000000
vt 0.000000 0.000000
vt 0.000000 0.000000
vt 0.000000 1.000000
vt 0.000000 1.000000
vt 0.000000 0.000000
vt 0.999972 0.077775
vt 0.999972 0.038598
vt 0.000028 0.038598
vt 0.000028 0.077775
vt 0.999972 0.000028
vt 0.000028 0.000029
vt 0.000000 0.000000
vt 0.000000 0.000000
vt 0.000000 1.000000
vt 0.000000 1.000000
vt 0.000000 0.000000
vt 0.000000 0.000000
vt 0.000000 1.000000
vt 0.000000 1.000000
vn 0.0069 1.0000 0.0000
vn -0.0071 -1.0000 0.0000
vn 0.0387 0.0052 0.9992
vn 1.0000 -0.0069 0.0000
vn -0.0387 -0.0050 -0.9992
vn 0.0154 -0.9999 0.0000
vn -0.0155 0.9999 0.0000
vn 0.9999 0.0154 0.0000
vn 0.0000 0.0000 1.0000
vn 0.0000 0.0000 -1.0000
vn -0.5190 0.8548 0.0000
vn -0.4961 -0.8682 0.0000
vn -0.0106 -0.9999 0.0025
vn 0.4936 -0.8697 -0.0000
vn 0.4698 0.8828 0.0000
vn -0.0154 0.9999 0.0000
vn 0.0106 0.9999 -0.0025
vn -0.9999 -0.0154 0.0000
vn -0.9998 0.0105 -0.0148
vn 0.9998 -0.0105 0.0148
vn -0.0148 0.0031 0.9999
vn 0.0148 -0.0031 -0.9999
g Newspaper_Plane_Mat2
usemtl Mat2
s off
f 1/1/1 2/2/1 4/3/1 3/4/1
f 19/5/2 21/6/2 22/7/2 20/8/2
f 2/2/3 1/1/3 19/5/3 20/8/3
f 4/3/4 2/2/4 20/8/4 22/7/4
f 3/4/5 4/3/5 22/7/5 21/6/5
g Newspaper_Plane_Mat2.001
usemtl Mat2.001
f 7/9/6 8/10/6 10/11/6 9/12/6
f 25/13/7 27/14/7 28/15/7 26/16/7
f 9/12/8 10/11/8 28/15/8 27/14/8
f 7/9/9 9/12/9 27/14/9 25/13/9
f 10/11/10 8/10/10 26/16/10 28/15/10
g Newspaper_Plane_Mat4
usemtl Mat4
f 1/17/11 3/18/11 6/19/11 5/20/11
f 5/20/12 6/19/12 8/21/12 7/22/12
f 11/23/6 12/24/6 14/25/6 13/26/6
f 15/27/13 16/28/13 18/29/13 17/30/13
f 19/31/14 23/32/14 24/33/14 21/34/14
f 23/32/15 25/35/15 26/36/15 24/33/15
f 29/37/16 31/38/16 32/39/16 30/40/16
f 33/41/17 35/42/17 36/43/17 34/44/17
f 1/17/9 5/20/9 23/32/9 19/31/9
f 6/19/10 3/18/10 21/34/10 24/33/10
f 5/20/9 7/22/9 25/35/9 23/32/9
f 8/21/10 6/19/10 24/33/10 26/36/10
f 12/24/18 11/23/18 29/37/18 30/40/18
f 13/26/8 14/25/8 32/39/8 31/38/8
f 11/23/9 13/26/9 31/38/9 29/37/9
f 14/25/10 12/24/10 30/40/10 32/39/10
f 16/28/19 15/27/19 33/41/19 34/44/19
f 17/30/20 18/29/20 36/43/20 35/42/20
f 15/27/21 17/30/21 35/42/21 33/41/21
f 18/29/22 16/28/22 34/44/22 36/43/22
