# Blender v2.83.1 OBJ File: ''
# www.blender.org
mtllib HouseKey.mtl
o Circle
v -0.130822 -0.097178 -0.163482
v -0.364649 -0.097263 -0.163241
v -0.301888 -0.068766 0.098758
v -0.179283 -0.068766 0.221320
v -0.039428 -0.068766 -0.080779
v -0.151732 -0.068766 -0.079540
v -0.183185 -0.068766 0.023412
v -0.138467 -0.068766 0.126314
v -0.130822 0.098818 -0.163482
v -0.364649 0.098903 -0.163241
v -0.301888 0.070405 0.098758
v -0.179283 0.070405 0.221320
v -0.039428 0.070405 -0.080779
v -0.151732 0.070405 -0.079540
v -0.183185 0.070405 0.023412
v -0.138467 0.070405 0.126314
v 0.000000 -0.068766 0.269724
v 0.130868 -0.068766 -0.149330
v 0.364649 -0.097263 -0.163241
v 0.301888 -0.068766 0.098758
v 0.179284 -0.068766 0.221320
v 0.000000 -0.068766 0.162068
v 0.039428 -0.068766 -0.080779
v 0.151732 -0.068766 -0.079540
v 0.183185 -0.068766 0.023412
v 0.138467 -0.068766 0.126314
v 0.000000 0.070405 0.269724
v 0.130822 0.098818 -0.163482
v 0.359593 0.070405 -0.149087
v 0.301888 0.070405 0.098758
v 0.179284 0.070405 0.221320
v 0.000000 0.070405 0.162068
v 0.039428 0.070405 -0.080779
v 0.151732 0.070405 -0.079540
v 0.183185 0.070405 0.023412
v 0.138467 0.070405 0.126314
v 0.000000 -0.097178 -0.163482
v 0.000000 -0.068766 -0.080779
v 0.000000 0.098818 -0.163482
v 0.000000 0.070405 -0.080779
v -0.364629 -0.097264 -0.361810
v -0.130807 -0.097178 -0.362051
v -0.364629 0.098904 -0.361810
v -0.130807 0.098818 -0.362051
v 0.000000 -0.068766 -0.376204
v 0.000000 0.098818 -0.362051
v 0.364629 -0.097264 -0.361810
v 0.130868 -0.068766 -0.376204
v 0.359593 0.070405 -0.375961
v 0.130807 0.098818 -0.362051
v -0.227352 -0.056731 -0.447002
v -0.082741 -0.056731 -0.447241
v -0.227352 0.058370 -0.447002
v -0.082741 0.058370 -0.447241
v 0.000000 -0.056731 -0.447241
v 0.000000 0.058370 -0.447241
v 0.227352 -0.056731 -0.447002
v 0.082741 -0.056731 -0.447241
v 0.227352 0.058370 -0.447002
v 0.082741 0.058370 -0.447241
v -0.227352 -0.056731 -0.582278
v -0.082741 -0.056731 -0.582517
v -0.227352 0.058370 -0.582278
v -0.082741 0.058370 -0.582517
v 0.000000 -0.056731 -0.582517
v 0.000000 0.058370 -0.582517
v 0.227352 -0.056731 -0.582278
v 0.082741 -0.056731 -0.582517
v 0.227352 0.058370 -0.582278
v 0.082741 0.058370 -0.582517
v -0.144353 -0.041808 -0.611010
v -0.037238 -0.041808 -0.611187
v -0.144353 0.043448 -0.611010
v -0.037238 0.043448 -0.611187
v 0.035893 -0.018618 -0.623031
v 0.035893 0.020258 -0.623031
v 0.192452 -0.041808 -0.611010
v 0.073493 -0.018618 -0.623031
v 0.192452 0.043448 -0.611010
v 0.073493 0.020258 -0.623031
v -0.144353 -0.041808 -1.197207
v -0.037238 -0.041808 -1.413735
v -0.144353 0.043448 -1.197207
v -0.037238 0.043448 -1.413735
v 0.035893 -0.018618 -1.401891
v 0.035893 0.020258 -1.401891
v 0.192452 -0.041808 -1.340383
v 0.073493 -0.018618 -1.401891
v 0.192452 0.043448 -1.340383
v 0.073493 0.020258 -1.401891
v 0.085337 -0.041808 -0.611187
v 0.085337 -0.041808 -1.413735
v 0.024049 -0.041808 -0.611187
v 0.085337 0.043448 -0.611187
v 0.024049 0.043448 -0.611187
v 0.024049 -0.041808 -1.413735
v 0.085337 0.043448 -1.413735
v 0.024049 0.043448 -1.413735
v 0.410390 0.041728 -0.163596
v 0.410390 0.041728 -0.361452
v -0.432794 0.057923 -0.177749
v -0.432794 -0.056284 -0.177749
v 0.432794 -0.056284 -0.177749
v -0.432794 0.057923 -0.347300
v -0.432794 -0.056284 -0.347300
v 0.432794 -0.056284 -0.347300
v -0.359593 -0.068766 -0.149087
v -0.130868 -0.068766 -0.149330
v -0.359593 0.070405 -0.149087
v -0.130868 0.070405 -0.149330
v 0.000000 -0.068766 -0.149330
v 0.000000 0.070405 -0.149330
v 0.359593 -0.068766 -0.149087
v 0.130822 -0.097178 -0.163482
v 0.364649 0.098903 -0.163241
v 0.130868 0.070405 -0.149330
v -0.359593 -0.068766 -0.375961
v -0.130868 -0.068766 -0.376204
v -0.359593 0.070405 -0.375961
v -0.130868 0.070405 -0.376204
v 0.000000 -0.097178 -0.362051
v 0.000000 0.070405 -0.376204
v 0.359593 -0.068766 -0.375961
v 0.130807 -0.097178 -0.362051
v 0.364629 0.098904 -0.361810
v 0.130868 0.070405 -0.376204
v -0.410390 0.041728 -0.163596
v -0.410390 -0.040089 -0.163596
v 0.432794 0.057923 -0.177749
v 0.410390 -0.040089 -0.163596
v -0.410390 0.041728 -0.361452
v -0.410390 -0.040089 -0.361452
v 0.432794 0.057923 -0.347300
v 0.410390 -0.040089 -0.361452
v -0.037238 -0.041808 -0.771697
v -0.037238 -0.041808 -0.932207
v -0.037238 -0.041808 -1.092716
v -0.037238 -0.041808 -1.253226
v 0.192452 -0.041808 -1.194509
v 0.192452 -0.041808 -1.048634
v 0.192452 -0.041808 -0.902759
v 0.192452 -0.041808 -0.756885
v 0.085337 -0.041808 -0.771697
v 0.085337 -0.041808 -0.932207
v 0.085337 -0.041808 -1.092716
v 0.085337 -0.041808 -1.253226
v 0.024049 -0.041808 -1.253226
v 0.024049 -0.041808 -1.092716
v 0.024049 -0.041808 -0.932206
v 0.024049 -0.041808 -0.771697
v -0.037238 0.043448 -0.771697
v -0.037238 0.043448 -0.932207
v -0.037238 0.043448 -1.092716
v -0.037238 0.043448 -1.253226
v -0.144353 0.043448 -1.079967
v -0.144353 0.043448 -0.962728
v -0.144353 0.043448 -0.845489
v -0.144353 0.043448 -0.728249
v 0.192452 0.043448 -0.756885
v 0.192452 0.043448 -0.902759
v 0.192452 0.043448 -1.048634
v 0.192452 0.043448 -1.194509
v 0.085337 0.043448 -1.253226
v 0.085337 0.043448 -1.092716
v 0.085337 0.043448 -0.932206
v 0.085337 0.043448 -0.771697
v 0.024049 0.043448 -0.771697
v 0.024049 0.043448 -0.932207
v 0.024049 0.043448 -1.092716
v 0.024049 0.043448 -1.253226
v -0.144353 -0.041808 -1.079967
v -0.144353 -0.041808 -0.962728
v -0.144353 -0.041808 -0.845489
v -0.144353 -0.041808 -0.728249
v 0.073493 -0.018618 -0.778803
v 0.073493 -0.018618 -0.934575
v 0.073493 -0.018618 -1.090347
v 0.073493 -0.018618 -1.246119
v 0.035893 -0.018618 -1.246119
v 0.035893 -0.018618 -1.090347
v 0.035893 -0.018618 -0.934575
v 0.035893 -0.018618 -0.778803
v 0.073493 0.020258 -1.246119
v 0.073493 0.020258 -1.090347
v 0.073493 0.020258 -0.934575
v 0.073493 0.020258 -0.778803
v 0.035893 0.020258 -0.778803
v 0.035893 0.020258 -0.934575
v 0.035893 0.020258 -1.090347
v 0.035893 0.020258 -1.246119
v -0.165601 -0.020021 -1.101755
v -0.165601 0.021661 -1.101755
v -0.165601 0.021661 -1.175419
v -0.165601 -0.020021 -1.175419
v -0.164526 -0.020021 -0.867276
v -0.164526 0.021661 -0.867276
v -0.164526 0.021661 -0.940941
v -0.164526 -0.020021 -0.940941
v -0.159587 -0.020021 -0.984516
v -0.159587 0.021661 -0.984516
v -0.159587 0.021661 -1.058180
v -0.159587 -0.020021 -1.058180
vt 0.000000 0.000000
vt 0.000000 0.000000
vt 0.000000 0.000000
vt 0.000000 0.000000
vt 0.000000 0.000000
vt 0.000000 0.000000
vt 0.000000 0.000000
vt 0.000000 0.000000
vt 0.000000 0.000000
vt 0.000000 0.000000
vt 0.000000 0.000000
vt 0.000000 0.000000
vt 0.000000 0.000000
vt 0.000000 0.000000
vt 0.000000 0.000000
vt 0.000000 0.000000
vt 0.000000 0.000000
vt 0.000000 0.000000
vt 0.000000 0.000000
vt 0.000000 0.000000
vt 0.000000 0.000000
vt 0.000000 0.000000
vt 0.000000 0.000000
vt 0.000000 0.000000
vt 0.000000 0.000000
vt 0.000000 0.000000
vt 0.000000 0.000000
vt 0.000000 0.000000
vt 0.000000 0.000000
vt 0.000000 0.000000
vt 0.000000 0.000000
vt 0.000000 0.000000
vt 0.000000 0.000000
vt 0.000000 0.000000
vt 0.000000 0.000000
vt 0.000000 0.000000
vt 0.000000 0.000000
vt 0.000000 0.000000
vt 0.000000 0.000000
vt 0.000000 0.000000
vt 0.000000 0.000000
vt 0.000000 0.000000
vt 0.000000 0.000000
vt 0.000000 0.000000
vt 0.000000 0.000000
vt 0.000000 0.000000
vt 0.000000 0.000000
vt 0.000000 0.000000
vt 0.000000 0.000000
vt 0.000000 0.000000
vt 0.000000 0.000000
vt 0.000000 0.000000
vt 0.000000 0.000000
vt 0.000000 0.000000
vt 0.000000 0.000000
vt 0.000000 0.000000
vt 0.000000 0.000000
vt 0.000000 0.000000
vt 0.000000 0.000000
vt 0.000000 0.000000
vt 0.000000 0.000000
vt 0.000000 0.000000
vt 0.000000 0.000000
vt 0.000000 0.000000
vt 0.000000 0.000000
vt 0.000000 0.000000
vt 0.000000 0.000000
vt 0.000000 0.000000
vt 0.000000 0.000000
vt 0.000000 0.000000
vt 0.000000 0.000000
vt 0.000000 0.000000
vt 0.000000 0.000000
vt 0.000000 0.000000
vt 0.000000 0.000000
vt 0.000000 0.000000
vt 0.000000 0.000000
vt 0.000000 0.000000
vt 0.000000 0.000000
vt 0.000000 0.000000
vt 0.000000 0.000000
vt 0.000000 0.000000
vt 0.000000 0.000000
vt 0.000000 0.000000
vt 0.000000 0.000000
vt 0.000000 0.000000
vt 0.000000 0.000000
vt 0.000000 0.000000
vt 0.000000 0.000000
vt 0.000000 0.000000
vt 0.000000 0.000000
vt 0.000000 0.000000
vt 0.000000 0.000000
vt 0.000000 0.000000
vt 0.000000 0.000000
vt 0.000000 0.000000
vt 0.000000 0.000000
vt 0.000000 0.000000
vt 0.000000 0.000000
vt 0.000000 0.000000
vt 0.000000 0.000000
vt 0.000000 0.000000
vt 0.000000 0.000000
vt 0.000000 0.000000
vt 0.000000 0.000000
vt 0.000000 0.000000
vt 0.000000 0.000000
vt 0.000000 0.000000
vt 0.000000 0.000000
vt 0.000000 0.000000
vt 0.000000 0.000000
vt 0.000000 0.000000
vt 0.000000 0.000000
vt 0.000000 0.000000
vt 0.000000 0.000000
vt 0.000000 0.000000
vt 0.000000 0.000000
vt 0.000000 0.000000
vt 0.000000 0.000000
vt 0.000000 0.000000
vt 0.000000 0.000000
vt 0.000000 0.000000
vt 0.000000 0.000000
vt 0.000000 0.000000
vt 0.000000 0.000000
vt 0.000000 0.000000
vt 0.000000 0.000000
vt 0.000000 0.000000
vt 0.000000 0.000000
vt 0.000000 0.000000
vt 0.000000 0.000000
vt 0.000000 0.000000
vt 0.000000 0.000000
vt 0.000000 0.000000
vt 0.000000 0.000000
vt 0.000000 0.000000
vt 0.000000 0.000000
vt 0.000000 0.000000
vt 0.000000 0.000000
vt 0.000000 0.000000
vt 0.000000 0.000000
vt 0.000000 0.000000
vt 0.000000 0.000000
vt 0.000000 0.000000
vt 0.000000 0.000000
vt 0.000000 0.000000
vt 0.000000 0.000000
vt 0.000000 0.000000
vt 0.000000 0.000000
vt 0.000000 0.000000
vt 0.000000 0.000000
vt 0.000000 0.000000
vt 0.000000 0.000000
vt 0.000000 0.000000
vt 0.000000 0.000000
vt 0.000000 0.000000
vt 0.000000 0.000000
vt 0.000000 0.000000
vt 0.000000 0.000000
vt 0.000000 0.000000
vt 0.000000 0.000000
vt 0.000000 0.000000
vt 0.000000 0.000000
vt 0.000000 0.000000
vt 0.000000 0.000000
vt 0.000000 0.000000
vt 0.000000 0.000000
vt 0.000000 0.000000
vt 0.000000 0.000000
vt 0.000000 0.000000
vt 0.000000 0.000000
vt 0.000000 0.000000
vt 0.000000 0.000000
vt 0.000000 0.000000
vt 0.000000 0.000000
vt 0.000000 0.000000
vt 0.000000 0.000000
vt 0.000000 0.000000
vt 0.000000 0.000000
vt 0.000000 0.000000
vt 0.000000 0.000000
vt 0.000000 0.000000
vt 0.000000 0.000000
vt 0.000000 0.000000
vt 0.000000 0.000000
vt 0.000000 0.000000
vt 0.000000 0.000000
vt 0.000000 0.000000
vt 0.000000 0.000000
vt 0.000000 0.000000
vt 0.000000 0.000000
vt 0.000000 0.000000
vt 0.000000 0.000000
vt 0.000000 0.000000
vt 0.000000 0.000000
vt 0.000000 0.000000
vt 0.000000 0.000000
vt 0.000000 0.000000
vt 0.000000 0.000000
vt 0.000000 0.000000
vt 0.000000 0.000000
vt 0.000000 0.000000
vn 0.0000 -1.0000 0.0000
vn 0.0000 1.0000 0.0000
vn 0.9171 0.0000 -0.3986
vn 0.2500 0.0000 -0.9682
vn 0.0004 1.0000 0.0000
vn 0.0000 0.0000 1.0000
vn -0.9740 0.0000 0.2268
vn 0.0110 0.0000 0.9999
vn -0.7070 0.0000 0.7072
vn 0.9564 0.0000 0.2922
vn -0.2607 0.0000 0.9654
vn -0.9171 0.0000 -0.3986
vn -0.2500 0.0000 -0.9682
vn -0.0004 1.0000 0.0000
vn 0.9740 0.0000 0.2268
vn -0.0110 0.0000 0.9999
vn 0.7070 0.0000 0.7072
vn -0.9564 0.0000 0.2922
vn 0.2607 0.0000 0.9654
vn 0.0002 -0.9859 -0.1673
vn -0.0002 -0.9859 -0.1673
vn 0.4732 0.0000 -0.8809
vn -0.4732 0.0000 -0.8809
vn 0.5153 0.8570 -0.0000
vn -0.5153 -0.8570 -0.0000
vn -0.0004 -1.0000 0.0000
vn 0.0004 -1.0000 0.0000
vn 1.0000 0.0000 0.0000
vn -1.0000 0.0000 0.0000
vn 0.0000 -0.9860 -0.1670
vn -0.0002 0.9859 -0.1673
vn 0.0002 0.9859 -0.1673
vn 0.0000 0.9860 -0.1670
vn 0.0000 -0.8870 -0.4617
vn 0.0008 -0.8871 -0.4616
vn -0.0008 -0.8865 -0.4626
vn 0.6356 0.0000 -0.7720
vn -0.0008 0.8865 -0.4626
vn 0.0008 0.8871 -0.4616
vn 0.0000 0.8870 -0.4617
vn -0.3271 0.0000 -0.9450
vn -0.8963 0.0000 -0.4434
vn 0.0000 0.0000 -1.0000
vn 0.5650 0.0000 -0.8251
vn -0.8906 -0.4548 0.0000
vn 0.0000 -0.4548 -0.8906
vn 0.0000 0.4548 -0.8906
vn 0.0000 -0.4548 0.8906
vn 0.0000 0.4548 0.8906
vn 0.8906 -0.4548 0.0000
vn -0.8906 0.4548 0.0000
vn 0.8906 0.4548 0.0000
vn 0.2746 0.0000 0.9615
vn 0.5153 -0.8570 -0.0000
vn -0.5153 0.8570 -0.0000
vn -0.2746 0.0000 0.9615
vn -0.2746 0.0000 -0.9615
vn 0.2746 0.0000 -0.9615
vn 0.0010 -0.4454 0.8953
vn 0.0010 0.4454 0.8953
vn -0.0000 -0.4459 0.8951
vn -0.0000 0.4459 0.8951
vn -0.0010 -0.4454 0.8953
vn -0.0010 0.4454 0.8953
vn -0.0009 -0.4452 -0.8954
vn -0.0009 0.4452 -0.8954
vn -0.0000 -0.4459 -0.8951
vn -0.0000 0.4459 -0.8951
vn 0.0009 -0.4452 -0.8954
vn 0.0009 0.4452 -0.8954
vn -0.5341 0.0000 0.8454
vn 0.5341 0.0000 0.8454
vn -0.5340 0.0000 -0.8455
vn 0.5340 0.0000 -0.8455
vn -0.3920 -0.3082 0.8668
vn -0.3919 -0.3083 -0.8668
vn 0.3920 0.3082 0.8668
vn 0.3919 0.3083 -0.8668
vn 0.3920 -0.3082 0.8668
vn 0.3919 -0.3083 -0.8668
vn -0.3919 0.3083 -0.8668
vn -0.3920 0.3082 0.8668
vn -0.7159 0.0000 0.6982
vn -0.7159 0.6982 0.0000
vn -0.7159 0.0000 -0.6982
vn -0.7159 -0.6982 0.0000
vn -0.7338 -0.0000 0.6794
vn -0.7338 0.6794 0.0000
vn -0.7338 0.0000 -0.6794
vn -0.7338 -0.6794 0.0000
vn -0.8195 0.0000 0.5730
vn -0.8195 0.5730 0.0000
vn -0.8195 0.0000 -0.5730
vn -0.8195 -0.5730 0.0000
g Circle_Circle_Key
usemtl Key
s off
f 17/1/1 4/2/1 8/3/1 22/4/1
f 107/5/1 108/6/1 5/7/1 6/8/1
f 3/9/1 107/5/1 6/8/1 7/10/1
f 4/2/1 3/9/1 7/10/1 8/3/1
f 27/11/2 32/12/2 16/13/2 12/14/2
f 109/15/2 14/16/2 13/17/2 110/18/2
f 11/19/2 15/20/2 14/16/2 109/15/2
f 12/14/2 16/13/2 15/20/2 11/19/2
f 7/10/3 15/20/3 16/13/3 8/3/3
f 8/3/4 16/13/4 32/12/4 22/4/4
f 10/21/5 9/22/5 44/23/5 43/24/5
f 38/25/6 40/26/6 13/17/6 5/7/6
f 3/9/7 11/19/7 109/15/7 107/5/7
f 5/7/8 13/17/8 14/16/8 6/8/8
f 4/2/9 12/14/9 11/19/9 3/9/9
f 6/8/10 14/16/10 15/20/10 7/10/10
f 17/1/11 27/11/11 12/14/11 4/2/11
f 37/27/1 1/28/1 42/29/1 121/30/1
f 110/18/2 13/17/2 40/26/2 112/31/2
f 108/6/1 111/32/1 38/25/1 5/7/1
f 17/1/1 22/4/1 26/33/1 21/34/1
f 113/35/1 24/36/1 23/37/1 18/38/1
f 20/39/1 25/40/1 24/36/1 113/35/1
f 21/34/1 26/33/1 25/40/1 20/39/1
f 27/11/2 31/41/2 36/42/2 32/12/2
f 29/43/2 116/44/2 33/45/2 34/46/2
f 30/47/2 29/43/2 34/46/2 35/48/2
f 31/41/2 30/47/2 35/48/2 36/42/2
f 25/40/12 26/33/12 36/42/12 35/48/12
f 26/33/13 22/4/13 32/12/13 36/42/13
f 28/49/14 115/50/14 125/51/14 50/52/14
f 38/25/6 23/37/6 33/45/6 40/26/6
f 20/39/15 113/35/15 29/43/15 30/47/15
f 23/37/16 24/36/16 34/46/16 33/45/16
f 21/34/17 20/39/17 30/47/17 31/41/17
f 24/36/18 25/40/18 35/48/18 34/46/18
f 17/1/19 21/34/19 31/41/19 27/11/19
f 114/53/1 37/27/1 121/30/1 124/54/1
f 116/44/2 112/31/2 40/26/2 33/45/2
f 18/38/1 23/37/1 38/25/1 111/32/1
f 123/55/20 48/56/20 58/57/20 57/58/20
f 118/59/21 117/60/21 51/61/21 52/62/21
f 49/63/22 123/55/22 57/58/22 59/64/22
f 117/60/23 119/65/23 53/66/23 51/61/23
f 125/51/24 115/50/24 129/67/24 133/68/24
f 41/69/25 2/70/25 102/71/25 105/72/25
f 39/73/2 28/49/2 50/52/2 46/74/2
f 19/75/26 114/53/26 124/54/26 47/76/26
f 1/28/27 2/70/27 41/69/27 42/29/27
f 9/22/2 39/73/2 46/74/2 44/23/2
f 57/58/1 58/57/1 68/77/1 67/78/1
f 52/62/1 51/61/1 61/79/1 62/80/1
f 59/64/28 57/58/28 67/78/28 69/81/28
f 51/61/29 53/66/29 63/82/29 61/79/29
f 45/83/30 118/59/30 52/62/30 55/84/30
f 48/56/30 45/83/30 55/84/30 58/57/30
f 119/65/31 120/85/31 54/86/31 53/66/31
f 126/87/32 49/63/32 59/64/32 60/88/32
f 120/85/33 122/89/33 56/90/33 54/86/33
f 122/89/33 126/87/33 60/88/33 56/90/33
f 65/91/34 62/80/34 72/92/34 93/93/34
f 67/78/35 68/77/35 91/94/35 77/95/35
f 62/80/36 61/79/36 71/96/36 72/92/36
f 69/81/37 67/78/37 77/95/37 79/97/37
f 55/84/1 52/62/1 62/80/1 65/91/1
f 58/57/1 55/84/1 65/91/1 68/77/1
f 53/66/2 54/86/2 64/98/2 63/82/2
f 60/88/2 59/64/2 69/81/2 70/99/2
f 54/86/2 56/90/2 66/100/2 64/98/2
f 56/90/2 60/88/2 70/99/2 66/100/2
f 155/101/2 154/102/2 84/103/2 83/104/2
f 178/105/1 179/106/1 85/107/1 88/108/1
f 147/109/1 138/110/1 82/111/1 96/112/1
f 139/113/1 146/114/1 92/115/1 87/116/1
f 68/77/34 65/91/34 93/93/34 91/94/34
f 63/82/38 64/98/38 74/117/38 73/118/38
f 70/99/39 69/81/39 79/97/39 94/119/39
f 64/98/40 66/100/40 95/120/40 74/117/40
f 66/100/40 70/99/40 94/119/40 95/120/40
f 61/79/41 63/82/41 73/118/41 71/96/41
f 81/121/42 83/104/42 84/103/42 82/111/42
f 82/111/43 84/103/43 98/122/43 96/112/43
f 87/116/44 92/115/44 97/123/44 89/124/44
f 92/115/43 96/112/43 98/122/43 97/123/43
f 163/125/2 162/126/2 89/124/2 97/123/2
f 154/102/2 170/127/2 98/122/2 84/103/2
f 190/128/2 183/129/2 90/130/2 86/131/2
f 191/132/29 192/133/29 193/134/29 194/135/29
f 162/126/28 139/113/28 87/116/28 89/124/28
f 138/110/1 171/136/1 81/121/1 82/111/1
f 178/105/45 88/108/45 92/115/45 146/114/45
f 75/137/46 78/138/46 91/94/46 93/93/46
f 80/139/47 76/140/47 95/120/47 94/119/47
f 88/108/48 85/107/48 96/112/48 92/115/48
f 86/131/49 90/130/49 97/123/49 98/122/49
f 182/141/50 75/137/50 93/93/50 150/142/50
f 186/143/51 80/139/51 94/119/51 166/144/51
f 190/128/52 86/131/52 98/122/52 170/127/52
f 102/71/29 101/145/29 104/146/29 105/72/29
f 129/67/28 103/147/28 106/148/28 133/68/28
f 29/43/53 113/35/53 130/149/53 99/150/53
f 19/75/54 47/76/54 106/148/54 103/147/54
f 10/21/55 43/24/55 104/146/55 101/145/55
f 107/5/56 109/15/56 127/151/56 128/152/56
f 119/65/57 117/60/57 132/153/57 131/154/57
f 123/55/58 49/63/58 100/155/58 134/156/58
f 2/70/59 1/28/59 108/6/59 107/5/59
f 9/22/60 10/21/60 109/15/60 110/18/60
f 1/28/61 37/27/61 111/32/61 108/6/61
f 39/73/62 9/22/62 110/18/62 112/31/62
f 114/53/63 19/75/63 113/35/63 18/38/63
f 115/50/64 28/49/64 116/44/64 29/43/64
f 37/27/61 114/53/61 18/38/61 111/32/61
f 28/49/62 39/73/62 112/31/62 116/44/62
f 42/29/65 41/69/65 117/60/65 118/59/65
f 43/24/66 44/23/66 120/85/66 119/65/66
f 121/30/67 42/29/67 118/59/67 45/83/67
f 44/23/68 46/74/68 122/89/68 120/85/68
f 47/76/69 124/54/69 48/56/69 123/55/69
f 50/52/70 125/51/70 49/63/70 126/87/70
f 124/54/67 121/30/67 45/83/67 48/56/67
f 46/74/68 50/52/68 126/87/68 122/89/68
f 101/145/71 102/71/71 128/152/71 127/151/71
f 103/147/72 129/67/72 99/150/72 130/149/72
f 105/72/73 104/146/73 131/154/73 132/153/73
f 133/68/74 106/148/74 134/156/74 100/155/74
f 102/71/75 2/70/75 107/5/75 128/152/75
f 41/69/76 105/72/76 132/153/76 117/60/76
f 129/67/77 115/50/77 29/43/77 99/150/77
f 125/51/78 133/68/78 100/155/78 49/63/78
f 19/75/79 103/147/79 130/149/79 113/35/79
f 106/148/80 47/76/80 123/55/80 134/156/80
f 104/146/81 43/24/81 119/65/81 131/154/81
f 10/21/82 101/145/82 127/151/82 109/15/82
f 76/140/52 187/157/52 167/158/52 95/120/52
f 187/157/52 188/159/52 168/160/52 167/158/52
f 188/159/52 189/161/52 169/162/52 168/160/52
f 189/161/52 190/128/52 170/127/52 169/162/52
f 90/130/51 183/129/51 163/125/51 97/123/51
f 183/129/51 184/163/51 164/164/51 163/125/51
f 184/163/51 185/165/51 165/166/51 164/164/51
f 185/165/51 186/143/51 166/144/51 165/166/51
f 85/107/50 179/106/50 147/109/50 96/112/50
f 179/106/50 180/167/50 148/168/50 147/109/50
f 180/167/50 181/169/50 149/170/50 148/168/50
f 181/169/50 182/141/50 150/142/50 149/170/50
f 78/138/45 175/171/45 143/172/45 91/94/45
f 175/171/45 176/173/45 144/174/45 143/172/45
f 176/173/45 177/175/45 145/176/45 144/174/45
f 177/175/45 178/105/45 146/114/45 145/176/45
f 72/92/1 71/96/1 174/177/1 135/178/1
f 135/178/1 174/177/1 173/179/1 136/180/1
f 136/180/1 173/179/1 172/181/1 137/182/1
f 137/182/1 172/181/1 171/136/1 138/110/1
f 79/97/28 77/95/28 142/183/28 159/184/28
f 159/184/28 142/183/28 141/185/28 160/186/28
f 160/186/28 141/185/28 140/187/28 161/188/28
f 161/188/28 140/187/28 139/113/28 162/126/28
f 71/96/29 73/118/29 158/189/29 174/177/29
f 174/177/29 158/189/29 157/190/29 173/179/29
f 195/191/29 196/192/29 197/193/29 198/194/29
f 199/195/29 200/196/29 201/197/29 202/198/29
f 76/140/2 80/139/2 186/143/2 187/157/2
f 187/157/2 186/143/2 185/165/2 188/159/2
f 188/159/2 185/165/2 184/163/2 189/161/2
f 189/161/2 184/163/2 183/129/2 190/128/2
f 74/117/2 95/120/2 167/158/2 151/199/2
f 151/199/2 167/158/2 168/160/2 152/200/2
f 152/200/2 168/160/2 169/162/2 153/201/2
f 153/201/2 169/162/2 170/127/2 154/102/2
f 94/119/2 79/97/2 159/184/2 166/144/2
f 166/144/2 159/184/2 160/186/2 165/166/2
f 165/166/2 160/186/2 161/188/2 164/164/2
f 164/164/2 161/188/2 162/126/2 163/125/2
f 77/95/1 91/94/1 143/172/1 142/183/1
f 142/183/1 143/172/1 144/174/1 141/185/1
f 141/185/1 144/174/1 145/176/1 140/187/1
f 140/187/1 145/176/1 146/114/1 139/113/1
f 93/93/1 72/92/1 135/178/1 150/142/1
f 150/142/1 135/178/1 136/180/1 149/170/1
f 149/170/1 136/180/1 137/182/1 148/168/1
f 148/168/1 137/182/1 138/110/1 147/109/1
f 78/138/1 75/137/1 182/141/1 175/171/1
f 175/171/1 182/141/1 181/169/1 176/173/1
f 176/173/1 181/169/1 180/167/1 177/175/1
f 177/175/1 180/167/1 179/106/1 178/105/1
f 73/118/2 74/117/2 151/199/2 158/189/2
f 158/189/2 151/199/2 152/200/2 157/190/2
f 157/190/2 152/200/2 153/201/2 156/202/2
f 156/202/2 153/201/2 154/102/2 155/101/2
f 171/136/83 155/101/83 192/133/83 191/132/83
f 155/101/84 83/104/84 193/134/84 192/133/84
f 83/104/85 81/121/85 194/135/85 193/134/85
f 81/121/86 171/136/86 191/132/86 194/135/86
f 173/179/87 157/190/87 196/192/87 195/191/87
f 157/190/88 156/202/88 197/193/88 196/192/88
f 156/202/89 172/181/89 198/194/89 197/193/89
f 172/181/90 173/179/90 195/191/90 198/194/90
f 172/181/91 156/202/91 200/196/91 199/195/91
f 156/202/92 155/101/92 201/197/92 200/196/92
f 155/101/93 171/136/93 202/198/93 201/197/93
f 171/136/94 172/181/94 199/195/94 202/198/94
